<mxfile host="app.diagrams.net" agent="Mozilla/5.0 (Windows NT 10.0; Win64; x64; rv:132.0) Gecko/20100101 Firefox/132.0" version="24.8.3">
  <diagram name="Page-1" id="5b4a9pv3hdZwVFBgPUEv">
    <mxGraphModel dx="2950" dy="1116" grid="1" gridSize="10" guides="1" tooltips="1" connect="1" arrows="1" fold="1" page="1" pageScale="1" pageWidth="850" pageHeight="1100" math="0" shadow="0">
      <root>
        <mxCell id="0" />
        <mxCell id="1" parent="0" />
        <mxCell id="9TcWHJmhF9ff8y3S5NJL-1" value="&lt;font style=&quot;font-size: 22px;&quot;&gt;Pending invites&lt;/font&gt;" style="text;html=1;align=center;verticalAlign=middle;whiteSpace=wrap;rounded=0;" vertex="1" parent="1">
          <mxGeometry x="700" y="10" width="160" height="80" as="geometry" />
        </mxCell>
        <mxCell id="9TcWHJmhF9ff8y3S5NJL-3" value="Every 3 seconds in friends list page" style="rounded=0;whiteSpace=wrap;html=1;" vertex="1" parent="1">
          <mxGeometry x="217.5" y="40" width="120" height="60" as="geometry" />
        </mxCell>
        <mxCell id="9TcWHJmhF9ff8y3S5NJL-6" value="" style="strokeWidth=2;html=1;shape=mxgraph.flowchart.annotation_2;align=left;labelPosition=right;pointerEvents=1;rotation=90;" vertex="1" parent="1">
          <mxGeometry x="261.25" y="-171.25" width="50" height="602.5" as="geometry" />
        </mxCell>
        <mxCell id="9TcWHJmhF9ff8y3S5NJL-7" value="&lt;div&gt;Get amount of pending invites&lt;/div&gt;&lt;div&gt;(get_pending_invites_amount.php)&lt;br&gt;&lt;/div&gt;" style="rounded=0;whiteSpace=wrap;html=1;" vertex="1" parent="1">
          <mxGeometry x="470" y="170" width="210" height="60" as="geometry" />
        </mxCell>
        <mxCell id="9TcWHJmhF9ff8y3S5NJL-8" value="&lt;div&gt;Get information about every pending invite&lt;/div&gt;&lt;div&gt;(load_pending_invites.php)&lt;br&gt;&lt;/div&gt;" style="rounded=0;whiteSpace=wrap;html=1;" vertex="1" parent="1">
          <mxGeometry x="-100" y="290" width="160" height="60" as="geometry" />
        </mxCell>
        <mxCell id="9TcWHJmhF9ff8y3S5NJL-9" value="Is the Add Friends tab loaded in?" style="rhombus;whiteSpace=wrap;html=1;" vertex="1" parent="1">
          <mxGeometry x="-60" y="160" width="80" height="80" as="geometry" />
        </mxCell>
        <mxCell id="9TcWHJmhF9ff8y3S5NJL-10" value="" style="endArrow=classic;html=1;rounded=0;" edge="1" parent="1">
          <mxGeometry width="50" height="50" relative="1" as="geometry">
            <mxPoint x="-20" y="250" as="sourcePoint" />
            <mxPoint x="-20" y="280" as="targetPoint" />
          </mxGeometry>
        </mxCell>
        <mxCell id="9TcWHJmhF9ff8y3S5NJL-11" value="" style="endArrow=classic;html=1;rounded=0;" edge="1" parent="1">
          <mxGeometry width="50" height="50" relative="1" as="geometry">
            <mxPoint x="-20" y="360" as="sourcePoint" />
            <mxPoint x="-20" y="400" as="targetPoint" />
          </mxGeometry>
        </mxCell>
        <mxCell id="9TcWHJmhF9ff8y3S5NJL-12" value="Get every pending invite from database where the reciever (user_id_2) is the current user" style="rounded=0;whiteSpace=wrap;html=1;" vertex="1" parent="1">
          <mxGeometry x="-95" y="410" width="150" height="60" as="geometry" />
        </mxCell>
        <mxCell id="9TcWHJmhF9ff8y3S5NJL-13" value="pending_friend_list table" style="swimlane;fontStyle=0;childLayout=stackLayout;horizontal=1;startSize=30;horizontalStack=0;resizeParent=1;resizeParentMax=0;resizeLast=0;collapsible=1;marginBottom=0;whiteSpace=wrap;html=1;" vertex="1" parent="1">
          <mxGeometry x="-400" y="920" width="140" height="120" as="geometry" />
        </mxCell>
        <mxCell id="9TcWHJmhF9ff8y3S5NJL-14" value="user_id_1 (sender)" style="text;strokeColor=none;fillColor=none;align=left;verticalAlign=middle;spacingLeft=4;spacingRight=4;overflow=hidden;points=[[0,0.5],[1,0.5]];portConstraint=eastwest;rotatable=0;whiteSpace=wrap;html=1;" vertex="1" parent="9TcWHJmhF9ff8y3S5NJL-13">
          <mxGeometry y="30" width="140" height="30" as="geometry" />
        </mxCell>
        <mxCell id="9TcWHJmhF9ff8y3S5NJL-15" value="user_id_2 (receiver)" style="text;strokeColor=none;fillColor=none;align=left;verticalAlign=middle;spacingLeft=4;spacingRight=4;overflow=hidden;points=[[0,0.5],[1,0.5]];portConstraint=eastwest;rotatable=0;whiteSpace=wrap;html=1;" vertex="1" parent="9TcWHJmhF9ff8y3S5NJL-13">
          <mxGeometry y="60" width="140" height="30" as="geometry" />
        </mxCell>
        <mxCell id="9TcWHJmhF9ff8y3S5NJL-16" value="sent (when the invite was sent)" style="text;strokeColor=none;fillColor=none;align=left;verticalAlign=middle;spacingLeft=4;spacingRight=4;overflow=hidden;points=[[0,0.5],[1,0.5]];portConstraint=eastwest;rotatable=0;whiteSpace=wrap;html=1;" vertex="1" parent="9TcWHJmhF9ff8y3S5NJL-13">
          <mxGeometry y="90" width="140" height="30" as="geometry" />
        </mxCell>
        <mxCell id="9TcWHJmhF9ff8y3S5NJL-21" value="Are there any results?" style="rhombus;whiteSpace=wrap;html=1;" vertex="1" parent="1">
          <mxGeometry x="-60" y="520" width="80" height="80" as="geometry" />
        </mxCell>
        <mxCell id="9TcWHJmhF9ff8y3S5NJL-22" value="" style="endArrow=classic;html=1;rounded=0;" edge="1" parent="1">
          <mxGeometry width="50" height="50" relative="1" as="geometry">
            <mxPoint x="-20.22" y="480" as="sourcePoint" />
            <mxPoint x="-20.22" y="510" as="targetPoint" />
          </mxGeometry>
        </mxCell>
        <mxCell id="9TcWHJmhF9ff8y3S5NJL-23" value="" style="endArrow=classic;html=1;rounded=0;" edge="1" parent="1">
          <mxGeometry width="50" height="50" relative="1" as="geometry">
            <mxPoint x="40" y="560" as="sourcePoint" />
            <mxPoint x="90" y="560" as="targetPoint" />
          </mxGeometry>
        </mxCell>
        <mxCell id="9TcWHJmhF9ff8y3S5NJL-24" value="print &quot;No pending invites.&quot;" style="rounded=0;whiteSpace=wrap;html=1;" vertex="1" parent="1">
          <mxGeometry x="115" y="530" width="120" height="60" as="geometry" />
        </mxCell>
        <mxCell id="9TcWHJmhF9ff8y3S5NJL-25" value="No" style="text;html=1;align=center;verticalAlign=middle;whiteSpace=wrap;rounded=0;" vertex="1" parent="1">
          <mxGeometry x="30" y="530" width="60" height="30" as="geometry" />
        </mxCell>
        <mxCell id="9TcWHJmhF9ff8y3S5NJL-26" value="" style="endArrow=classic;html=1;rounded=0;" edge="1" parent="1">
          <mxGeometry width="50" height="50" relative="1" as="geometry">
            <mxPoint x="-20" y="610" as="sourcePoint" />
            <mxPoint x="-20" y="640" as="targetPoint" />
          </mxGeometry>
        </mxCell>
        <mxCell id="9TcWHJmhF9ff8y3S5NJL-27" value="For each pending invite found" style="rounded=0;whiteSpace=wrap;html=1;" vertex="1" parent="1">
          <mxGeometry x="-80" y="650" width="120" height="60" as="geometry" />
        </mxCell>
        <mxCell id="9TcWHJmhF9ff8y3S5NJL-28" value="Yes" style="text;html=1;align=center;verticalAlign=middle;whiteSpace=wrap;rounded=0;" vertex="1" parent="1">
          <mxGeometry x="-20" y="610" width="60" height="30" as="geometry" />
        </mxCell>
        <mxCell id="9TcWHJmhF9ff8y3S5NJL-29" value="Yes" style="text;html=1;align=center;verticalAlign=middle;whiteSpace=wrap;rounded=0;" vertex="1" parent="1">
          <mxGeometry x="-20" y="250" width="60" height="30" as="geometry" />
        </mxCell>
        <mxCell id="9TcWHJmhF9ff8y3S5NJL-30" value="" style="endArrow=classic;html=1;rounded=0;" edge="1" parent="1">
          <mxGeometry width="50" height="50" relative="1" as="geometry">
            <mxPoint x="-70" y="200" as="sourcePoint" />
            <mxPoint x="-120" y="200" as="targetPoint" />
          </mxGeometry>
        </mxCell>
        <mxCell id="9TcWHJmhF9ff8y3S5NJL-31" value="No" style="text;html=1;align=center;verticalAlign=middle;whiteSpace=wrap;rounded=0;" vertex="1" parent="1">
          <mxGeometry x="-130" y="170" width="60" height="30" as="geometry" />
        </mxCell>
        <mxCell id="9TcWHJmhF9ff8y3S5NJL-32" value="Do nothing" style="rounded=0;whiteSpace=wrap;html=1;" vertex="1" parent="1">
          <mxGeometry x="-250" y="170" width="120" height="60" as="geometry" />
        </mxCell>
        <mxCell id="9TcWHJmhF9ff8y3S5NJL-33" value="Get everything from users table where user id is the same as the user id of the sender (user_id_1)" style="rounded=0;whiteSpace=wrap;html=1;" vertex="1" parent="1">
          <mxGeometry x="-95" y="760" width="150" height="90" as="geometry" />
        </mxCell>
        <mxCell id="9TcWHJmhF9ff8y3S5NJL-34" value="" style="endArrow=classic;html=1;rounded=0;" edge="1" parent="1">
          <mxGeometry width="50" height="50" relative="1" as="geometry">
            <mxPoint x="-20" y="720" as="sourcePoint" />
            <mxPoint x="-20" y="750" as="targetPoint" />
          </mxGeometry>
        </mxCell>
        <mxCell id="9TcWHJmhF9ff8y3S5NJL-35" value="users" style="swimlane;fontStyle=0;childLayout=stackLayout;horizontal=1;startSize=30;horizontalStack=0;resizeParent=1;resizeParentMax=0;resizeLast=0;collapsible=1;marginBottom=0;whiteSpace=wrap;html=1;" vertex="1" parent="1">
          <mxGeometry x="-400" y="720" width="140" height="150" as="geometry" />
        </mxCell>
        <mxCell id="9TcWHJmhF9ff8y3S5NJL-36" value="user_id" style="text;strokeColor=none;fillColor=none;align=left;verticalAlign=middle;spacingLeft=4;spacingRight=4;overflow=hidden;points=[[0,0.5],[1,0.5]];portConstraint=eastwest;rotatable=0;whiteSpace=wrap;html=1;" vertex="1" parent="9TcWHJmhF9ff8y3S5NJL-35">
          <mxGeometry y="30" width="140" height="30" as="geometry" />
        </mxCell>
        <mxCell id="9TcWHJmhF9ff8y3S5NJL-37" value="nickname" style="text;strokeColor=none;fillColor=none;align=left;verticalAlign=middle;spacingLeft=4;spacingRight=4;overflow=hidden;points=[[0,0.5],[1,0.5]];portConstraint=eastwest;rotatable=0;whiteSpace=wrap;html=1;" vertex="1" parent="9TcWHJmhF9ff8y3S5NJL-35">
          <mxGeometry y="60" width="140" height="30" as="geometry" />
        </mxCell>
        <mxCell id="9TcWHJmhF9ff8y3S5NJL-38" value="profile_border" style="text;strokeColor=none;fillColor=none;align=left;verticalAlign=middle;spacingLeft=4;spacingRight=4;overflow=hidden;points=[[0,0.5],[1,0.5]];portConstraint=eastwest;rotatable=0;whiteSpace=wrap;html=1;" vertex="1" parent="9TcWHJmhF9ff8y3S5NJL-35">
          <mxGeometry y="90" width="140" height="30" as="geometry" />
        </mxCell>
        <mxCell id="9TcWHJmhF9ff8y3S5NJL-39" value="profile_picture" style="text;strokeColor=none;fillColor=none;align=left;verticalAlign=middle;spacingLeft=4;spacingRight=4;overflow=hidden;points=[[0,0.5],[1,0.5]];portConstraint=eastwest;rotatable=0;whiteSpace=wrap;html=1;" vertex="1" parent="9TcWHJmhF9ff8y3S5NJL-35">
          <mxGeometry y="120" width="140" height="30" as="geometry" />
        </mxCell>
        <mxCell id="9TcWHJmhF9ff8y3S5NJL-41" value="&lt;font style=&quot;font-size: 8px;&quot;&gt;There are more columns, but we dont use them in this case&lt;/font&gt;" style="text;html=1;align=center;verticalAlign=middle;whiteSpace=wrap;rounded=0;" vertex="1" parent="1">
          <mxGeometry x="-400" y="870" width="140" height="30" as="geometry" />
        </mxCell>
        <mxCell id="9TcWHJmhF9ff8y3S5NJL-47" style="edgeStyle=orthogonalEdgeStyle;rounded=0;orthogonalLoop=1;jettySize=auto;html=1;exitX=0;exitY=0.5;exitDx=0;exitDy=0;exitPerimeter=0;" edge="1" parent="1" source="9TcWHJmhF9ff8y3S5NJL-46">
          <mxGeometry relative="1" as="geometry">
            <mxPoint x="-110" y="810" as="targetPoint" />
          </mxGeometry>
        </mxCell>
        <mxCell id="9TcWHJmhF9ff8y3S5NJL-46" value="" style="strokeWidth=2;html=1;shape=mxgraph.flowchart.annotation_2;align=left;labelPosition=right;pointerEvents=1;rotation=-180;" vertex="1" parent="1">
          <mxGeometry x="-240" y="780" width="70" height="220" as="geometry" />
        </mxCell>
        <mxCell id="9TcWHJmhF9ff8y3S5NJL-48" value="" style="endArrow=classic;html=1;rounded=0;" edge="1" parent="1">
          <mxGeometry width="50" height="50" relative="1" as="geometry">
            <mxPoint x="-20" y="870" as="sourcePoint" />
            <mxPoint x="-20" y="930" as="targetPoint" />
          </mxGeometry>
        </mxCell>
        <mxCell id="9TcWHJmhF9ff8y3S5NJL-49" value="Print their nickname, border, profilepic and the date the invite was sent in the list of pending invites, with accept and ignore buttons" style="rounded=0;whiteSpace=wrap;html=1;" vertex="1" parent="1">
          <mxGeometry x="-120" y="960" width="200" height="60" as="geometry" />
        </mxCell>
        <mxCell id="9TcWHJmhF9ff8y3S5NJL-50" value="" style="endArrow=classic;html=1;rounded=0;" edge="1" parent="1">
          <mxGeometry width="50" height="50" relative="1" as="geometry">
            <mxPoint x="85" y="999.29" as="sourcePoint" />
            <mxPoint x="165" y="999.29" as="targetPoint" />
          </mxGeometry>
        </mxCell>
        <mxCell id="9TcWHJmhF9ff8y3S5NJL-51" value="Looks like this" style="text;html=1;align=center;verticalAlign=middle;whiteSpace=wrap;rounded=0;" vertex="1" parent="1">
          <mxGeometry x="85" y="969.29" width="60" height="30" as="geometry" />
        </mxCell>
        <mxCell id="9TcWHJmhF9ff8y3S5NJL-52" value="" style="shape=image;verticalLabelPosition=bottom;labelBackgroundColor=default;verticalAlign=top;aspect=fixed;imageAspect=0;image=data:image/png,iVBORw0KGgoAAAANSUhEUgAAAmoAAADjCAYAAAA18jhGAAAgAElEQVR4XuydB2BUZdqFz/RJr6SRHlroXToiTUC6CDYQ6yqoa3cXu9jLoj9YQGEBERDpVXqv0qWEHhKSQHrP9P98dzIhhMAGlhLd7+7GhOTOLefemXnmvE114MABh1qthkqluuQLcpEKSAWkAlIBqYBUQCogFbjpCjgcDmUf4rv4stvtZV+qo0ePXgZq5Y9IAJxcpAJSAamAVEAqIBWQCkgFbpwCLjgrv8XyoCZ+ttlsUJ06dcrhctPEyhXBTILajbsocktSAamAVEAqIBWQCkgFXApUhDUXqJUHNlViYuJVQU3KKRWQCkgFpAJSAamAVEAqcPMVqCwEqkpOTlYCo9JJu/kXQO5BKiAVkApIBaQCUgGpQEUFKnPWxDoiV0117tw5xVGTi1RAKiAVkApIBaQCUgGpQPVQwBX+VKWkpEhQqx7XRB6FVEAqIBWQCkgFpAJSAaXy07WoUlNTL/5LiiMVkApIBaQCUgGpgFRAKlAtFBDAJkGtWlwKeRBSAamAVEAqIBWQCkgFLldAgpq8K6QCUgGpgFRAKiAVkApUUwUkqFXTCyMPSyogFZAKSAWkAlIBqYAENXkPSAWkAlIBqYBUQCogFaimCkhQq6YXRh6WVEAqIBWQCkgFpAJSAQlq8h6QCkgFpAJSAamAVEAqUE0VkKBWTS+MPCypgFRAKiAVkApIBaQCEtTkPSAVkApIBaQCUgGpgFSgmiogQa2aXhh5WFIBqYBUQCogFZAKSAUkqMl7QCogFZAKSAWkAlIBqUA1VUCCWjW9MPKwpAJSAamAVEAqIBWQCkhQk/eAVEAqIBWQCkgFpAJSgWqqgAS1anph5GFJBaQCUgGpgFRAKiAVkKAm7wGpgFRAKiAVkApIBaQC1VQBCWrV9MLIw5IKSAWkAlIBqYBUQCogQU3eA1IBqYBUQCogFZAKSAWqqQIS1KrphZGHJRWQCkgFpAJSAamAVECCmrwHpAJSAamAVEAqIBWQClRTBSSoVdMLIw9LKiAVkApIBaQCUgGpgAQ1eQ9IBaQCUgGpgFRAKiAVqKYKSFCrphdGHpZUQCogFZAKSAWkAlIBCWryHpAKSAWkAlIBqcBtUsDhcNymPcvdVqaASqWqdsJIUKt2l0QekFRAKiAVkAr8FRWQUPbnvKq3G95uOqhNrtUUfhotrPzUoHAqadXhsPNn/ktlQ6HpPNoMDEHjzt44sD4XOxaeh5e/G0oKzVA59LCrTQiOckftO/zg4aOGXq/C4vFnoLb4Q691R35JMpp0D4BXgAFunlqcP12IQxuzYVDXgFqlg9meA7O1QOwWOp0Raps7tN6FqFnHAyd350Bj8wOsRtTrokFW5gWcO+iAh1sQj5HHq3Igv/A86nX0hF+IEb8vvcD1AxAUo0fWWRXMthzofUrQqncI3LzUSD5SjNMHclCUY4NB5wuTNR/BsTr0G1UTbh5qHNpRjF1L01BwXgc7Snjc/ug8LABJh4rw6+dnodd5cL826NU8JqgBftBS8Zu5CIhtpkX/j7zw+88Z2PBLOno+URPRDYw4uLEAh7dkQaNTI+1ECYxGd+jU3nwsH0iN7TDD7EiHTuUPDQywU3u1SgObnb9HhqKZOFdTpjdiW3pAZcxD6vEi6IwqBEcacGhLHpp0C+S2HDi0LhdGnfhZbFv5FTUS1/PiJ8LCYhNGJP3xXzwbT2LpV/NxxKJCrXtewoB6zk3Zji/G+IUJsOjiMfD5Pohz7cFmwoUzf+DosWRkww8xDZogPtIHuopH8J/Ws+Ti7MnDOJZwAYUeQWjYuDmigwzUrHT/Wadx+FwBYAhC7TpGXDh4Frn8kyGoNuoEG8v2ZnOtx2sY3SAcXvyLJfcsTh4+hoQLhfAIaojGzaMRZHBt2fVQC3LPnsThYwncf13EN4zEhaXfYE0yENTxSQy/g9e04pK0Et/MPoAiY0MMGX03okr/nr7xB0zdmQNVRHeMGtoERttxPmcWIsGiQ2zvpzCo/sXjPTzvcyw7xQfG9sbLg+oDVd2mS5e0jZg6Yyey4I82wx9Fhxo2mC4kI9MjCmEe/+E2yDiKPTmhaFTLB2krv8HsA7zv4gfi+T5lV1dc+Kof+3/Ync11rPpY9H5sEOq7V3yAGaf3HYVHfAMEOQ5g1vg1SEYQOj45HJXJ/1/c5PKh/0MKlH993GvejiOmg0iynka2PYOvzab/ISX+HKeqVxngpw5EhDYG8YZGaKq7Q3mfcy23A9puOqiNiYxHrM6AAK0WFruABDUcBCAN3+xLrHkEnSL0eiKc7/lq7Fyajrx0E+p3CMCuJWmw2x2o1dIPzbv6witQC29/LTbPvYAdC3Lh6x8Ia7EahSWZCIvXoGm3YPgGqqDWqLGd2zmxvVCBJZs2E7Va+KMkT43T+zMJd97Qehai64iayE4txp6VmbDku8PH3xtx7W048FsBrCY1yDIoKSlGTHM9wmp7YffyC3zD9UV8ey9YNZk4udUOm6oEDTr7oOOgQGSnW3BwXRESthGatDpYbUWwWYDASCPaDQpG7aZu2LIoB7sWp0Gt1sJmsxHUaqBtXz/YTFZ898JJePp4wGovhNrsT6h0g87DhJIcA0yWbPhHAHePDsPqCdnIzMhG95GRqNfKiJQzZpw/YwH5i+CZjXPHCmAza6HTELrIUxredCReWFQZ0DuCiW6EREKaTZ2Hxj08odUasHf1OaDYFzqtF4pNmfCLsnD/OiQnFKFZN3807uKHXz4+CUeJN/XzIvzZuElqxHtXvAiJL42a14KQZrJY8Hjq0et/RqZvxA9TdyIH4eg6ehiakSksuQeweNpKnDKp4N9mOB7tUEPZviVlG+bM34qU4ktDBwZCx2OEDtf7cFHiRixYsuvy9er0w1P94mBKWIlZyw4h11b+sLmv1g9iRKcQBdaSLgGJGtgxbSI2XaC0te7BSy6aLDqMeT8u43EayD2PYVBdGxJWzsKyQ7lUrNxCaG794Ah0CnHCWqXnwRuQOA2bwxstHnoSXUIqkTRzB36evZta+aPlA8PQ2ldsax2mz9ytgJNrHyX7Z2PCqiQ4PJrhgae7IuwiVuLgr//Cb2cA98ZD8UwP3mRV3KayCRuh+htCtet8Y1OxcsYSHDTF475neoBbq+KSic2Tp2B7loq6/Z0geRFir+nYr7a3smMVK6ngVqsXRg64eI9c9tCjC/DFkhNw+LbGiMc7wXnHyUUqUHUFygPamuIl2FC0AgWO/KpvQK5ZLRTwVHmhs/vduMvY57YB2y0BNWG4xBkIa3TWLPyHjVhmE8BmykJAtB0Pvx2L4/uLsXlOKty9NKjdyg9bfkmFxWRHaF1PdHk4BOENDchPtWLC6AT4+PojrrUBe1akw03rCY17Pmq18kd8G09E1jVizcxM/i0DWkKKm78VQ16NRmGeHTsWX0DiXhPdNyM6PugD3xoGLJ+UhJxkvnDr6cDpeGQ2en0e6TATnkLjPAmRYVg0PhHJf9jgrgtBcINi5GRmoSCN7pfKjKDaagx+LhxJJy3YSbhMS7ATeDzgGVzM8/CFu48GEXWE26fGnjV5OEL3y2JyoCTfgfD6BnQcEoqDGzLpAuYjtnEgzp3MIJzpaYiZoHcn2Nq9CFwqFJfkwcNDB4fZl5/CshAS64FmPekgNTbCVGhH6mkLzCV25GdYkXSkELnpBbCUqGCz0v+y+qDYnAmdngCn9kRRSQ5imnohphGdyEAH9q7K5PlZ4GEMIGSq0LSfBqG1dXy8jZBqwKk9+Vg8IQXe7iEKPIs3OuHKlX8hMpmtKDGZlSfWY6lHrvsJVrJ3FsYLG4luqNGNvpilGCUW5z7Lv7mWuSNqH9Tp2BPt6vjCcmYtFq06gXwHtXngaXQlkRQdnocfaRmZiD0+MS3QvI4fzKe3Y/uxEtQZ+Ay6mBYqfze7haHpXV3QqqYOF/b9huU7U2FSRaD7qKFoYkzHxh+mgiYVonu+gHsbaeByrUg4GKpASREOz/uR7pQJHoSeJ3sEIEH5txluYU1xV5dWqKm7gH2/LcfOVFOZ26VzuTwODTyC66Fp03BAOb5SuKvoIF5F2TJNHKWgqFhGJdg7a7zizJXBWNk2krDym9mgkYXwrqMxTFBxhaXybYqVLp6vb4uHMFKQ5MFf8S9Sn4qg/HeCckXP8IqHXrL3Cu7Vf3fsF/dXgrPb12LveX5yKr6AU8lCWxWdysfoVJJuK1kuBfNyDt9139nygf9LCrheG5OtZ/Br4VSctQjbWi5/ZgUidbG412MEamqiyoDtVrlrNx3U3oyqz3AbXRdeoVp6A7zVGtD/gZ0uj9V8Hg06+dFVCkAiw4Zr/p1MB6sG3Nxt2Ls+m0CiQ516WrTqEoA6TY1Io3O0+NtzqN3aHx6eKuxadh6Z9gCGM/PhX8OObg/VRExDI1b/dAF/MIyqIgyG1TNg8As1UVxgx8LxKXS56G3Y9dyGG1rTzdqxMJvuXQZDg75wWNxQuz0Q2UwFg55vnH50jQgmsz9hqNXsR9fIHcWWdH7X01nyQB7DorHNPDDo5XDYShz4fVUuHbN0WIsMqNVOh9Z9ghAWrSFzqHBsVzGyzlsZTtRj35pMHGVI0d2LYUeNDUVZ3GedIOi8C5CVYkUAYSG2qQeSEkro0OXA2xhJRywbJp6ngWCidhjpRqbD6K1CfNsAxDUXoVkt3THg3HEzCnIYWlbbkZuqxoHVuQwf5yO6oT+Sj2ehJFeDtvcKN1KLs/tt6P+KO4FLjSXUNelwIUHOA94Beh4/w8inipF2mu/iXNQWH2jVDOQxXK28CJWaWMJVKywyM8xroSdKyOUvHk05fJ3PRxthZxzh5vLkWm1cH4waGO8MadoIGBMFYPij2aBBaBVQGorln46vmIh1Z0Uk72UMiqXD9T0dLkt5cFE2gKSDCfCKM2HFtwxv6aPRdWgPxJVxSiZ2zJqL/Xm+aD3icXTyqgQkTi7FV/OP8F52hsbqHpmGH4XF5t8aD47oBO8Ds/At6Ugf3RVDe8Th4qZ3YNbc/chTnJpaOPDtz9hbyOPr+Qj6N/IqhZtyOkT3xAv3NvqP0GNL43bnbEIq3a3QjkMw7A6nEwgcxYIvluAEJVU0YXSzbClzL2ug/eMj0LYCs1x5mzakbZyKGTt545aerzAHTy79CvOPWK4IfVe8Ka7oXl3/sV/5BrTh+OLxWJhAaHOFey9b+coO33Xe2PJh/yMKuABNfD9mOYQp+V/L8OZf6NqLsOgjns+ijq6B8l7nArWbDWw3HdTeYOhTnIQCa3yzqEVnzVuE/viGX2JOQ+O7AtH2Hn+c/qMIK6acQwlzyDx0xQhzo+tkV6FBgApt6tN9I9Aw0Q1qN5IBIcqUakNumgorUsTbkZ05ZoHwbeSBOm3d6BKkYu+ybKi1/H17f7TtF4CiPCt+euc02g4KYq4b98/X6ZZ3e0NnUGPLvCxsW5DGZDB31AjzR707tcjNzCfsZfK4Aa3DiwDjo4QQGURUcuxKrJmIaeaN5gwNxtDtSztjxa7l2TjM/Dg3N08YfE0IDDegaVc/RNDl0zG3Lp+5a6YiBxZ8fRaF542EPU8+ifNg0PgIjwpadzMy0zPR++kgPsaTgHgaxRluSrhWPPHtKgFNDDMyHEY6hcVaSB3z4ReqR922fgir5YaQSLqW1MlCd+3YTjN2zM+CRw0zOj8QTggsZp5ZIQKjdWjQnvsuUsOT4eJw5ixlJZqxk8efnlSE04cY8o13Y3g4BAnb8+n4MZxrDaDKFoY2C+Gm8+PRCmRyKOFOs9WqhLTFIo7z+h01l8NzMT/N5WygfNiuDJKu9AqgQ/zA59ExYxomEp6u5PDk7XD+/cqLE8JaJs/DOLpuDu8WeOjJLlCikDZC4DhCoACg1m2Qs2s7srTRzB28F43c88pCo1fcdlBHPNk+A1ME7NVoj8dHtEV5TkpbNxE/7c67cn5a+Q2XhVwvDdcqq5S5VaXQWS6Gl7LmW/y8txCq0M544sFWuCQL7irbvOiyMbSud4eBHxDEYjUVMW+z9Hdh7TCihwlzJ27CRYWd16V8Cpp43BXdq6oee187FlRhPy7JytzQK4HaFR2+v9A7jjyVG65AeUg7Z0vE+NwPJaTdcJVv/wYFrI3y/keZs3YrYO2mg5pw1JyJ+Sp4Mo/JxDy1cOasefPFPSc/DW36BqLbyCAmyGfh5G/nEUMwq0WHJJwhUVUo3wUJVBYNk90Z9rOwuODc8WK+IzAhi3wWEQT4kNvICchNJCjQEdNFuGF/gRrbfktnmNCBNv2D0bq3Lw5tLcCaqefQoEMQ4VCkeNMMoAsl+EIk+u9dm4/969KRflwFd09Phix1KMimS8Rj1qiMZMR8hvbylfComaHL2EaeaH9vMGrG6eh8mZB80ozUQ0A288dy00tYDGFHjSg9Gt5ZQwnn1m1uhHsNDRK2FmHhuEQlBKkCiyyQR2hUMUnfh2FKPqZWMYb8IxorJ6fhj3UF8PLheg43ZV0b13WorAQ1N8XQctjV/F0uzBYz4VMDLQE2pok37rw/AAYC7fG9Jdg0Ow35mVbc+UAIgqjNdubJHdmRjic+jUVulgNHdzBP0KhGu35+BEEV8/iK8cembORdKEFAmE5xItPPmuniGeDQFiOividyTnnDVKDiZbAwR9DkzDt0Utp/56hVkp+GlDX49ue9oNdX9ibveqM1RrVB53oE6MsWA0PSdZC5zJko79t6BB7vVD7LiLlfNl6Lhc6/BzTohpbhlQXqfBDZKBJ5lSa6XwzLOXdf3rUjxH1OiEMAGnRrico3HYmQM3OUpP/LnB2XY1h4lfw01zkTqBZMWY4TfFqUz6krkyRzMyZPIUQSwy7JdSuiSyjcRF7XeIaA+8SVO/+rbbMM4K7+gik0HxGwDZM2MOZatkThrqf6oN4lUl/FvarisfcoWVr5fkyHsfFQDXRqVf7a52Db1B+wJV2FiO6jMLTJ5eFeyPy02/9u+Cc7gvKQJn7+Ov99Ge78k13DazlcEQYd7TFG4YNb4azddFBTHLVSBTx4UiJHTcfwZw06amERJej3cgTc3VUonHgGgToSVzPxkVzAGeGL1XepGQwPMlctrqU3kk7ZsXlBNqz5RYhr4YMGLfUMT2qQm1xIl4MVmZmAyaDnR3RPHN6Vh3ON/dG0gxd8WS16eFcJHbLzyDmnRxO6XCYLwauQuXJil3f5oG5rDxzaxqpM5pllnCuBrZjlDszX0jIpX2TqWwhqkQ08EFnfG15+WkQ3Yf6PzY6UUyI3TIRxeV6EIztz3JKPFqAw28ywqC/0dOyMHoRP5v+IKlIHNdg8Ox1b5qfDN1iLBh0DkUEXK5UAmpduZ/GBGgOei8Kq6Rdw9mAB1Ho+hseoEqnl/MFOebgJBTDdWWlqs6oU98zo4ayUdSO3tOkfhoYd3JDKfKkjmyw4sjUDTegeNr/Tj6FMC/asTYc7T6tln2CsmZbKogoTncYQ1G9Hd4TVnlnn7SxQMGH/WubTMU8tP5MVuIRlcaztB/jjtwkldN1Y6GAqKQuBikvs+mRxvaHPsvw0/zYY+WgHYo5YLuaH6er2x+i+tZFVWtUIXzpcI+lwlb7x2/JP48A5bzSr53zk0QVfYAljfqpy4TkwfJywYgXSWw+B/yYnqOkYXnyC4UVX8YEl43ccLmiJJtGX7t+Vn+Z6Qmdunowp2xn+49W5FJJcoKZjTtsTzGkr2zIyfj+MgpZNIDZd5ux4sGrzcVZtCpOSx3dw4b/xG68dSyAvrXCt+EpiScG66TOxW0QgG9+LYT2iys7h4qoXw4euXDJN2eMcqFh4wWqEKmzz8pe0smsX3hWjhzW7GOr9T69+V3WvrvHYL9lXaQ7d+RgMGHEPaolLoFz7n7HkSD6LBC69d8o/VOan/aeLJv9eUQFXUZX4vpYfHJYV/SpF+osr0MttMLoYel8CazcrBHpLQE0ExYykC71o5cCfRS6TgRDUe5gRjWMZ9NuTBXdNAc7TEUpId0f9NnTOklkVCjcYCDnR8Qb4hmmQk2TBqUNmJYTqV0MLPZ2w84lWukdATAw3zFwptxhvbPihEO77MtkeQQ03OmresQYkHShBWqKFIHYeWRfsrLB0vrs7GNusc4c/GhBSQhgSTGTuSnaqBSkn8hXATGO7D3OxHRH1vNB+cBCCa+mQmWjD6cMmVldaneFcfir3DtQpFadWxn4ymWeWdtaKEL7zBsdokZdmQR5LCkvybahRU4+AGB0ObyhAAEOWwXF6Vn0Cu34rxO/L0pgfZkD/Z8OQfs6KHUvSERprVJw9q4WFBawm9fDWoIgul4M2YgiLHUqK7MhOKUFEbXeGku1Ku43AmlqE19Uj85wFJ/dbYHQX+XasoG3uhlwmVKcn25h/Rrcu0EjtqAOLFQRoejLnLaYxaYEOG3t3cF0r9ys0MPG7A8UE2wYtmGxfZMR3X2vgf/YU899YVUqXtPwNen2gdjEvq2LSe862qfhhSzp5qDS5P99VGSpqDvxQMzoQ2rxUnLtQAI9WF92zEjojk1i5JwrgVWzN4sYWJs7wnDMM2Dp9Hr4nqfEUofEIRkSYN6xZiUglmEa58rmuBhKlrSyKy4OgcleVMNfue0KgsmUWCUQgzNvK8HIqMs1R6P0yW0OI1crcQrGaHu6MIbrCh8pmrpafZkvDxqkzsJOu6OVL+TBn+WNhza+R7qzFGaK8BGDFRqq8zcv36ILiy93LSg7PdhRLv1+LRPEnurLFJSJrVcPiGQPzIOPQ8289S9uvXMOxV9xN2jpM/Gk3PWjl4iuFKfbS0CzpFD0f6Y9GdLpdS/rWnzBnn7J22TVw3TP+LR/AMFFSKxepQCUKlIc0O18L38v9u6zu/B+4U0Q16BjPL6DR0NQp56zdDFi7JaCmIaAJSDOTaoyEAkbv4BGiw5MdLIhiBZYlhgnqnb1gaRqGSf2y4GAYZ+BL3gglOBl8CQ0iUYyP4UaQTOAy0rnK4Pu2qUBACOGC/cTULFTQehmwYVomFs3KQv+OFnRsWIjU+WzrweR5z/6BsCVbcPQg6/9KzKgnGiMZmDeWZoWJIJZH4IlmFaaa2wPzyIoIJQ6dBvkXTMhnwyxRNeruSahr7UmI4bscH5PD3xGZ2DqDcCNoVM//iOO08bEEMxVbiohjzzphxjm20XBnvDeqno7vyQy5qhi+FSjI8KXyIELeBVYIGnhMPnUJP6JXhNiWt5ohVVYS8rs34RT+fHNhsUBxtlXZneifJsAqPYNVte5FUDOcK45NOR6xC7EdDz5G5BFReyb+MV7Mf1PSCweKEcTCBYjjFJWVGlaJZtMlPF7IlR2IaMpzFbTKh4gwcjarbnV01hDohh8/tSL/9yQeNh9fgRWuD9Quz08re67nbMPUH7bQW3OFq3TIv6ylBiHELxptevTBHRGucBaBe9sczN+agrIOHnRII1rcjd7tY+ClqeTvCljVQ+d+vVCf7qSNVaOX5aeVHRjbU3y/HzEPV9KTi87UtjnzsZV5gWXycN/B9TqjX6/6cAZsbcjauxCz159CodK/Q5xDbbQIzcD2w1lXzk8jUO2YNQeb6IRWulR04oqOY+n0RTjCSmNlIbj41b4LA/s0Um4n56Fc4zYv2bHr2rmj8dBnILp8XHW5Wo6hyN0bfsfFfLmqHHulOxPazsPMtYkXr71y3l3Qv1djuvflH3S1nMLK8+r+wxnKP/+PKOAKeQpAEz+LPmk/F078Hzl7eZr3uz+BJtrWCqwJQBPAprzE3uDpBrcE1MSBC1AT7/nuWjUKilXo0VaFAWF5sOrNsLMprKFLNGNxBszqlYZ9W03ofa83Gt/thuwkM3YtYCUlASOuA3tD9QtlzhbtHncBQwQluxYaXw0yjtnZaiMdtpwCaCPiMODZTjBuH8/WFXSLNrHS9O13cDZjCpoz8f+3TSRBjRcaNmyImjVr0p1iu4TUtU4ooYsHN4bOSlg6qCOhcFU2ICOp2ZFBJy6QbSvg0ZpfwUDyKr7B0eEjZMEtFqqgBgSp9nB4snw3axeQx/ycmEFKyAWbnuR2eNyEQJaYOuFTkBZDjcglKEX2AlJXE8wi4KjRFfCKhipjJxz6AKjO/EiQUuNIbih27NzPPDU7hrZng+DEEpxgmLJx0yaoO/Ab6NNWQVV8Go4Lh6BiM2DR/kTlxXYPhkD+7nfAMwKqgjOw+7diLQLpM3cz998ADq84rq/C2S27cWzJTpSwCnQ3W3ZE1dJj4Cu1eIpm+Eeyr9ofxYrDFt3OE79+ks+K0ky4seWK6OFWfrk+ULuOJz2tyIJCk8KjagNbolzWRLZ0m3SQ8ooF9Wrh5s2GwBV3VfZ3ruHmzTYsVT2WEhQV6Ri6v3IjCktRHpRdX2nf4k+l50H7+MrnUNVDuuJ6FhbU8PqJI7mmc/yvd3wDNvBfHHvZPaKmvCzyqXLPkBtw2HITf3kFXG6aADXx9UvxFOw2b/nLn7c8QacCzXXtMFg/nB0XtAqkVcxZu1E63RJQ0xLSxJdw0wqYON8/pgRdazK/qS6rBSOYJB8Whb07NWj1fCQSGIpa/V4GcnPZN4sOlpa5YR61GsIjMAB5G9aj68wfUbtvP9jTCEInZhCGzrHnWhKOrc5GYpYV775WgF2ZPdGabRnsK6dCvXok86zojC30xrl28RhXeBqTF6eU6TdmzBiMHTsW1sJ0isx8Jrbe4DsZ3SyGPpPXwBHcgQC1Hqq0RUDjd+hmset+1BBniwpTDr9blT5nYDEAaafS66IUU8xv6oS7NuOhOkbwKtrDLPeuhCR/qHxa0qVqwYayTDbidlSkc/GkF4tS7VmcjjfGvIlPv/4B/v5s3ltSwlCxCeFxjTB37lzExsaWNZ4VN4qD4SSVcLpETFVDd06BAQGnLEIw87z0zmIKM/KhV3rnX1ymtGyOEL+zaHp3AA6uTEdyih+6j/scBz59Hqf3nkfvZ8IR1c4Dcwlqf6wlqLGCt+KoulsGajfqWSC3IxWQCkgFrlGB8sPRk0wAACAASURBVG6aeL0WTczHFb2L8zY2EJfL/4QCwZqaGK0fo4CaKwR6M1y1mw5qb7KYQE94ECYSTwXhHlY82TQf7hHsHxbKRPt6kTjNHgfTPjyHRyYxGdqNztXkRKSxt9SqbZ4I0RUgulc7dP3qBxz6YQLavPup8wY4MQ049SMOTEvGL7Oz0ffz9xF0YhwiNKeQ0Ohr1B/5FCmHO50zDo59r8Fygjli+9xxZsoKtO/diwzDqQKNGiHxzBk8M2oU3n1vrPJEq4rICnhx1JODRRFOn7B0EVn/rvFKIuAlCEaxQPmVuZfOFkFNOFxcRNtfUSBQtthFZ1on6DnEz/yrjfaVVqfHZ59/gVdffRVNmzRCi+bNFTjTsHJ22bJlaE2wMtPx0ulFuE/AnYDN8pYQj0GpQOC2S48ncc1ybPvwPfjXqo9Wr7wOv9gY7tOO/ZMmYPNrL1E2Fe56IoJhWiMmPZuA++m0zX3wQYR6peCe0aGw+7rji7d5/vtOMi+PYHu7HLX/iZcCeZJSAalAdVSgoptmZd7wu0XPy5Yc1fFi3aRjEq06/qn7XJnkczNdtVsCap4MDdoJTX6ktdda5cLQ2IoCtkf4Iy0UtTq7sd+YFsvHn4dFb0KPcZHY92UmYtkM99BJztfc5c18ngLUf2k0Or3/CXudrof61GTk79mDFT9nQVu7FzqOeRE+kZHQfxOLgtM5SHtgA2p1ase2F2YCDUFi81xg7SNwnGc1ZlF3zK7RAE99Ng6NmjRBYI0aWLNmDfZye40bN1acLJWwMJXCB5E45GqmKuYluUDIOR+TRZxch/8rZbWL0ObMBXL+1/lbpeWvGG8qQp6lPcc4BqF0rdIyzlKQcn1SE3Hu5HPJaN60GbKysuDpxRFPxcWwcEzTL7NnY8h99yk/ixvEtbhmb1aMkdsJoeK8tn30DvZ88j6dNB4T3bkhv22GX606ysNn3tUGUXd2ZYGCBWd+/Q53so/ajp/P4e65mzBn2MOIDL6Ano8HIb3EgK8/oUGYwBE7LCZQVbDUpKN2k14V5GalAlKBaqOAEu0oDXmKD/kC1N4sfqbaHJ88kFujwJuacZxBrr/MVbuReWq3BNQEqngwB+rVRmyjEcNQob8Nyxb4I7F7XfSokYg4TifYOCMDxw/l4LE9dbDh5Vzs++Esnv8M2LfSHQuXeKLOgO64f8JItp7/BzJ3FmHGyykIHT4Eg6d+S5TinMmdv8J99RDsPdoAjb7dwTmZoh6fsCWSqphHpRpWi/lip1Gylcn9Z/0wyC+CYVibYlceOHAAzz//PMaNG6c82VyJgQppKRAmiMzlnDmnLLjifeLJahPApfyZICdgTPmH6C0mYI/n63LXmB2l4nZEIYEYweQCtrILWro/ZZt84gsA+37id/jbU08rTp8rHCqO79ChQ6hVq5Zzzib/rSBh6YD0K90gwjX7OpiTBwiw6rg6GLRkDbxCwxQ3TUCchSFVndGIc9u3Yut9XdByOP/mFQW3O9/GovuGsQBDi7Z9OILK4I5xH7IdycETPE29AqzlFwlqt+YFQu5FKiAVuD0KVKz0FO8b4kPz26bRt+eA5F5vmwJjVF8qoFbeVXP1VrtRsHbTQe2tqHh28VehV6QZ98eXwMpB1cd2aTBzdxDueDkGEedPIYo90S6cKcDSSWl4fHks8k87MOf5VIQFFqHrncCevWzUukeL9veEQMfw4uHDfmj5zN8QP7Q/Z3n6K8yUPu0l1Dj/NX5P7IlW3y53ul+iEauAEIb+HEd+h+rXFzg6cjfM24Cxqtb4ZNNWFjqy2IAbaNmyJXbs2FEKOxcjlqVGmLPBrIJexC7FFHOCm/i9mF3KyZeKAyemFij75pdK5KwJeFLCn2JNESp1TlJQmE78XoGk0vCoazVR5MoGbwLU3nr7TYx9/4NLQE3sV+TVifw6JexJ29W1XAnWXE2HN7//Bjw9vRA39CF4hbGQohTSXI/POnoYpzduhrcnk2OPTobVvyXW/99v0Bcnod1DEZynqsWx41pMn6yFxzF261dA7VJSk6B2214z5I6lAlKBW6BAxbCngDTx9a7luVuwd7mL6qTA6/bP2K3BoLwPi6+bUVRwC0CtHsdCqfFeqyJEtjYr/bq+muyJveoAPPN2BOKsiUhkQ6UWXTyQsKMQEb05wDxIi7mPpSPxWA5Cguxo3kyLNWt9lHYYXp5uePLYbngHM99LISUnkNkmdoQmeQsOxfwbDUYOh52fcERSvrKIxHxRNrt9DVRzuyvMtOwXHfqwXYeW61jpXgl3SrhUgoyV8KcS+qS1reSdsdmsEgEVkwBE+JIuHTvy2/MLoc7OhDmHA+Cz8mErYnEBQ5Mq5fEinMmiAB0z8+hAqdyNcPh4Qe3rJ5rAsYDAF2qjgdvj5AMBgCI/TvQtUWDO6Z7p2DftrbfexPvvj1VuhBg2i4uLi8MehmkFoG3ZsgV169a9LPwpjrQqJO+CN1eodduHb+Pwx2NRo0tL9Fm0DSXJp/DrwIGwnD2K2l1DUf8OI4LiddixwoRZPxsRcj6JM0h5Y1bozyFBrTq9jMhjkQpIBW60AuVBTUQ/BKSJ1+T3bX+/0buS26vmCrxq/UR5f3a5ahX7qt2Iw7/poPZSeLxSEv9pO86Y7Cy65OswcZ0RyVofPPt2DDo1PY8T220IDNbAlxWgDn87TIxarnkzD1qGLfeu4cxOlTeHgjsQGGJlM1IPdH7jBbR781WnG6RMBec0wX93QcKq0zANmITGIx9iIj5DmKW5W2I98WU/exzad5vBSnfv3CzgrkSOTOJcTGGR1apdGwcPHlTEdoGOg06c1UEoo+PlYPGBNo15dGeTYD99EjhzEtZz56BL4TzQ/Gyo8gtYBVoCDacVCFdN8d6Eo8feZBxZAJVBB6sXx0GJkVChoawcjYG6bm046tSHNrwmW2eIeZ825v3TnROAJ6ZkESLfffdd5Us4fmFhYdi3bx8uXLigVH7Wr18fs2bNQiMWRZTPVbtaCFTooFiCAlyFLgLqxM/83bz7BrLF2imE1fFA7OhZMAZHY87AvlCd3oC2D9ZECPtjZSSboGdj2HEfsrvIIRH6lDlqN+KJKLchFZAK/HkUcIGagLTyoDbW/sKf5yTkkd4QBV6xfHwZqLnSp6pimFTlIG46qL0RG49HY01o19iE4jg71s7S49+njChk889X3o9D+5opHK7OgeRsZmviKCaPcM4E7a7Dhn/mYeesQnYT18LIrvx1HumD3o3WYdfSdLpr7mg0Yii6j/8Eeobx7Ml7of6xOSb+WBvD9u2Atz9dKy4up0j8bBUhQtFUdmQjAt8xqPY70INt0NaKjsIEljrx8QqoCYFtAraYR8ZpULASBHWpKTDv2Qntpi1wMJ/NTkDTZubAbi6C1iSmE4hQJvPOCFlK9FKMiiotNlCx5YdDAJtw5AhgSusNjrlyuLvDHlgDFhZBqJo3grpzV2jZ183hLcYfEdaYP6djE9+ffvoJDz/8sHIjmEyXNzgNDAzEtGnT0KtXLyW/rnwfl/LnX+UbxlZEN1LwlzuKszJZYNAJTZpno0Vff85LLeRECTsiO9bAx2PoAO47xqpPVpuKAolyi3TUqvLUk+tIBaQCf1YFKhYSiA/K4vX5A8eLf9ZTksd9nQq8bP5IeX92hT/Lt+mo8vvuf9j3TQe1r+rXxUctObImzoYzbD67cL4bdnOOpsnghftHRqCx5ixK/BsQCvJwZsNx1BtgQLMxgdjw92ysmVjMpvkq1B06EJ2/+z8Yj8wE2Bdt8UxfnNirQbPXn8Gd748BDk6FefbT+HFaCB49dZLzNUt7h5XCmvjEoyOQzfzlF+x8eTi+vIvjkIwObFqswd8yLDhrV6F79+5YzhmQSnoZQ5D00jiIXAPzqVPQLlgA05ZN0CUchTozG/YSTgAgSInQqIAzPhxqBVZK6ztLc83UhDVXDYLIU1NwRnQvFsBGl87GqQIqrZHtLjxgjY6Dum1LqHv1ZRy4BatVjQyCqpGXl4emzZoxPJyoQKSrA3Z4OPuZRUUp4U/x+08//RQvvvii8ulOLC5gc11/V5iz/L9XPDkcgfEN0erF15xgWa6b8oHJ32P/uE+QcSYFT3weiUw2+/3100R0fygQ8X1r4sPX6FgePC5B7Tqf3PJhUgGpwJ9XgfKg5iokEKFPCWp/3mt6vUf+kulDGFmEV7GgoOJ78PVuX8GG1NTUCjV7/83mLn/s2Nr18FVrdoaPt+KjmZ7w5zzKrUXs4uvmgYH3RaCZ4Qx27Qsj4hSi47MWhNUzIP8gZ3Vy2sA39+XAS5cPv6YN0XfmQnhFRIElicCUDpg0wRsX6MT1/uqfiEkai4Q9RTA8Nx9N+vYgBDmBRoCHeBKJBL9ZM2bgoREj0MnLhrWdOYKophVurDnonGnA1rwSfPWvcXju788zhMhJCRwdJeYC4sB+WJctgXHNWob/zkCdlcsu/U73jOPXFQgTFY/CLHNCmPPfZe06lPYdzkWwm9KZw8lqym8E4CkhSDp9YgSWLcATlsZN4BgwEPp+fWH2C4IHCxLmzZuPoUPvK3PMgoKC0LlzZ2zatAm8fsr2xQuHALXPPvtMgTRX9arrirggzAVk+UlnsenV56D1D0D3/5vkDH+K7ZQWF8wdeDci23fCiZUrUS/sCIo4AeLQpizcOdgfEZ1D8fE/OMJKhj5v7JNFbk0qIBX4UyhQGagJR+1DvPSnOH55kDdOAQFq5R21iv3UbsSebjqozWlVG6Prs9qToLZwgQGb0gzgHHU43DwxeEhNNLGfxXHOluw2llDCAeQzH89DjbMXcOcr3vjuRRM6jH0H/kyiD2jYBL7R0Ti9aTN85vZGdg6wZJ4b1PFNYEhJIFgV48Gjx+AVIKpAnXjkgrRff/0VIxg+LOYTqRujovPbMX0/kuXUy1mNeo5OUvM2WEk3zejpobhpDjNt7J27oF+5DOYdv8PtyDHYcjmOicOjwbCoAC1nnzWR9u+kL7FLEfJ0UZmSBibARyBZqdkmQE2MyhTlAsL3svMPalKdVazIhrSiSNTGggN7bB04Bg2C9qGHOLEggBMd9HT7luOxRx9TwOxBNp9dSYBKT+fA09LF1b7j7rvvxvTp0yFCohVhTcHDK8wgU/qsib+JUV/8OrNmJcI7dcGKxx/EoWlz0LhXEGq38kJkjBpbttmxco07vE+eZnhYL4sJbsQzUW5DKiAV+FMoUHEigXidFW6a+KpeoFYDAbp0ZPJtSy43T4EXSz4oc9Rc/dTKV37eiD3fdFA72jUWnZuacJw5+oUr1Pgky1PJ/8q1euHhpyMxoE8atGHuOLGtBOvHZiMt2Y5uLQrReXwgfhmjxl0/72ahQWmFJ894cvN6dLeOo899dk46UGPOPE/kZGhRd9gA9P9pIpPxmTtFB83Vh2w2G8OOHDlSSb4X4U/x+1E1VRg3jLn/uxxYmBqKtqu3I4IzP+mlMZTJ/+5i/44lS6HbsQtWhhy16dl00jiCiW6ThpDJbiPMOSOkuZrelsKPAmquThviR6VOQcCc6MbhCpE6Qc3pqAmCc4ZH1bTXxHcHc/VUbu6wxNcGRjwG/ZDBsHj5wchRUCL8KQoLxGQCERK90tK6dWssYLg2lEUL4nxdIVNlvJRClGJ6gRorRz+OU9Mnox+b3oa1aadszvX3ta88h/xjR6ANCEEBB4fXaheImPpsxcECi5XLTdhz2Bf+SWdYDSuLCW7EE1FuQyogFfhzKPCnATW30Xgj6CzGJnL8oVxumgJ/CVDb1zkOd7cpweosDTSbGLW0uON8kR1BwZ54bXoUGnbIwabXirBkfA4CmJge1LkVWsamoOF9SZjzkRE1B49BdMuGCGvNmZtc8pMSkcJ8sd1TZ6DfXWkwFh3BwulG5EV2xiNr5nENZ9hPhDvXrVuHe+65h4OzGcbkwnQ3VnECTwVp8N29DpiO2JEfMxSBP/7MQoZi2NguQ5NwHNb5v0DFsKLu+CnYsrOgKSzhEAEm8otmtQKsBISJAgGClobfVaJ4QPhKSuGAsifFaxO/V7G9h0NUJQgPTSm4FGFThc+cw8TFdwFqpWFS0QZEzcH1Nn86Yu07Q/23R6Dp2F1plKtnqw+xPPHEE/jhhx8u6a0mKkJFSPSPP/5Qzr9du3ZYtGiRMhtUhIFdo7HE412uWvbJEzi/cS2WvfAMJzl0QUDrtmj/xntlN/RXgW7wVFnQcEAYjO4qxDYy4MTvRdi5y4rE3GB4nWQfNTFLtHQuqeuBspjgpr0myA1LBaQCt1mBPwuoxdWchLF+BZib8AJ+la7aTbtr/hKgduDOWPRoTbesQIuklTqsL2R3+ye98NA/vZH0WxFWf1qALPZRo4eE2g8OQMexH2DD8P7o2eMQTJ1rYd7wJJiS8+DXvg3umbUI7qyULFuSd8HxY2fs3GjHocMGWIKboP/UCQhq1ADnkpPRoWNHnD17VrElQ0JCEODrizS2tuhvS8P4IQ6Y/3CgqM6DcFdytEhKzEtTzV0IB2do4sghaFLSWThAJ81qVgDMxtJNURSgIUipOU/TpudAeTEBwZ2uko8/SDOAG4sD9GxAK4DMypYgZrbsIOjZilkhmpsHVWEhW30UsxjBzN5pBD3ym4UwpxSFKolszu92NwMczO/Dg0OhfoiwFhTKKQu088T+WTzQt29fLFmyRIGuiIgI3HHHHUhISFCmLDgrV23KOvPmzVPWKf9VsXBg01uv49hPU+BRqzb6zZiPze/+E3UGDcHi++9liNeCxl0D0KAtq1SJmOunpSDxpA05NWrDLUE2vL1pz365YamAVKBaKvDnALV2GF3vHbTX2ZGU+TxeZXrQX27xfRVfhLWhe/N/eClp3W07vb8EqCmOWlu6MBk6zF7qjRfn+MArkrM9387Dsd+Yu0Z7qkk7d9Rrp8PuVdk4f8aKuvU06HZXMdweiMbUYUXwjm+HmK4d0eDhx6F1cyOwmBk/ZKPV/ZOBn5/CxFVt8eTwRBxYlom1h6M5hmotRj77LOYxRCiCi7GxsWjI1hd2wlGRyYzYw5sw6V4rSghqhXUegNe3/1YGl5uPHYJ6+gxoN2+G4yx7pLF4wG7nvkTqFuHHYWDY1p0NcX29YaeDpYkMd1ZrhodBHRzGRrb8O8OWds4XFRDm4L5AKNPkF8GRlwlVShpnlSYBRxOgPimKEzLgILyJfQuoK+vwL0CNEGgX45369Yb6idFQ16ujuG6Kq0cXT/RSE5WqwkHr3bu30gQ3LS2t7GZ1wdqz1OGrr766ZDSWq8+a4q45LTbORbXQydOiOCMDv/btiuxDf7BRmgZ3DAhGRB0jgiP12L06H7sWpyPisWewd8U2GPf9AQerVh2llabSUbttrxVyx1IBqcAtUuBPAWoBYzEprDU8hSaWtfji6Mf4/Rbpc8t24/c2vg1vD+R9hqcT2WvrNi1/CVD7o0ssujH0uT5dC31AINp9HoAVz2Tjt19z4M8QoQj/BYZpEBqrh9HDgcykQrQcGIxwUzK8Bgdh01wPtHh3N9zc2TRWGd8kwoli0gDBafMHKJ75NmYc7o3Hx90L1coRWDPdA5v1LTFuz0bki/mYhAhX5aWYU+BP0Fo9vBsa61bCfJjD4cMHw3PKTKiKCmBZz4HvbCCr3b0btoxMaAsLGJak16VjeM/bDZbQcDji68Levi0LEFpBH8kqVB8/qNhmgysJilJCns7vYsanqA0traYU/2YDXxsdNlUGJxgcOQj7xMlQr1kNNYsXYKa1phRBCCrk/7WsPGVunrUXw55/exbqpg0U903NSQCu+Z5JhD4BaSK0K5xD4aK5XkREqNOXDqIY5v7dd9/hqaeeuqwpruu+ruiw7R7/L+x84yXU6xmM+NaeCOG1OX3EgR3TzsDQajAaf/4Zfuo9BG5798Mu2osIp6/cIkOft+kVQ+5WKiAVuOkKVH9Qq4F746ZgsHs2LphrIEhfiL0pg/Fp5k2X5tbuQILajdP7+4Z18GbHIpwPtePnZR4YPSaS4UEdUk8xJMiksexUGw5sLACjiSgudODciRKoPTTofWc+mv7dC8d3cnRU1Edo/sBgJuE7R0LZhfsj5luOr4Pdi9KR1fpl3PXu67Ansgjg1yFYPz0fS/7QY7Y6B+dZailcIx0dMTNB5ruR/fBU+nJYGzA8uNYE071vwfDKm9Ckp8LMnC7N/PnQHD4MB8tKVWbmpXGgu93oAYQGobhLF+Dhh6Br0pw90IwKhokQp0Y4YgyLCuhUfidQTVSFiokGCrox50zksokPN+JYCGbqratgHfc13Nazia4IhYq2H0q+msh2E44aQa0mXbq+faB6/Bmo2Y9OxXMRoCYgTDRYFHl4ItTZtm1bBdbKO2XubKgrKkDn83zEz0uXLlVaelypbYcAWktBAX5jb7XMA3tQwuNp3MEd7n5qmDPykO8Iwx8rjuKexSuh5Rirf/e6VwE1B6cuSFC7cc8XuSWpgFSgeitQ7UGNRQSfxvVDhHUtJubF4vGAaI43nI4XTk7HlVgtwK0nOvu3QQOjPy0HM3KKt2ND5lzsvrzHOsK8B6OTT3PU1wu/rgAX8jdiafZvOF0xD07XAj1r3IPWbqXbLNnHyNoMbK64Te97McIzCBkF32BpXgRaBPZFZ++6oM2ApILtWF1h2y0Dn0EDMUBI0xCdfGsRHNZjI8c3AkVIzP431jNb6VYufwlH7cO69fB160IUxtvwj8nuuKeBGwI6+6NuY7bWIMgYdYQPghn4ZUmxYuOcHFYSauHvyELLprk4WhCInXvuQLOH70Ncrx5KeM7o5wuHhfle3zTF1lVFaLMohf/mjE1CwxcjmuOViANs3eGJaQms6lTTKROVl3SrogkYB6b9H9w/GwhTBJveLrbBfSnds/qNoE1NQsmvc6BbvBSao0cZkuToKs4ldYj8fSPDrSGcIjD0fuiefpJ5aZzZSWBScTyUMk+UVawquoPOVhyisKC0XYeVI6EsdNA4WspOd06dngVLciJsW7dCu2YD1GdPQZ9XwHFXhD1nAajSRFds185cN0ccw533D4LtgRHQ1AxVwqkqaiPAT1CfhcAnyoGnTJmCxx57zAmIpa1JBJRlMIwp5peKRYyb2rZtGweyK2a4srgKDFzFBieXLcaJhb/Cj01wD73/OkLu7or0U+nIO3EaOh9vdPpxKvzqxqOA5zPz3uHQ794HO4sJZOjzVr4syH1JBaQCt1OB6g5qLSOm4yXfYGTkvINn0+LwTt2HURdnsPLkk5hyGcTUQJua7+NJv1i4KXkw5RaHAJ8v8dm5jaWA1wh9o1/DUK+gUsuk/LoXsPf8J/g0/aDyy/gaY/FMcGsEXrbNXJzI/D+MS3VtkyuHTsDMwNosUFsKePVCVGlPT9fW7fYkbEt7B+MzmTbE5cFaK3GPW2V3QBZ2JQ/Dl9m39u74S4Da2Dr18FaTYng2M2PcCg/Yz9ixx8Ke+74+6D8gFG0C0pjXZcSJXdnw9NXijm4BfOMXgUS22Ujl1IKWYZjyeC4Kz7MTPmdlaox61L5vMOL1KxCmOYxF++5E/+XLoNfqMWfWz7jv/gfxeEsV3u3hwJ5F7lhFZ22uOh/nCUBz6S71u7CTE9k/gSmaTTIWsEhg9kY4WrZTQM0yfx40CxeXgZrDzIpNun4qVqPamX+GRk2AJo3gqBHIfDR/Dlp3d+Zo6Qla7HUmXDSF0tjiAxzOri7kR4fCfKgys2BPTyOYnYONIUp1SjITIAtFozdlhqmdwKrMLVBitNwG7UW7nw+rPjtC/diDsHfpxegr+5Up+WliXoHo3uYM6ApnTcDayy+/jC+++ALe3gSqTp2UfLXff3dmJbjy1YYPH46pU6cqIdLKqkBdt3fWsaNY+9yTSD14FL2HaBF6z71I87gbx35ZhsLkJHi0vgO7f5gN3WlqxorWsty60g3I0OetfaGQe5MKSAVunQLVG9T64dX6o9FMfRHMekTPxUgvLye4JW29RKhOkT/jKZ9Avrdk43jOL/gtN5m+FKfPBAxCN88IGIpn4cGTzAUn6g2L+wz93fleSHDanzkPqwoz+OYSjlYB96GTux9ycz/CqLPrEOD/Nt4La8/UJkJZziwsztyInfZgdPUbhnsCWiNEXYLTGWPwz1Qn1LlATfm5/HGU27bGkYFdKc/jy6x0hHncgWARdvIeiVf9Y4GS5fg0TZyXBTkley539m7yrfGXALUnatZHcx8b3n0kD0nsQ7HsJzdszNMiR+NseHuHTzK2rchD6skihDZuDM9gumVGH7QbwBFJ0Ww14ZWOCb0zUJyvhobJ+WI4lJphRvpQqBfHgoA7R6DZvf3pyrmj7xOPIeFYAm8QFcY0YKf+QcCsH72xkk1tLQ/1x/Spk2Ef2YJh0yNglxAUH2kIt+84liquNkdDpcO6fCnU8xawSIG5V1m0Uk2FsNHdUoMFBHrCEZ00WlKs8PSGjUPUHW6EJ+avcdIU90iA4oQB0arCzlw0iFy0YvZkKy6EJrcQlrxsaIoIb2JepwA00f1WhGXFF9lMBHUtpf3ZNAYjbLV4A97/ADTDBsMeURtaakeec7p2ziYhyu3n6pMmhrW3atUKzThuSvxu7969ZbenCIm6GuKuZx5eR1bDuiY3lAc28QARxhSuZQKdtX3fTsDQj1sAp5bhp/dSoDuRB49hDyP+1X9iBh01w6GjhEwCqiwmuMkvBXLzUgGpQHVRoDqDWkDwv/CvoAaMApYLdboKC2w7MeXwG1jpEtIVIsVFCCqvcRgfN8I4HR+dY8Woaxv241hyZhRm0Ge4uNRA47CX0c38Gr7MaIen676FTnrzpTBWunIZxDn2Y+ahV6B0eCt11OA4id/OvIV/F1xs5A7Q8Yv4DM/6Mg3IvAr/SvjsYlGE63HFc3D/iUm37fb4S4Da85Hx0JMpPrmrEDXusGDxQgPWH9LiqNYHL74ajXjrWezdUYIz+7KhJRS5R9SHR40aaPrMYPd44wAAIABJREFUc6jTj0n7KQ9gx1vHcNbWC3e+9jwOTp4F0c/j+IKFyMzVokkHQk2+A4cPm3Gevc4szK2qozNjEwe5+zez4ruBwIpfPZAQ3B0jXx4Bn++HsJksYW89wejtJdB37Q6rnTljzDMzbdsA1S901Xbt4qiqFGhz8liVaiMkiZwz5qERp5S8Myb6q1h16hCzOvnd6QOL/zjhS8Ca0kpDzAMV2xY/i1oBpe0tQYs/CxdKOGnKPFDR+0NAHvPT7CLMyopSS6+7oX78Eeji63MbBppsbOVBZCQGEticBQoCtsQiQOwcB8WL8GZ+fv5Vb1gx4F0McS+fq1Z+WoGN3bVFM9zfx32KzWPfxYs5JhwcPxabXnoT8W+8gfgnRqGIhzutz31w2733r5GjVpyJ5CO/Y8MRfkLkKLPCQg94MC3RI6olOraoi4BKbfbb9rpwe3e8fi7mNhyMwTSVb/hyZhVWmbuje51r3LJlFX74uTYeHxF9jQ88hoUz89Dj/pa4vZe4GJnJR/D7hiN8y+QdyBY+Hs4bEC3bNEJsiI9SqvRfL/I+/68lFBuovqBWFyNrf4UeRhMS0j/EwjKYCkf38KfQTFuIA6kD8ZG4ybgofdb8o1CQPx5PnKmsKe7FyQa9YuZjuKfbVVp9lK5rfAVfRXdHkHk9vktZg8rasjcJfhs93UwXj6UUuHKuWL1Z6hJqUrHxzAh863qLk6B2Q+5nZSMvRdWDiTOS3m9exGHeJqxYpcf6bVpsVvni4w9i0T42DRfOqZB2sgSFeUxozzUjL92CohMFCP/HF2j/+EYcfI1vovvq4snNBCv+D5vfIX29i7W7g3HXK6y8LLHClGqBwUuLjdOzsGNzPjRuapxMs6KBrwlPPFmMSd/4wsoL/NyDbLkR6UD22lAErD8FO0OKFoeFzXC1sCSdBObMgWbDFrbQOALNefZRExWZolpTKQsQoUenA+YgLImKTqXGkzlqwk0T3CTcPoegMjGSqbS0QECZGBklwvWixYZSViB+J/iM6yv/FPluBhY4hITB1r0rtI88DHuLO6BT0UN0dth1ttJQtnPRUROwJkKbouqzUaNGysSCS9pv8HGih5woKDh58mRZU1wxYspV7VlxDqjYR0l2NrKPH0Uom+Cm0p3b8+N4NP776zxPDUwMtc7oNxSGfQeVyQQ3zlE7hLFtumEC++pdbdG4+SKsdg88xjy6R1uHXuebmAWpOyfj4ze/wYIDF5g+e6VFD686HTD8+Tfx0qB6VX9Dn/swQkevvnSjUaOwevsb4OfdS5a5D4fi8lVXY/sbFdcErmVd4Ap6XuE4qvSs53mF/6sulq57A01uCD2U7tWyH2O7jAK+34xKTvuqh5Y7bTAafFkX8/d9iFZVOgnXSkKfnljRcwFWvXutsFaJtteoa/HRefji/a8wbfMx5F/5BmSbnCA0HvAM3nxpODpEXitS3uT7/Jr0/musXG1Bzft1/F/UXQxcXnmxlHPaOkXNwtPe/nS+ejAMefVr48wLq0IOWGklpm8VLnXZfkuB62rH4dx//qXVqxLUqqByFVd5kaBWYlGjdbAFr/cqxBGGENf/oqVv4YX41xuiZzAnDaTqEMQWHey4Ab2PCpln1di72YC9qxPR+/VARLRXY/OEQHT5ZjHz+t1g+/k+FO5ZjKUb49F32kcw5Z/B6Y3foIizOOuEGBAawHcQAkrxWTOSWVVaOzwfGQlp2LNGi3Y9Gb1kCDXb7VH4fTmJzpedszYZ7hPJ+TS+lPFRbHir2rYduqOcUpBP8CnmZAIBRM7OGWVD10VOmghdKu00nA3JnDM/Fahzrsv8f2VklLMi1Dn/0y5ctNIVhEsn2NPqxXBqWDAcd/WBZuSD0NJJUxFBxDQFJ/CJik/XVi9+qhMvGiJ8KcZLCVArYOWma3G9oHTtyqIAzgUVFaJiEblsYoC7cNVcM8lc0JbHHLSklUtR76FHoSGQifMW4mwfPw57/vESNCHRqPX3Z7Ft0i8wHDzMcVrU+oZNJqgaqF289TTw6/weFk9/FHHXAA3FR3/CcyPGYAnvj2tZ9EFt8fyPM/Biyyq8WVYLUMvF5AH1MGZHhbO84wMcXfAofK7l5F3rlp6X96Bp+GNC9+uE5Io7ziCAties+mEUx7ldG6idwZd3tcVnR9zRb/JRfN/rGm6EMpDVIO7Ja4W16wc1S+pafPLUaHzHvFzxAa7qix6R93yAqV8/hHpVuAVvyX1e9YP/y6xZXUHNlYuWU7gc20sqllYGoaF/O4SXKypwgVpy1rN4RYQ3r7I4QelSR67S1V2gpjhq+xHgFcV3+soXZ5Un/+YqJsh4EK+nlg97uh5XA8Nrz0AvYwVQlKB2455Tf2foUwQFi5lj1cLbijEP5mPVKS1ZyAsj/xkOoz0Pp/YyF4zAE1BTh+BoT2Re0ODMaT8kLt+ONi81QvvPmdvW4wJqj12E2i3rAh8GYcEPzBu7+3EM/PYLjB8/Hs8995wCHWG+bNLaJJLgpEct32y0b+TBMUgeuDMkEyYmk+VtyGBoswheK09AFxOrgIhz7JMdFpKimtWZlm3r4ViwCPqtu2BnSFGdSxeOUKO4X6UBTOUhYtxTaQ2AGPHknL5eCnJOflMiocJBU/ZRWpHpBDtRpED3jdMMrD4M38Y3gm5gP9j7DyAMRfK4nG06RGWs8mBlHJXTSXM5YMJNc4GayEkTOWqucKg4DrFe8+bNERAQoAxxd+Wpid/t3LnzkoICsX7a7l1YOLAn3PJz0ebHmagzcIgSBi1KOowphMDwJr4sVgB2bKfrySohL47YsiuzPp0hWNdy/cUE1wpqzj169/oOOyf3rwJ4WHBy8sPo+9YGZF/bO2S5s9Oj3qi5WPbGf3BgqgWoVe7Aodt4pE4ffH1P8rLz8uZmtmD6fx0DtWD/2C7oM+EkoSXqmkHNsmoUGg6fp4RYNO0+waG5w6twH7hOvfz9Rlh7aAYWfNb5qo7ERdGuD9Qylj+PPn/7Bdf4GeGSa6XxuwcTtk1C/yuS9i28z6/vLvpTP6pagpru4f9Q3Qk4w5ceF4sKgr7AtOBGzP1eirHHvsKRy65Kd3TyW4WNrKJsGj4Vr/mF0gj4Dq+fnnd5mw83rqvluvkP4K2GjyBedR5bEh/G+EpinwG6GhwUXw7ISoHLwlyzd5lrxrjWpYvH8/gspg8hk/lxCcyPc7UBkaB2455HL0Uxx0rADYHFwmnmn3UpgKGZDRPnu2FgbU8kslLj1H5Cl4mfLvkpIDjEyNaweoR3vgfRA+5D3d5MWMkdjgNfpsPYawbqdGQn4o88sXKGFiV3/Q19vxqLYUPu43B29j8jVFhtl0KDgJX3Qxz456iasIXz718loYAx9MDZS5TpBqJvmQAgsZ7VQeeMIVDRTgObNsAy82fY6ELpE5NhZ0NcFXPOSnP4nc6aeHPgTyIsqkwNcIGaQklOiBMBUOfiHIQuCg8cWjpl7MNm9eEkg4gYqFs3gb1ffyxLP487OndDTf8gV9UAH+3MXXPCWumWXMDHf7rmmgpYFVMIOnTooLhqItTpxUofEQoVUwtMLGJwhUTFpAbRtkOM1nK96Ii/ZbEQo4CD1sXxRXTgnFHReqR0Wffxx8iZ+R76vBaHpHQNpv9AI/DQSR4WpzCUOx6x+o0FtWA06d0CNcWGi5JxcPdRJF0WJwrGyEX78OFV414Ego97oN9XR68S5qzqfc8GzYMmYeWEXld+U//Lg5q4+eMwauk6vPFfxEAt+8eiS58J4FQyLtcKarmYNrgBXtvqou54vLJtLV6Mrup1rAhb1wJr1w5qGbwn2jPGXVneTlWPWFnPfRCmnZyA7pU+6Bbf59d04H+NlasjqFVaRFBR7suKCrrj+XovoQ1N6Ky8CfggcTFSXI9hD7ShEa+jk20iRomu/4xAvR87DLWUis138UXq7ouwZuiL0VGPISz/CYZQ0+GqJIX1IBYlfYzZ5YoDAjxHYlRoJDYdfxfrXPtyARdKkJYzCZ8llTsObvvlmFFowXzwy3LpJKjduCfUC1Hx0AoniLBRQt4QVZsf3FOA6BYObF7nhdwz/oj76FnoDvyAnLRcpJzncPEuw1CUyskE7PzfYtSzUJ1pDfOhPMyf3RlDnwpB0YKP8fMkd/RYvRaRrZqje7duWL1mTanT5HCGCwkeNY0OfFVbh751OdMz3MEqRRuK7x4Lj+f+qbhbKlEY4DTBlMUmfkegulCQhzwOf6/LPmQ58+bCfddeqM6x839ODjRsh6GEOwXcKXFOkWvGHLVSkHJ22HBmkTldNzauFflrIoApxl95s6WHP1uQREbD3qghHO3aw7N9B6w7koC5v8zEP154BWEhnOspjkWEOhUzzalf2WQG/t5Vten63qtXL8U1ExBmMBgUMEtNTWWXkMu7/9WqVQsHDx5U1nMergsmy1330n5wZhYn7Pr8A1w4ex6ms3sR6pYEz9p+WLnVl2FijsJi65KbG/rshvGp03HR/ynG7293x4CJwoG5uAQ8NBd/fNbuijfu1d8kRR5acwwecC8akpGVpfA01s2dg1VXzF/jm/qopVj3RpPKw3/VBNQOjW2DbhWS/qJGVZ7/VqVnfcXz8ub12cLrcz3FBRlz8XD70VhdRi7XCGpnvsRdbT+7xAkIHrkI+65O7OVOszIHt6qwdm2gVt75u1xnPYIad8eQwffgzs4tEc06Alw4hA2/78IyVqpvOFV8aYi085c4O4s9HSu5YLf8Pq/STfPXWqn6gZqriKD4kmKBy1V3zf80I+HCSLzDHOwAn+fxWngfRNAPsNnTkVrCDgucvB3oFgE/UbRmWkG37UsmCYjeaB9hdHAL+PP9zsJ52edMuexU4IMwYxg8+BZiKvwRj5yazTUbsdfZBwyV8r3BwTQj80lkiJZb2pqoqfNm3nXlRQF2RmZEoZzNloKkCtu2WTbix5Njsa58U10JajfuifUiHTWRXm8nbBgJGxnMA6tlcODVXnR9Ym3YskiH6IZ+cO/gi/1LMmBkpV3+CSbya0zIYQPcmAeeROdnk1F84HesmtEO/Rr+huITqfhpZxfcO+sH+MVEo0ePHli1alVZaM919LMaqDE0Vo3ChlZo96hQsl8H9437aAQwfKqAGoOSpZAinnyuxPydv29H77t7Ydak79AtLgYlomXHseNQMw8MORlsuUFY48gnFatMeXfTlWNfMruIg4pcMt6xooKTEw1UbHOhYt83u9LWg5AWHApbVDjUtegSNm4CbUwUtMERSM28gHfeGIPszDx8//1E+LKhr9K6o0LjPxe8uV4oXK051hBShQZicf3NpUHFwgLxdwFqwlHTiu3zy9WiQ/xNyUkTeW88duGEHpo+BdueewKaQA69L7DCr1l7pKbn8hOYDW4nztCFFA14y9Eud3xjHbWKoMYdWGZiWOSL2FD+Nr3KmxcyJmNA0zHYUUm4U19vKP717UcYdIWkn6vnE0XhyRWb8G5ljtL/CqjxGmjiRl17cYFSPNAHE5xWWulybaC2659N0W/K+UtfrNz7YfLR71G1VLUrhdqrAmvXAGq5C1n08jcsr8RK09cbie+nvom7r1IkIHLNRj3wOpYz31YsDf/B18LnFI/50uV23Oc37q3iT7OlagdqriKCiu03KlE0Lmwi3uOkApQswlvHxzvDjB5DMDp0EFobAwhRpQ8SgFW8DD8nf3PJJIEAn7/h6ZAeqMepBGXxFkcBkvN/wfSUWThQBlIR6BD2Eh7wr+cEvtJFwOCp7B+Zv7b2ontXVvU5Ccvsd6KXT9zFx1S67dKNSVC7cc+ZvxPUxCc/pRZSTAggrBUyw96Tg8vfe8CG8LAsnD3lxTmY7jD5Mzm8FoGGsJOXo8aenxPRYs5WgsVuWnHjMaunmQUCBZxdlov475YiqmM7xbUaMHAgli5ezPYeHK1EcIpjj7QXGeZ8qrEK+XFsr3EY2LWV++aoqA6vvM1JAMw3I4gIQCkf+nO5Uyb2QGvIaQX5RXlYuHgu2hCmsjhWycAGr3Y2xuUATQ5aL4CjpBhatgOxcnC7iqCmFo1qRbhQxzYedM9Ubkzo8veEtUYIVMGBUEXHQhsaAUdgDYIbpxuIpr587R3zBl+Ely9XGv1u3rxFmdHpOhbXlSgPlK7fuZrdDuT5L1hAmCx3PmKditDmylETo6WWsWCiYtWn6zFiXxvHvIYkahrEsVmFSWcR3IYViGc2wq1hd3gPfho/9RqkVH3a6ajd3KrPSkANdGJC6cSUv02vmHeVy0T15kxUL6pwU1chfFn2iMpdvP9n7zoAoyjb5lxv6T0hJLTQe+8IKiigKGBBKQooth8rdj8Vxa7YUGygWMCCDQQVBELvndAhpPeeXK4l/7x7WbgkFwgYCODt98WEy97evs/t3U3meWZG/FrV9imsXTYVfOurvF0kQC35/avR9dW9lc6txg/62rzs3a2L9/Nh/ddx7q12xJoNy+5vi/E/V0UuZwHUbEsxpeVE/F71aeXHR+/X92Hh+NpIJU43E3kmsFZboGbD+mndMOqbKoBSqtk7WDVnDMJro3+wHcWcW4fimfU+/ONgC/84qPpk1dN1Xptr5jLb56IDanVVX00M2jFCSkj90gv3ngJS7o6va4tOWlK/TBBKKDpcYzSVuOtJg9qyFOwodqYLVNrc2HNI9+EZuN2/rtZbR8e5LHzUHpcYNacSUoBtwaypy+3IN/hj9OAQ3GrfBjXfdMqDyDQlOZBCA9nkgjIcXp2HsL63ov9b70JbQjpVNQs/jEjE7jUW+Kl1GL1kPufY+lKJqcDjTz6Jt956S7KpaK1zYHMvxkz5lsPa2gFtMofklyjQLrMcvYdfj9+YTmCvsLSQnydX1kmwVGqCuJdffhnPPfccIho2wMrYWDRvFAVLRho49AVSX1AU5KO8pJhh7hYCFQHUBAvFmTcqJTn8xb9SaIxLJWeZLy9m30AoCcwUvF3FmS6x2WxWaAlWv5j7OT78YBaEXcb69etw+OhhRIRynk6kB4h8UKk9W5mxEv8Ws2lyfNTkyZMlZlDcx90mgzzxXQDAGTNm4Omnn8Y2eqW1mXAXI7n8pceQhQkrn5qGxJ8+gV9DDfKOFdP9pAyO4jJEjLgR3V97F+mHj2Dx/dOgiTtINrEuDW/dfXBWB2pZ829Fj0di6aB9ams1bQNWuBtOctMeE/c6O2AhPWM1gIsa1IYXCVAjSq1mE3LVh6kUAZzju1QNQI0VrbW4oOb2XO2BmmTJ8cR696rJVtOwYcUj1cFztSWfSbxyOrBWS6CWPw+j2jyBk2N0FedwzizkiDnoseS96vNp9XWdn+NldCnf7bIFavX1pJzRR62+Tqx2j3tZALWnCNRk+CDMEASzpiHrZTV6Y+DQUOhid2LgCC9EhRehyGHA4UWcGc+yIi24CUZtp/O9c7oLipyHkfb7YsyemIWods1x585NJ135v//uW8x6YDwmBCtxBQ2Mo9qUodSb4GYXsOpwIP4Ia4KjOm9s3rgRC8k8XX311bDS2FUAMtf5LFewIqwsevTsIQ3kt2zZHAvZ/gwMCqTQoQI0CaUjTXJFq1DqrTtdLJyMmpJ/IkttS8l8Q5oxk9ZRZufjMWFBgq7EewV56N69O5o2ZgYpHy8nLwdx++PQtFFTHpr7iwNWbDIQE+cozltsInBdxEK5WnK4A59VL7cVZO9Kf/wa6QsXwNTvCty06B8nUONahIBg7fTnkPj7fPQfGwB/32Lofehzx8Tdv944hnZvz0H68QPY/d1iKI8lUrxRlxFS7j44XcQEXEhJ0lasrzo35nMtZtMTzZ0Kzm17TNUDM3b+iom1o39OlY/Gqve3HY+qRJDx+jk48AljvlwL/Z8Dalx8LcQFlcUDVa/M2gI12ZKjpjdSH4yctxezrj4TVXUmoCaOXxNYqx1Qy59zA1pW80ep7TrdrI8K9Hxf32rK1nq7zmv3WXZZ7eUBanX8dHqA2hkLquDAeWW65ox3ObsdniFQE5sAaQKwSX1thx1mnQ+Gj45AZ30iGjGk3f57Gs1Ec2DoyN9ns4UedQeKft0HA2fFDI8+z9zPB5G+fClm35mJyC5dcOf6vyRwoVo0B5aFM6ErY7e9CdES59+QwWMsV+AzZUMsiGiGAwxZF+xTfHw8GjdujBUrVqBRo0YSKyXHK52UcVYsTxy7U+dOVGeqkZaahsl3T+Yc2Quw2q1S21QUTfiaSZKBijk3ZyC7JP88ZcUhG+WKW9n2FfsLECbA1oLvv8PESZNx5cArsXjxYulcVsUy4qlvRcSTlAHqZNQEEyYDNOGJJjI7H3/8cURFRUlrOnLkCLKzs6uJB0S7U6zVl2/uwsKjbdu2WMFM0wX9OsNkLkHjKf+Hga+/65xNk85RgS3vz8SRN59EyxFhaNXHh67pZP+MWqybewIlIX2hjgrCodg90BxlwLyQsdabj5o4Yz26TY/F73dFubkwD+E1qlffq6L3NtID7Cg9wM5li39nEHq9WUXI7k6Fd7EAtfXT0HbUNy6ticgaWme1rEaNjFrF/U8nLqgmHqj6mLUEMFueRsfr5zK/t+atdlYdtQFq4jHcgbXaADUbCc3GbLtXYbr/jY+d2yXX43Vey8vmctrNA9Tq+Nn0ALUzFvS8A7WnKxg1wQ2JtyvJ8JVMVImGWZ/jGmLMgCxkF2ix4YtklJgDMerB/rCs+hqmGM6YpOVxWF2HUkcYVP4W6KaE4K3u6ejXOwa9wlNoEsv2oDWTgKkEFjVVndQWZzOicyF9XY/4NcaO4AisWrNOgk5SMoAAVgQ90dHREtAZMGCAVCDXOCVXUHT99dfjj8V/oFv3btAy13P1ytXUDjjYvnSGop/KCqihzm7UlMIfzU6gKkDXo489goULf0ZYaJjkaya2uXPnYsKECSeD0yVQR7AoNhET9dFHH+HLL79ESopTSC2Um2I9In0gJCREYgpLS0uleTWNRiO1g4VFx+HDh5GYmIhvvvkGt99+O1K3b8W2N2dgyOffQCPiaqpsS++6Ewm/fYtwDvyJYPq8TCvjS/XoN+d7aNu0w7dDR0G7g5mo531G7YzXMHfwQe8ZS7BgYtMqSjg3s2xUNI2cd5RsS22O62afXc+j2zWfIqnSr5riwdi1eNI1+uhiAWr7XkbPq2bRBkfeagmGairPmYAa7+e+rZeF+bf2wCOx1YbKXB6pNudmw9IpLTHRdTiNAoKRvf/Az5UAUW2sOmoL1MQpVgVrtQFq7o//r2YE3T4v9Xidn+PL6FK+mweo1fGz5wFqZyzoeQdqglE7CdB4OgKwKTk1X1huwn0vNUMX7xRsWFKMxAQ9hv64FOEtW6Is/hA23NAejQMtCBesUjNCreaEeJ3DkfRFFiIjqbb0EsiFrbADtBWiy8SR4gZ4eV0yttOUdg8ZHmFXsWHDBuSzVSADNImBI3ARs1wCxNx5553SrJYAOg62JUU3Ux64F/uNGjVKai/27t0bBw4eQCxn1dq0buMc9K9gu85Y4So7SJ5y0hycBvfcdw9WLF/OcyxERoagASGBNAHErExP0DLeSmx5+Xn49NNPMfOdmUhL45ycqCGBmKu5rbhNsIbCP03kBIovAdgEyyayA8U2cuRIJmT9WE1EINdHfE9cs4pPkpI+av2Zxb4YW2e+hWKem/D6LSKzaAgKgx9nA3fHbodx30H6wrH49cqoyQV2MyNVDaSIfd2AqrN6Et19KLphqS5aoPYv119tXT40QaadTRVdQOUZQFdT21PFll+Lp26pBVCLfx9X930Ve11IKsGQbu8xu9rM2pmtOtyBrYl4c0gsnqxi/+I8R1ewVhug5u5aUeHa2UmgP7ObrZbAsWpUVX1e52f12rk8dvYAtTp+HiuECXb7Mewxu0smqOPHq+PDXRYzas9WtD7F+6r4ElMjCrJS+Uov3PV0EwSdOIzY7zNw7YoNMMX/woH9ZBi6340jazegTcs28BGD+STXyvf8SXuMQwRTBFScN0vZtA6lR7Pgf++bCG7ZAiUcxh90193YunWrZDshWnnye7krEJEH6uXnKiQ0BC/PeAl3Tbpbukmwa2ITjJdg1BZR+divXz+sW7cOD059EO/MfOckAycxam4syE5eBxVdUDmrU1B75USDkq0Gj3/PA/dg9arVMBebpQgoAb4EwNq2bRtiYmII0PLx9bfz8O7Md3HsyDHpsBEMbBetzPXr11ear6u6rqrXYq9evSRlqZi5kzcpkqqC9RPgUcynxT7zGA4v+AYjfv0Lwe06YMU0zgaui0Xmwf2I6e4Fk8qBo/FKHLc3gPHQMdZYe0HtOczZB7Htp9cx9aWlqHArOLVUI4UH2+npJQv+3H6AuVORns0r192HLzhIX2VA/2IBatUUsv9y/dXWFY1b74/BkllVjVyNGPDOJiwYEwS34gFVW9w/yYRZn7rmW50ZqFWfxapgSK9wowI9o1VHTWDrUZjdePVVBmtBmF01l7Za1qe7a+V0a6xLoPYvn2d3ymoW4F8JUc7mZXYR7+sBahfxk1MPp3ZZATUxASUgkMSoEaiZNd4YObkRQuJ240BRKwx9+0mo/p6G1IQSbFmYhpvWbkNQ+05uy3541Sr8efstjHbKQvvpL6P3g49LTNm2TZvQ74orYGH7r2qUkjiQ/AJr0KCBFK0k2CYBeMR2zdBr8MzTz6AvzWdFa1acaR8yaRt5TAFyhEFseEQ4du/axXYjI58EqyZmzgQYk2KkTo36ybYXzpN3zplJO1WMrkmMHoHa/fffi19+/x3RDaOxha1P2ahWMHh9+vSR2C8xVydvYo0CzInfCUC5du1at/VxVXmKHURbVLCBwj9NUpNW+MdVPk9BjFFMwN/9PWUC8mj4awyNhn3LTyi00wQ41YLeI8PQsR8jvuze+PwDrmHvYcZgXWjDW+eSaxpKr6T+rE+m4T8E1O5fvhitXhNZnVVoNSEuePMa/DlNTh44eSWj6YN/4RP7pCpmvGcAau5MgRTcAAAgAElEQVQsOULvxO8VYezVQdyZrDpOx4rVbMniZNaeQ7c1L2DBqZ4ygxXux/KNz4JGNhXb2bYk6xKo/Uvm1C1Q+5fzjfXwIXo+HvJ0QO0txdOwllfN2TwfZ+E55sVQAa1ChwfM/5NSfkRHS3wJkkfO0HZrJn8OJ37eW58yoybOTWa41IJRU5swanIMfGI3wjZwCkJiwqH85x0Ym/pjxZxU3LIiFqEdOqGMSQCS+SrvoyBQOfzrT1gx8VYJ9zi0Olz30xJE9u7HeCraVbBYzz//PKZPn36yxSllalbYUgggJFSWoj0oGCzh3F/IuCXBLAngI2bBnnjycbw8fQaKS4vRsV17Dukfkxi1rTu2otRsYTt1LXp068W1kBU7Zfl3lqV3Um2PPzENM2fOxCCKCUSqgCwWkFk9Ae9CQkMlcCXamK7qzoH0NxP7C+Na4acm1ibm1mSAKpvYin+LeTyhDhX7yY8hQUjZ7Fe0LsXPskUH67zozrEo2/UbWg5rwJxTG6zFdpQUlqNBIyUa9AjGjCcZ6L7rUEUywQU2vHVCteqzSuJm+pptpa+Z0w70bD8oa/E0XmozaqBStSmVqvJo2Gnjh2qx/moAtKKVN9S9ItbdEY00J95EZ/30aqkJpwdq7iw5KgFzdxYVp7XqOFP78nRgzc3KqgG1XXi+2zX4tPJAI3rMOIBfJ7rzeTtHoFaf13ktLpnLbZfTAbXPlW8jg35hnu2/UYEQZQTGltx/6QO156SsTyeTJlg18aUh8CjWe2PY2EYwrNwE77HPcgjeDscfM3HtU82x9P14mL27Y+Qvv0JN9kq0MYVLf87hQ1jAiBWfiEh4MYKp1/MzGL3S8SRTJl5AIjKpR48eiIuLk0CJ7C0mgIsANzk0qxXZl/ImAxfBVglWTMyGPUkD2kmTJqFD2/YMGVBLSsnNW2kHYqMH2Wsv4qknnqM7fwpny/JQUlCCrMwM5ObmopBxS+aSEuTk5sDC3NKCgkLY6ZdWVFQCM1k+G2fzyikOEOtR00Mt7kAcjuw/zFSBq7Fh/QYJiKmFAIAzYkJw0JhxUA0jIyWGMCAgQAKfW7ZskUQFYmvdurXkvyYnKoj2rFivaxtUANcXXnihkmBCXntNaP/AT98j9v7x6HZTJJp3VMPoz/NhElVmqg2h4Qxp15nwznTarOw9QnpUhLLXB1DjKn6biMh7llb20lLRqiOJVh3SIutRDXfRMGqH8P51o/BZfMWz3uguLFw0Fa66h7N6Sz2NL9vprTcqHsVFFbp+WlsawVLifXI7HVBzY8mh6o3X9y3EKW/bqtmf4sCny4E9E1AT9z8LsFYNqNkooIiigKJyhVU0Bz5OI7vq5iE25Kelk8GuvP+Sh7vheVfyvNrj1ON1flYXz+Wx8+mA2hLVj9jp2Hh5LNSzijNWoIOyB64suf7SB2qujFpFA5ApBA7YfPzQ88pgKJdtx5AtBzgHtQYHn70X/SaHQ+frjV2/JCFX3R7XffMdTOERzuF5gpD848fgwwxQwQAJpk2OgpLVmgLM7Ny5E8OGDZMYJkFFCiWksLAQ810CzMhsk9wClIGNkskGok1pJbgS7cW1a9bSQ60lDEwZ2LFzB9RaDYIDA6UszrTkFPqe5TNTs1QCn7XdhH5Tfh/Wc0CfwQaIbN4CAQRcOzdtYOwUlamC4aI6VMXzEeBQIF2xLtHCFG1YsQbBBlbdXAUGXbt2xVNPPSUJCGTwVrUlKmpWSuC6bPLtaDH2Tvi3aAUHgWZRWgr+uWcighur0GVoEHKSSwiYVWjT0yilKeyK0zCXVA3DgSM0vNVd0Bm1Smt2y25Vns2pN3+piwao1fbKrOV+ZzDQjWcSQl8mIbi3Xq4cubVwXDjbpa6Pexqg5saSQ991Ml6+tWWlE7dv+hRP/nio0m1ufe6kPWoD1M4CrFUDUNQ7uUmGYJwFnlq7DFMb1a7m1erk5nHq7Tqv3RIuu73kzxvxR7LogIhuhchXPqDahZ8d8y679XoW5L4C15ffhhhrW6mjJb6ESPGSbH0KRk3eZGZNQcBlMfmg/7AIsmib0fTJl9Dmzsk4Mm8utr8yHSatHS2vCUV+sgXR93yENjfddJJVcy2XBGiqWGDI7NL+/fsxZcoUrFmzRrpLJJkpUUQx8yUDNLGv3CoURZZFB+L3AoAJHrBL5y6SIjOBM1saWnQ4mKrgoFO/KogpAz46lHnp0cuiQnB8CbyZ69mUGZ+iLXfIypgsAq3CchsKytTw09rgVa6h3YgdmTbmZNIUV4zhK+jL1oogKD8kEj+coBcaGb0grQoWMm8J1orgNCJcNWWXIlFBxEv17NkL/1AtKqxCxCYnCghAJpi3hx56CNOmTZNQvngTkfvl8kya9BdhRdbp4d9+xtEfv0XaoQOwMhUhZtK9GPjGe8hjnb7u1REh3lYkp5aiTf9AdBvKBAMLZ+M2ADsP+kqMWjmTCeqLUXNrJlq1tVdfju3/UaAGZNE7zM28mpjrqhJiX3ugVkObu7afHjUaHNcWqNUSrLkBUKghmUBu/9bGc7k2QA31dZ3X9jm4zPZzB9Rka6RP9K+iqLzwMluxZzlVK+Cl8MYd+Y9IAE2eUbukgdpJ8WPFSgVQMzPUdchtUWiQfAj7Vuei5+w5aHfTrbBlpuHo4qXY+Pqz6DwoGN1mkfNnWKzYJEZIgIwKP7SqqQJlFaDEUeHeL144glV65513pPvLTJr4WQA0wZQ1bNgQIRFhCPTzx+FDB3Hw0CHo9DqoCKocjIYSfq4032cclBLaQOZ3CkWpxQaHhtmezCy1cNB+MNt/rbPLUEzLjqPFFpjIlJXxHA0qBbx4WzKBWYzOIMVdRWnLEMY0tcZsferY3iwkUGvCx0gusuAQ909QqLHFZkFjrQHevH0vrTU2mK1IcRC0idQDmx29+/REelomjh49enIWT6zpuuuuk9YqRAPijUQObT9ZuwpQ567lmXv4IMwZ6Yjo0x8O1k1FJvLYn4tx4Jt5SNy6HeEkMdsN8kL8hmRsXFOC4uBmMB48StuOemp9MtT7+X6c/3Ed5hYLrWYmWk8ZiP9ZoCb+TqkeuK7i87Lz14mVskBrDdRqADtn89Hh3qrjbIBaLcCaO6BWY/QYgevdv2LZi11p9H36rVZADfV0nZ/Nk3AZ7esK1MT7rMyoCVZtu34dVpQtvoxW61mKuwpcgaFoW9BNAmmujJos+pMJobqo3nkXE7gyavIJC3uOIqU3JjwRjYGNs/Hzm8nM+7wG137yBcqLi+DFVmf6wYNYNWEkhv+8GKaIxie9v2padCW2iDvJIEWAkgULFkjsmjB+FYhXvKhES7NFixbIzMrEiePHkV9YQAxEtQ7jnhTEQwoj/0NmS6Pn/gUODtObaSvCditxojpAR/AmZs0IhsiadeTdupeqkUBg14Lo2kfLgXu1AUUEVckOMxpyzs7AfWMLzdAR6O23l8JPpQGTmRDF9m0bo56ATo0Ssm1dGeSewRf7j5x3c3BWbWKgH9MQ7FhRmI8VFjPWEdBp/QLQs0cXxC5bLgVs+fr54KWXX8L99z4glceVRZPrJc9VuANp8gyga21lu470Xdux9I4x9FBLQoAfW6VFNpSExSCtUA3T4XgCUs2FZ9ROBlRXDfUWWoKtWDbVKSU4uWXNwQ0dn8EmN/04bctbMPPjVzGypfuPS1vqCrw+5QHM3pLrpp1XuZVX6TEvKqBmZroEUysICQIjA88IDE77xlLb7NB9r6HvkPdwVNS8hrSC2gI1t2kQZ/vu59aq42yB2hnAmlugxvtkzcetPR5Bda9fFfwHPIef505BDZeftMraATXxOPVwnZ/t83CZ7C/HDYrPGRmoCWJAADUh/PrF70skOeIvk9V6llG1ApGqRhiWcZs0WiUDNfGzbDIvwJosZKyL6tULUBOGt3llJvzf683Qt1Ea/vg4BycSvDGaWZ7f9eyIgZO6IfzK6+Hbbwp03s7A8JMKxYqfi9NS8dPwK1HGGKSblq+HOTsLqf/8BWVgENpy3kp+IcnRS5u3bMa4cWNx6OBhWnN0QnBoMNbQTb6EM1kKXwU0BEviMbzahZMtU8CWlIvyPAK07BI4CpkLGsgWXxAZNZNg2oQYQAFdTADy9WV4KV2JRw/YkWYthS+BWCkZNBH+aSIIy+PPJbZyBHMg7QhboDrer4wUHfEi0si27Si2YS9f2MlUViZzPx191voRoU8O8cPqEjNW5BRgkp8vBhD8JXKf7XzsLwnidlGMkUOjXBD0jb9jLL6a+zUBmo1rEBeIkz2UwZm4UM4oE65QfArGUN5KKYr45abhTH+wwcQ5Oq1vENS+/tA2i8aa6e9CfTwBNoegDytP6U1MiTvHa/PMWZ8M+8TW9buRITLJqm4+IzFv7yy4i3isOQhcHEQL7+adMeqG0WgbUnHQ4uNYufBHLKuaK3ryMau38i5KoMbYpon9H8TSXCdKVflfi/dWz8Go2vTc3D2LtQVqAjdw3z4P7MH1C7fgzd7VR+drBdTcWXIYm9KGpwVOOQJWP9HCg6uw5qhrCoI7q45zAWrisWoQGNQE1E7WoqrXXMV5q/zR+prbMPGOmzCg0amUkIx9S7Bk3leYE3sMZtc/Ms71cc7HdX6Or/RL/W6uny9VgZoAa5kqfj4Z5nisOi71J9rN+QtLjhuLJsDfEnySSROMmitQc51/r4sS1AtQE4xaMSOkrhsfiaFtM7F3swWbfi3EiEW/In//Xux+7hEEdm+OYT+thsLg/hPFTnXnni8/g4OzZB3ufgA7Z3+AXTNfk9iyzo8/i+4PPyGJD5RKJhHw8cSAX1JyAh567GECtDXIz8iFhea5xg7B0HZka3V/AVt/hdA1CYDleA5nxwgOS0hps8q+XcJQ3kBHxo2Do/ROI6/G9ifn22jKD5sKPXflol0i26EEZ1eYjIhUl2FHkR1BbI+20Cmwt6gMB4hlCtnazCY71ozsWZiqDPspFMgnyAmkLUhjowGbioqRRqlBJpm4/FI7nmUIfBRjF15MSsHNZNGuI7uXw7/a9AYj/ibD9gfn2dYWFsPg64M//liMXr37nPRCqxU4q3IFyT5qG16bLlmh9Jz2DH4dNRQFm9fCdMV1MIYEI/63X1mLMOaflsAosj7Zxj2/M2q1vczdJBNUuivd8V8bjOvf4yxebQ9Z434qhI/8DH/PurZSK+/iA2ruVJAEa71fx76F46sFe9eqLGcB1MSs5q6tcWjdtYMbhaMbpgjVxQTuLDmi71+Ojc+ecitze97u8kCrWXWcK1CrAaydBkBJtXh/BG5+dQeq88C1qvypnc70OBfyOj/LU79cdncFauJ9U3zuuLY/BVhLMyRisX6+B6xdLk861yFA2rXFNyO4KEICZnLLUxYSCEbN1UPtjARJLWtTL0CNlBRKyQhdMSIcQ5qlIaCJN5bOTmF7phwjfv8Hx/9cAt+W7RAzdCiUXLgAZVo3eZTu1mhle9Ockw3fRo0r1I4c2CfDZLGZodca8eqbr+Lpx5+G2qCGvksQyqOZRXWcNhq786D21qIktwg+XUPZ7qRpLsGWobkvSrNKpbangm3OskC2+sJNsJUSMDGo3JpUioEHzHiMGZJqslKzadlRxDZnJwIsHe9ziI/bkH5vQdQY7KXE8wDn0nL4fX+xy7Apz0+0QkOoKh3p5Y0IsmL7yWJpOAPXyUsNC9uL64vzcR9/J6CjhUKFaIMGfmyvfkhw93x6Ggb074t/Vq50tm4l7zgJqp2ZSXMpotzujGMyweop49H3ozlYRvVnz4m9kR5Pf44jB+AXpecbUCMcTDBBv207W7/n2/C2NleyDzo99QN+m+oeEJw6gg1H54zDdf+LRQXBVJuDV9mHjzXtWyx85AyzRRdF63MLnu54PeZWTS8/7Qf9GUpyVkDt9Mc6M6NWG0uOmh7DzX2rWXX8G6DmBqydsa42pP7+EIbd93P1VI2zuRJr8TgX7Do/m/O+jPaVgZo8qyYrP2VBgdwGzdNnYb3vMk8b9DJ47kW7s0fOIPiUBEgtTplFcyckkNuelz5QYwzUlaMj0M07GRFtvFBMM9WNCzNweKcZXmwxltMiwys4DMGdOiF1wzq0mTAJff43o5L6U4gHxCYZ4rq0R8VtTmWjwCpsNYogdYKso8epamzWEkqtAsa+DWBvZITicBGs61Oh4DyaOsYPuma+TmXnkQLoTHrkJ2ShLIuPw9B3Qa+pjWxf9gmDJZiKz2LmdqZY0X+/GYNsSnQxqBDhpcP6EhsaqMrRRavGP/RQKyQI21RqpkDAC6uK87CZfmkxPK/AimB38ndIYMtT/KX9YIAvWmn0CONXF7Juy9j+DFdr4aW2I5ezcBE8d61Si9+KzNhCNnGwvw9+pTnv8iwRN/U5xt42iTNtBHmS+vTUVtsLRtTNTgHD0oljkMSsT3Uwo4BuCpbm5cqorGjSUolDCTrac6hgrLDnUIiQVJetblufp3+Fq/y74Z4PP8ETg8Ldsjbu7m0+8A2mTngGixPOjlvThvTCg198i0e6nmn8m496UQC1ZLx/dVfQLaPyVskU+CzfQS8kUHPDitVstVF9He7YuMr3/7dArQpYOyOAcp7j6ece6+56vyDX+VlePpfT7lUFBQKsyQBN/i4zbcfC9mGHer1HDXoJXgBC3dnJ1hvRKS0l8Z4Aaa5ATQZsomt3PoQEomT1wqhJrU+1F0bfG42WjhPwijCiQWMN0pNtiIvNhXcgh/X52R+3PItGslZ0umMSlGz3DXzz/UqtPXfPuevQvPyzmCFQE7hs2rYBPbv1hrEjTWJb+9DBlarOPdnQBXMuxJd9zEgyZQREKhERtScdpYdyUO5jkubSygneUEoz2UwzNH4GBPX3p42GBSH5zB6lk0d6ohV+OQpcVWZEorkMh60l6KE34InwAPxGlm6PUAOxdbqX82U9CNDa8iu4wlgui0CN1rHYwHGvXLJwr0VF4M/sXDTVqXG1jw/brA5EEyjy7mSCbAg26LCcYHA9kxIOlpYgjyA0lT93bNcGm7dtoUkvw9wJrARSreqddjavk9VPP4nkHz9En0mNEBwh8kmpfPUpQ1auDu+/BujiLoThbfUz1noHoVGbgbh63N34v+vawrf6+FMtlmlGwtp5ePulj/BrjXNo4jBifq0vxj/4HB4dSU+9WhxZ2uWiAGpuorZErNMfK/Fsh3Mqmtt1nWv+4+kZNXeWHKczr3XzxLibb6tk1VEXQM0FrP11Df6qFCF1uouF5rZ7F+GDV9/DvLWHwDHYmjeVAWFtBmHUlMfO7hqUjnier/Pavh4uw/2qtj9dWTXR+hRgTXyJ28WX+BzKDElCij4B6cpk5JVne9qiF+F1IdqbfopAhJY1QERpFALTnD6uAoQJMCa+5Lgo19m0qv5ptSVHalOCegFqspjggdeaoRP7+HG7yxASokKjzmLoS4HiPM5/ceB++7J8bGd+4Lh1mxDEgPaqrFlNC5T24/9E0oAg1pyMmgr/rFqGqwcNgbF7ONRk00piU6D3oUDAi6Amzw6L0gZjrwaw7MuFOT6LXmneUIYYyMCpYWcrsoztUAVVl+VJVowZ48dQaQMTBZiPSZarRWsNtu7W4y2mKoy9MgSH/iokgLOjOdm0yXoTSjQWTEzOhV+ZDUN4Tt3Zogzl+YkZYZEzsJ9zb1s54/YPgZo/Z9aeCuFsntmOLAKzdmTUDBQh+FOIquec2162RH8uMOPFsCCYKVaYzaH/BcWl3N2GhfREu3HUGGempzDwlX3mpExSp7VJTReQPKOWsmk9NjwzDYUieYF+dKGtvdGwnTfSDxcjvJmeFh5h+PxDzjrtYtansi5bn7W5ZM/DPuZsJO3fitj9WTx4MYqLTRCddlN0V/Tr0gJ0ZbmkN1vqZsx5/xNsRnfceS9b2lGX+IIuymeDAoP5f8NnzIhzSH0Qqtz92Bq7ny50vALJaJukUQ8Torv2RLsmYef4x0iVQl3m1/mFviyqJhSI91yZVRNMmgzUxM8yWJO9O2WQJ87ZVfR1odfgebzqFXAlN8TP8syZDNIEmyYDNfnnqmyaOOolD9QEo1YAL9z3SlP0DU3Blg1UUAZGoGFIBt+kyshO0dg1gKzU1nx6rOXAm0Co7/ufoe34iSfBRm0uMPGiUIg4JgIYUcj5P3yD228dD682ASjn/FmZMDzzYYuQLUxFaTlsaUXsbVJImU+mLZReauE+0ITQjd+bc3IlBGiZpXDkW1CWUYQI3tb5qjAcP2ZBh4ZaRBWX4Ifdxege44Pw1gb4GX2wdQmTEeJK8J6/P+ZYzXgnKwdXkZW6mnRhf2KmUDJqFHoikd/3cEE7+PUn/32MAoi5UWHoQwpNodOSoWP0lMKBCBrjZpA5W8FzzeR9mtErpKfBBH8KHBYT4D2VlIDuvXshdt16KftUVRG+fuqikR3tnNUTthyyNYfkDycraumn9tvIaxHcuSty6C1nyS9AEQ1/QSarLPEwWt/eHGs3mqDafYjnVZfJBLV5Vj37eCrgqYCnAhdHBdyxaq7Mmtz6FN9lKw93YE1ejQe01c/zWhVUyTNmMkgTRI9r21MGaLLB7flk06TPb0YRVQ5qrOM6ufNRE4xafrkX7n8lBv0ikrBjjy+skaOQ+uVrLAYNYo+XoNfDY3Dom5/hN3gy9F5abP/oPTyQUgBFharC3Wk6gYYTy8mbg8pOMaumVmsw5NrB+PuvZQi+rimKjmRDFUmBf7gR9m0ZUBZS4MCoJMk01yhEAwRqIV6c0dLRksIAG01nyzKKUZbHQTV+laeXQhnlj5hIJXq08sHXnx/H9TovPMTbnsvIQV5j0qNMLejdXIkRBx14fFMOLTisGM7zu4Ln04snGMmTtfFk0/jzHjKAO3miy/h9A79fS+HAm14GrKXlB4y+tMEoRXppGRWl5biBf22XULCQwfttLixBa7ZIIznT9mpRIb7Kz8fnn8zGpMl3UYVEBpCsGl1AJKCZsWMbQjp1gYqMnZKGu6dD/Cd96QSY4+P8/cB9aMg4qtR/liF+4edI0DaBIY5AjYa3dWfPUccXn+dwngp4KuCpwHmsgCurJpuMy3YdMkiTgZvc/qwK1FzBmQeonccn6zSHdv0sdBUCuAI1AcZkYCbPqVX1TZNN9euSTat3oHbfjKbo6p2CDctKcHBXGYJad4bW24Rm1w7Hprdfhe3EYYxetxt+TZsh9rEH0PMZxksxZ/O0m2h18n+EJxQFODgAb+dgvQ4vvPI8XuT9NVR26qO8YcuxwNAjFI4CTuiTKdO3DUbBvjS2NqkQTcpHeQBltoJVI0gTytMysnJlhQRoRTQ4TKNik2IBU9dwBJWbkLDqKO7z98ILVJVuo63HE3klUibmdf1NyG9Dts1HiSdfSuS+wCCCpt783omLiJAatICIpT7An3bzvAVQE8xaKC+Kz7nWRSXF+IPig3C2UJU02W1FG48ryaylUUgQRG81HyVbJGTW2hPxJzBDdWRyOtnKMnz00Sya/N6LUnsJw3uUsObQuZy+c4UH90PP4962bieSN65D+p+LEDFiNBpffU01trJcBLzzuEe/nYFDr7yCZLMeA75ZhL0/fYd9S9ZAczSBNWY/ts581OrnRep5VE8FPBXwVOBcK1BVASozZ3K7UwZq8u3iuwBrshhBPK4HoJ1r9ev2fjLAkn3Q5Nk0V0ZNboHK7U5ZQFDXSk/XldUbo5ZXxtbnjMbo7p+B5d9mIyUnGNfO/gS7Z30EtclAteVRgqhCtJ1yP9rfcdfJc3aqOcmcuRizyr+UficYNSnHnGBNtD2ZFvDo44/ig5mznJYcTf2ZaUmdpUYlxUOpyCyVswWq9TcwIN1OVaeOLc4imPPJrlHJCbJ5UpaT+D//7aAwINgrGE37xuCYLQ+ZNKP05STw7DatKQ7QYYvGgA/oBaewWhCj90VMG2/4d1Ph9df2MN+T7BvPrA9PuAXPNZjfGcDEPNByHKclx06Cu1guIZ4UWDmzPX3ZJtXwewgVqa1o3XGLrxdmZuYhn6yfhqDNxhYpO8WMpgLGePlhKs9zFn3VplMBKiowY8Z0PP30cwyZt0mqV3NmJjI3rKU4woSGA6/Gjg9nIont4Cb0oRM1dk0ocM75cUyO4oeyvERkLnsL+3/cBHvjAQi6agBWP/MqFMcT2WIl2HSlMHmfc1d91u2LznM0TwU8FfBU4EJUwB1YkwPbZSatKqMmgzUPULsQz1DtHsN1Pk1m01yFBK6CAvl2V3PbumbS5LOuN6BWqPTChCcbo4U1AXu2mhG3rhg+gSpEhSiQw9SCnCMZ6PbUc+jx6NNS7qTUkiTLdLqtjIBBaB1tnIETQgIRrD5u/Fj8tvB36PyYx9U2EI48qnEoCDC19GckYTbsFAjAm5YbNKG1ejMxINAk5XSioARXdjSgzJfA6YAKeZxfSyssRbtSFR4PiJQYu6KSIsxLzycDxsH+8KZoS3Wogezb7qw8bKXqp7yBEk3sPtAO9sXCLQexeXW+BM4GKexoQ0DGQxNwEQzx56P8eXfFVzFZrLsDg9FcU44f8orRmYrXK5g/2pT/FoHwAWw3mgnm5jL2ahNNc32paF2em4GpQf54nPNwb2cX4k0KDITR77RHH8Ibb73DkHersOmFmmHwpOAkICfm92raZNC26qGxyDmWh35fzJVmLARIzs3LwU9jp0C7gxwg2UrBvLluHqBWuzcFz16eCngqcHlUQGbEqs6syeyZ63yaK6PmERVcPM9/VRGBLCSQGTOZVXMFaFUTCC4roCaLCaZMb4LOxkQciCvHvhUZVHqWY9DERhQUGLH80ziEdeoOnZcJw+YtgM5HwBo6ZOTmImPbZkRdNaTaM1wuUWkK2NnuFAW8nZFR33+7AIZgL+hb+TNJQImSNckwtgxEUXweVDSe1bXyRXkLzoDty2MHsQwqMmh2bx0GtnKgE4UGR9OYbZlkRPLRXNi96L9GG45HlT6IYHB6GZMCHslhxD8ZCTwAACAASURBVFSPckwicGq52Y5AWnIYybzt7VaOzV2Zh7nZgLajvOHbIRNffW6n11kmdARXHQnQwgmYtAQ+BRQDxBOsJXFFwkutkd6IJ+iPNlqnYeanFfvJ9D1Jxu+4Q4VNDIRfaS7CPgLB41anj9wNvr640mjCCxmpuNvLH2MINgedSEIewZidqtDHHnkEb779NkqtxQSGnE8jKC0nSBO62JObS+C9dLGJdiZrmP73+zjAtnGCqjOir7kKzW4eQ7NiPb4edhN023YSaRLMVvjZycfyALWL583HcyaeCngqcGEqUBWsufqsyXNprt89IO3CPC9n8yg1KT5d2bWqyQP/xgKrtudWb4xaPme77uWM2oAOGQRpVhRk0KSVcUudrvLCgXUl2Lw0kzmeZTR6BfyHTMSV772LwsREzO/TUern+8S0oP9aAwz/6gf6nrGBSHAhQtLLBNgiI7Vh61r07tYPhihf6HtGwBKfjfJEigEY/aRv7IuiHVlknNjq9KfDcPtAaPwpKkgtQjkJNn+vcrx1nw+W/JmJ1CyCqbxg6E0UA1hUMKc4sOtwNvxZ4XDGRcXRFmP8A4G4h4Al+ON85JvI5BXwPKaE4ZXSPGxZWAg/gqwG4VYMGGCkqsEHyz7JwLEsMwoEoBTcFvGSgcBJwzasP+HTwwRpItuzvFSBPQSETdmqXGMpxNu5hZxDc4Iz0ZdUEnSFMaaqCZnGVvR+60wl6v8SMnFzcCBWFeRBx5k5Ixm+tcxB/WAWxRj3TZUUsCoKKwRjJi44SRkrDle1lcyTsrLt+eN1V6J5k1SkHStGelwRQWwD9J3/HX579Hlo12+CQ633ALXavto8+3kq4KnAZV0Bd2DNlWWTwZs7kOaZU6vfS6Mq4HJVfsrsmuscmvyz9HEs22CdpyXUC1CTDW9vui8Kg1umI4VUUlaSDS27GeHXQIWseBtO7LegAT270hIc2L4wieCqI278eTGy9u+Dd8NobH5zBppdPxJNhgw9aSshq24EUPt18UKMvP4m+A5tJGVyWhMKoMxj67CALdYropD7RzwcJQL0OAf6VX5qeHUJhUUoK+0F+Gh6CJo2ykNIYz1Wzo6GY0UaZjHfcsfBIoT5BaMdlZNFmTlYxDbg/41vga4FCgRtt8Liz7ZkLmfIGhUhu7EKxzbQC62VAUu3ZSEtqRgNmnvhRosWE6h63cXWqZJsmkqtQCZ9Qf5mwPyDxgBEqyzYybB1lGtQUKbEOjJnfxRSScqfyYURjLLVyAujKefpemkNCOT9NxWa8UCgFw6TCJudVYj3GofhxWMpmBrZEPOy07GTYHDLprVo2ao9wRlbxGQAXS8uEXJvYfyWg7N1wW3bO+fV+BhHli7B8sm3oNMQP7S5KhB7f05E7A49Sv2ioduxh63Py8BH7Ty9uDyH9VTAU4H/ZgVqAmyiGq7zbPK//5tVujhX7a4FKoOxqoKB8w3Q5ArVC1CTsz4HXB+OwU3T0IBmqvmZNvg30CDloAVGthy96O6q4sB84nEldi9KgaPhYAz9/AtaXtBSo4ZN+muFHmXC6HUx1YzXDx0B3yFRsJxgQ5HHsyczr5ImtMbBUTD/lQJbZgmPRE5LSgjg/Qh4vGL8cV1vPdRMAwiLKodXgA3R6R2w+5O9mFWQhfGNGyPyphuw/M/l2HrkMB558nHcNHIEctOzER4SgnwGpWcfOwLvJ55C86wS7KGAQTO7Od6Yvx8JK4tx9S0h+PzbDDzIBINxVJaGlKmRzJm1hZx/a601oYeXCouY33mE3mkjTVo4jHrcmpCGZNp0aIWdB4GaYOHYJcbjDSORzzZoF7Zbk6g2/Ytt4WdCI/AQw+dvCAzAoVKmFbBN2cHLiJuOxWPMbWPw3bff0erDwto6w2MtZM02v/ES4uZ/zXqko+XEe3DVzI8koCab455YtQp/3XkL+txAhs7LgS/fJtsZ1RyGg8doz0GbD4+Y4OJ8x/GclacCngrUWwWq2m64gjcPQKu3p6XWD1wTw3YSPJ1nFs31ROsFqAlGrYS5l0NuaYDewSlo1MUHKnYFrUwk2L2mhHNVQtVZDt8wL6QxJeDQdgdGLPoHoe07SG02YRkhMz6uLTuJUaNFhZps148//4ibR90Mr+6hKNmRAeOgCJTnMMrjaB68x7RA/pLjsDGM3QnSnCVxphkAwaEGdOqoR9eubHDyPI6v0yJlYxJ6c7ZrVKumeM7LC0vXrsOalUsoMAjC7AWxePTeIShI2oZbR49jm9RAVacC/bl/9/AwaJoa8OmmOPgVqvDs0xH4hQzfuy8kYpKPHiMZD1NIb7QYAtA99ETbRkNbLYHmHaGBWE0hwfMZaZxfI7tFZCYSNaX5f5rbNmdawQdRDfBMajqeChLze0wzyMzCvf4BSCcQ28mMUR+VFklKKz7y9sMLWVlY7u2NYwf2IjAgSBIlKAhqfxk9DDlrGObOlUeNvg3XfP5NpQQIO2fhVDTd/f6GG6CKX4ku1wdjzfIi5tiHQ7vvKGfdPECt1q98z46eCngq8J+rwOl80lxboP+5wlykC3ZtaboDZReKRat3oCYMbwsYjzL5+Sbo5JUM/0gjMpMIsDiXZSlx4J8vkzkTVYKmBDj5ijC0nHAvDsx6A1fO/R4N+w+sMZ1AXPR2KhA1nNn68pu5uHPcRHhfG8WA9ULYvDjv1joC+T8egqlzKEEKz2FLeiWgJv6hFCHuEnBjOgLVoMNHBSHCEY42K7LRqbQA2hYtsWjYULz98Swk0KX/mdcX4833f8R943rj2r7R+Hb+Qpw4Ho8jHLTPZBsxxC8Avzdvg+/itiPHosE9/fTIvF+DxNdL4X9MhfZk0ApowbGHTNxq5sL50C+tL5m0FTmFmE//NAtBrZLWHVK7U8Axnp+d63w3LAIGDtT9TSPe6f6+2GN14IPCXOaLeiGGdh4HreVI4TzaTga2/xwcgD1c1JjkNPyxfBGGDhpOVo3pC6VWfNjAF8TIaHTrWFzzyVeVQJqrXcf3N14H7bGV6DsyBIn+3bF4QQ70G9ZzRs3gUX1epG84ntPyVMBTgYurAmIm2LNdehWQjWzr68zrjVETEVJ3v9gEg3pm4vAqK1Z+lgQvgpbwtl6I30/GzaxGM3p9daMPWEDzltg791OseOheTDqYTNPbsJP1kvy+KihIISawkyVSc8D+i6+/wF3j70LA6BhYk/PZDlVDwego++4smLemw9AsCMUHMwUec7uJ2Xr5NcUmIVowCD2MoKktZ76Cxo3BS6+/hV69eyKPcVP7DyVApzbj5tEjMHrMzfRZI3N16x3IzMvDOoKuO9o1xc+bNqEwW4V7Gnkj600GvC5lHNTvnD2zsT1KFi2dTKAfVZ4FBGt5/Pkkkpe4LufmJNNUGKL3xsxIf7yYkYluFAzc4q3HjtJSvMs2Zgzbp/0J1KIoLvi2oAgrCfa+C/Jj1qgB/U/EY9ZnH+KeSffR/8xK5k6DAz//AL+ohgjrLtzdnPMTrn8xnFgdi7TlywCKN0Kb0INu9cdQ3fQKvhv3GPRck0dMUF8vXc/jeirgqcClUAFXRk0bFwf10aNQpaZCxRQZxsdcCkv4b50jBXgOOik4wsNhb9oUllatKn0m/mcYNdme494ZTdDFOxXfvpgEY/t+iOjSEce+/wFKzlSZ83LhGxwMQyQFBx98BJ+oaCSsWIZIMmo1+am5igm+W/gdxt40Fn5XNaKSkzlrOaVQE2iUhWlhXpsMBSOgbMztpPDytJuabrKSfRiH/mXEpNYLN37OvBFUic2fRrS+QYFIS01DKaOarujZFdeU5zJs3YxCJnRZGGoe090CdbwF+u0WBI4PYB5nITb9WYyDds7NidamAElSb1MM+Qtuj61OFxApYqDEKJg/26LfNwiHief0SGY2Xg8JRqSKLtcEXS9mZ8JbY0QH7nsthQbrHUq8lpWOuVSBJhDmjUhMwoefvIf77v4/muBaCS5p9ut8SPHfU3NpFYBt56ezsOO5h9GEId7+o4YgdOKHEnu27o2XEffXeug8yQT/rTcwz2o9FfBUoNYVcAVo+g0boOUftsoSMRft2S6lCpQZjbD26AFzz571BtjqhVGTsz7vfbkJeoRm4ucZCfC7fgoGzXgVK6aMR1bs7/BtbISBvmdFWVakJytw1SdzEUOVp7wJClnQkRsJGjJ3bqPX2o+S75d4cQjV5+Zdm9CzYy+YGA2l8tPAkk7Vpy+DxKNMUrFtqfkwbySjxlmySuGgNVxBkoVFBaARxrpiE48v/PvFzd4+PDZn4yz8C0lDxOXHcy9U25GdIwQMQDS92hiGgOTkUtjNdtjYqpSOIQASQWBFqIJ0W7XwVT6AlikEVrKF/wsJxSRmkX7DKCuO9OMRglqHww4zAeXH/AtNy2G/ZrBioMkba2x2PJqRgZlB4UhRmPFcahZ++Okbih9ul0LbNTwhB33WhPhCgmoVFh3SGwzru+alF+GnPYLgJqFQdx1DH7mGEpDe9/b/kOwXA/3eg8xS0EpGuq6bx0ftUnob8pyrpwKeCtR1BWSQpkpLg/HPP6FKSanrh/Ac7wJXwBERgZJrroE9lKNTFV28C8Wu1RtQk1qfLzTBwK6Z2PlHKdbMz0CH+x/GtjdfxdVTohERo4deTxBDgLLmiyQkJBsxdsMOGILo7V8RIZW5dw++H9gdXmSHoibfh4Fvvi+xQgL42OmR1qtnb+zYsQO+XcJgDSAkyrTSmV8HwiSUB5FZ+5O+IGI6X6Kyzs8mPZ8VHm/OgTgnFHPCO5GfcOZN2pOU2hgDQ98DfZFMGnBOXinu9DMglGCMvV7O5QEf5JuxmSKCcb7eaM/4qSTaeXxGy43RPj74jb5qO1mXA6xZkybN2CKmhxxTCkQuqvMUlcg6sF8Cuf4xzaudVOzMmXAwCWH/x2+j/chwrN7kjfJt+wnyDJ6szzM/hZ49PBXwVOA/UAFXZafm+HF4LVzoaW9eTs8726KFI0fCRveH/4SP2skZtc6ZWPd1ATb8no074w5iyYSJCC3bjv53NUBJno0gQoMjR4KxdVE8bl+xii1QtjIrwsKT1sbi16EDoSXLdP33vyOkYxcnW8ZBea1Gh28XfIuxY8bC1CoQyp5BsG7Ngp5xVCXM69TztkJ6qVVMftX5pSQBNLJ1MhRzAnDB+J0dKFSSKROJDb1orvs5LTdCecR380uRRzXqBKpGY0tsiCG4MtBa5P38InTyDYTRXogeNMNdK6xIaCIcbGJc19F4XHXVQPz193LnHJo4G4IzKXaLIFCA3l+u7Alj81YYu2abMzSYrJuI79q/8Cdsn3obimgB0vnaQLS5MRJvveCAatcR4lxmoTrVFyc3D6NW55eT54CeCngqcJFXwBWkqdPT4f311x6QdpE/Z+d0egRrBWPHnmTWLgS7Vq+M2l1UfTZ3JCH2+yx4D7gNg995D6VHd+DX28aj4MRxSd0YEamHksPxpapI3PDLn/DmML+UQlAx9B6/cjlMwSGSSavItpTakfxup0pSRbAyeMhgrPhnBQJubIbSxByo6StmOVEIra8ehfsy6QF29uDpnJ7cc70TQZQf0+Nfi/BHDyosLRQBJFkVCDBosZEeal+TWXsjxBvpZRosL8xHL1pxlJaVYCT910rYXs2liGJaLtk0KlDXxq5C9+69TtbJmeZARo01+25gD+j4c/9ZXyCodVupvkoCwLj532Dj/x5HhyvU8G9kQpMWZShRe+HtFwn2dh7iPvQa8QC1c312PffzVMBTgcugAlUNbn3nzfO0Oy+D57WmJYg2aC7B2mWf9Vmk8sLYR5vCsWwrjmcEo/tz/0O7EUOw44Fh8OnaA/lZaqokmaPJGSprZgau/epbGIOCKttHuCoU+bOT1xEgziGBEQ2H5Tdt34T+PftBGW2AIcyHbU9GI8XnQx/kLak+7YypqlH6Wc8XGsk0zoApMI3eaLf4GDA7uwC3cs4uiOe1il5z+6kOjSSIbaJV4/ucItzlq0MmBQSJVjOuZKxWAP3PvqG44ZX0DMx4ZTqeZsi9FCFF4YFg9gSjJqom2L78+HiJRfNv0vTkzJ6Ng69f9+uB5s1yEd3VC2omJORllqLQwHitP/TQ7D1MWo7xXR7D23q+UjwP76mApwL1WQHXtAHDxo0w0CTcs13eFSgZMAAlFBm4grXzNbNWL4yaFCFFoDby3mhoNu7CkTgrwsJVsAR3g8qchFLGGZkIJOzhzTFu4w6qPDXSMy6Z3ZL9qWRyWyGNrHwbIZvwG3NwsJ/3nTjpDsz98isE9GgIq5ZsG6OcjJF+KNidCnuuU7l5sW0cOSOoBEUBfvgu1A9rbcWYn2vBqyE+WEfvtPmcR5tKJi2a5rcfF1rQXqPHNcwonZdXghAG2f+ZwRB5sod/5GVjwvhxXP8cWFk/NUGa6mTL0ykicN1khk288ZgJkL/u3wNhkWrknUhDxOCrkLd7D5r21uKPZUYodhzgc6H3ALWL7eLxnI+nAp4KXLAKuII08cduwIcfetSdF6z69fdAQg2aee+90lz3+QZr9QLUnKpPE+5/NQbdApOQklCOaOZhbl+ajZxUiiTDrkF0u5aIvGYYAkUbjjNpNVlyVAIZFQybCGYXakqbGJhn6y+Ws2xXDhgEU8sAlAeoYaU1h6mBHwoPZMCeTlXmRbbJYQnhNO79IDQYg9lefLggH305DtbH6INnsnIxJtAfUbZCZDPINJHCid5aHXLYFt3ANR8jTv2EmaZlbHcOHz4YP/zwCzRasmgUDqgoIJBQv4RlZXGD0z9NFmmIcsitZXNWJo798D3ymWRw/K8lCFMwa7WVN/74Uweth1G7yK4cz+l4KuCpwIWsgNzylGZ6+R4qfNK8Fy26kKfgeax6rEDB8OEobdlSAmtycLs4nbpm1uoFqEk+agqh+myM7v4pWLO4iJYWDnS9ORLZh/KxdF4J7j54FFpaTJQJkMYiJK9fi6LEE7DS2LXtuDsrsWrVWCGBQoTDREV7LzH1BNq2bodi2lYY2wfCxpaqWq+FJakQ9gx6Z1xkm4ZzaRydw1SqNR+jgnNjaTk+pnntp8H+tOKwYS+ZsUi2O7WsjZjDM6rKUUDrjhwCM73RG6/mF+D3nFwMueoKfP/Tj/DyCWAPlSCNNhyCgBTpC0IZ61SeSldVtQrIQC1t1w4cnPcFw9h/QqhfMVKPFyNXwVm5kKbwOnQMDoXOY89xkV0/ntPxVMBTgQtTAZlNE0BNfPksXQrd3r0X5sE9j1LvFSht0wa5gwdDTVJFsGpVZ9bq6gTrDagVKU244+mm0G/bi42xFs6PNYSXOR4Nu/ohZV02om4fhyve+QIOzkXZzWbMv7oPVIf2o9HUaejz/AynNLbC96saUJNUjTSqJSCkkT8ysjPQsW0npKelw9Q9BA4qJVW8r5Vsmi394jIg5OlyLg1UeXrjCaMGMUYTXmDiAGPiMdxogJGYqpgzaN20BmRT+bmFys4+ejXKOLNWrLRhCb+/mp6J3n26Y8lvv8PHP5DiAhv0atGipIKU/xOzaU6nW5fKye66oqaSqZsCSevWYPGwASj3DULbEe3RJDRBap8mpiuxbJU3DPsPE1BSTFChIpWPdiFUn1ZHIY5mLUFi/nKypsxHJXBVkXnUKQMR6XMtQozOpIVLdTPbcrA39RvkmHdApykjI0p6XaGnujcUTfxug48u5lJdmue8PRW4LCrgyqYJkObgH85BX30FFXOVPdt/owIOzs2n3X67BNTkFqgcN1WXrFq9ADXR+swrM2Hqm80RePwwVnybg4YjRyG4VQfsfeNVBPbpheHzfoDaQHBBHzWxZe7dDRsBS0SvM38AiygpBVkpWQWamZeFTgx0T0lMhW/fcFjSyKh5qQnSzLCkXjxATUPGy0bmq5uvj2TJcSOtMbp465guUICxZNd2UwhQRAB1K4UCIfZSGMgKfl5sZQqBhnmkDmwliHognYkODcOwcf1GhEc0pLEtQalgz0oYQE/1qKDUFArS9KI5zDao5DtHubGS/faTG48jgFr24YPY9NKzOLF6JXqODkeH3ozhogddVqkBn8wkM7eTQE0OZRckppSoAJxPoGal9cjulAU4kPEz11XKdAUljXuV0FE4YdCZoOeXBEbL/NDQNAphXv0vqXcMszUbG+LfR0r+ehok006YtivO9em4Pi+uz0iPQBtthhugqe9E+Oqqe95dUgv2nKynApdoBaqyaXa+b4ZzPs0TC3WJPqHnctr87EyYMoXv0ZrzyqrVC1CTxQSj7m2EqJwjWPNLDvp+9Bnajb6VH0RaHPt7qWQLMfzL+ShkuzN91040Gz5CKmPVLEp3tXX6hAn2yC4Fmmfm56Bj+/achUuBV/8IlCbkwkBH/9JsxkilFp/L01On95Fn0sRBR/n5IYQfykfY6vwoIhivZecgkqBzSoA33qGY4LCtFB+HhKO4uAjZOrZEc0pwl78B0WyBfkuw9OSJJDz6+IN46/V3YTmwA1qdAYrfZwNrvkaZ0kqrE6ppc8E6c36PEVfmJALWRj3g89pnKLeQgWzWDApedPJmLzXjm54dYSg8AR1Ngn1DtXAwO/SfzV4w7jtCZlLnnG/jJhN05wOoWez52Jf2Iw6k/cpHItBmTZSMzlKSVVTxZ8GQinlEnZask97E2/kXDvzQwDQSYaYr6vT5Oh8HM9uysOnER0jKXU8AauNaWE8CNaH8FT53Yn0aCkH0fD7F+sQVrlWGoYnPJIK1lufjlDzH9FTAU4HTVEC878ktT8GmCaDW4L33PDX7j1XgOAUFWpIqVVm1S55RE0CtSGXC7Q83hf+ROKz5qxjj9x+Bf2AQkv75C+umPYTi7FTcd2Qvti1YiY2PTcG9Oc7wWjGvdqZNBmoOMneik5eVm40OHTogNTENpqsiUFbC5uLBItgsVtiL6jcUVwJpYk18od8RFIBmeiOWMPbpFQbPH2fiwjyyiI8TVIbwo3kLzWWTLSW4lWpOE5mVr4sLUMRkgnH8PVR63J+ZCq3Bhi+fegAR6XEoT1oORWCFGS3Nast6twCaWjF7SA6i23hh2L0tYDkeB11eOhUc3K8IKFR0ILvWDLprbwG69IS6AZWyTCRY//YbyNi8Bdlxu2EuK0WWMRomzqiBhsRy6/N8MGo2RxH2E6DtT11Ixs5Mok+0ZZ2soAAwYt5OADUJzLClKwM2rUbkmAq/uR5o7D0avmYV1On7oMkluCQrV2YMgMOnAez+TWHzaYQyrfeZLqvz8nuLPRdb4j9EUt56rssqrcu5PqcRsYrrcwI1sVbn+oSSWazPQTa0gc/1iDJeC1N+HjSZ+6Hm+qh3RplXMNcXyfXFcH0NeY3pz8v5ew7qqcB/sQJVlZ4CpNkYH9jwgw/+i+X4T6/5KBk1AdRcWTU5taCuwFq9MGqi9VkAEyY/3wze+w9i/c/ZaHH3XWh7+x1YfnUvFBA7jfpfB0T2cOBY/BBs+20/bvplca0vBhmoiRgpFSmJzKwMtCNQy0jJhNewKJQVWmFek875Kn7oO1z5rFo/RJ3sKIkveQrCiuMR5odp2MZblpmHt8KC2PIqx6NpOXiY7JWxpJiZmzostNjQnSAtnK2vYjJjr2cU4tkgH3Rga2y/qRiR/kVo7MuDNScQNdEhjbeXtxmLVcvz0PqmCQjr+BcOf7kCXz2RC38vH0w+thM+GrY5i09IbVDHjrlQbXtHEFbALt58LAS6D8lqRjfFn/dMQllxMcyFJSg0FzBn1AeGw/GEBGqoRb6qnFnPNU1KiauT+oiDOMqt2J30JcHafAnAlCsIvl1YpqpATQY1OtqWROTo0CjFgIB8CzSOEjKFbN1ylkBiDKmC5SuLX1qUmYIojugIc3hfKc/0Qm42ntfaoy8hrWATGWBe+AKgcX1O8ElgVg2oOYGbgddtdKoBUZl6+JJ9VfG+CtJw0hq5Jtf1ObzDqaTujtLwPnDoKCzxbJ4KeCrwrypQte0pQJr4ip41618d13PnS68ChyZPlkZTBFATX+dDVFAvQE0wasKeY+qbMQiKP4TfZqUhuGMrdLxnKkoP7kPY4KEwafJh2fkW/vlwD+yKEDQaOhRXvfeJ5KV2JquOk0CNmZhqftglpyWjbZv2yGPepWl4FJQ0uS3+K0WaZaq3TeoTKph4Sh+0xg2RUmzG+1k5+CAsBI15zi/k5aA/wdRoNYdUmTqwiQDltex8zAoJQj5ZtfkMdm/MNvFDJi3yA4rh71cIv6hy2JrRDje6L9SNuqM8+kooQtsSCeqltapShmP723s5r6bD9kX5uOrH3xDdu9epErC2ZYcWQVl0BLYVs6HJOIa8Xf5sGVuQ5KuA1Yf5qFlsFwf5YldaKOxkQQ0c4Ddynk7i7cSMGn+YmFp3QE0cNjl/E3YkfoHcEpFFKsbnKtgmobKpwqgJEBOZaUDLQ+Xwyy+WWqNKAmCVhgBHBKLyhSQBNfGdfwXJYE3kpZYZ/FBCsGYO7Y0y9YVj2A5mLMKe5K9Rak/j+Qo27fRALSbRG02P0mKmpNTZ+iUgF+uT1iWAaMW6Tq6Pxs/idocpGEVR18Di344MGzNaPZunAp4KnFMFXIGaaHsKkGa1WtH444/P6XieO126FTgwcaIE1GRWraqvWl2srF6Amuyjds9LMfA9epjjU2lo8+QT6PPk8wxi1+P3W0fixNJFsCk06HrXzdj/wwIYG7RGq9E3IXHjBtywgHNKQvXpxlZCFKVy61OF4wlH0LZFW5Rq7TDcEA1lpgMlfyZIOZf1sUkh6AQUanpwfBXVAAUESK8yPeCdiFD0ZIvqHQapZ/JF/yTTExw2My8Ab0zPK4SG7csXg3RYZ1FiQVERHvUxoVNkHrxCadrblupYoTyZshX2oFaccRKtvwqFp4BR5n3sAd+KucPLcef7PXH8+7XYaxiJ4W/PQDnbp0rOd0l9YnmL/QWlfzwIvX8iLMRdhZv1UN0eAVMbHRxqI178H5mtPUdg5+NoCNSMoiMpal/HmL8IJQAAIABJREFUjJp8Oidy12Bn0lwUlR6V5reoFiDrpJLanc6WoBYh1iC0OGhHcHwqGSYB6AnOJJDGffizSmKbnGyaYJ4Em8biOr9XgDdwxs0c2BEloYNg1wVfsMsjLm0h9qUuoEkzY824NufsnXN9Cs5ZilnAhuYwtNyVC5+MLK6Z+0hrEmuTgWgFCCXb6gSjruvjegnYynWMFgu/AiWBvS4oGL1ghfQ8kKcCF6ACMlATIM0VqDWZzXlgz/afqsD+O++sBtRkX7VLvvVZSB+1O55qDJ8jR7B5YQZaPfII+j33MhbdPAK25INodQU91Dj1rg/wwrbfUwhCwmErzsOIHxYjtFMX6UI4rT2HlEwgDG9V2BW3C53bdoamBfmr/mFQJFpg+TOxXoCa3O4UhrzvNghDIL8/nJqK18JC0UenwhfmcvxJD7SvoyIQm5OHdkY1VtJyI4M2HC8HeeEwAdwLmUWYGm5En3ALvIM5WBbjwNrAYeh3x+uwBDWGhsICNsEImsSHvHDi4PeSX2Db9yxWLr4Fg2/3Q9EvX+DzL9W4f8caaAymUy8ssp0OSylUvG35k9PQcOP7aNFDiQIKL6zrqEpt7wf7wAb4+BO2VXeSeRNsDVW2PkRogk0TUG9SHTNq8skVlCbiUMavkiLS6sijVYgwK1bB2xCBlpoeaLInBbq4NZVAjEqANcE4EcwoNXJrkKBFADSqZp2sEwGMDNQIWMsJ4koDu6E4aBAcGv8L9qaTVXwAcanzkWc+gFJbHmycBVRSVevHecD2yv6IWLsampQDThAnQJq0Jud3AdicbU/nV+X1Ud0rQBuBvPTFNReFXg2zX3eUcVbUs3kq4KnA2VWgqpBAMGoWiwVNP/nk7A7k2fuSr0DcHXdIQE1uf7radFz6QI0+auOmNUYzawo2zk9F1EMz0PbGG7GgYwt0uiEMna/ykhiDA5vN2Pt3JkqVEZiwfS8/kPiBI28Vfl9Vn2nZnkNYU2j4wbRyXSwG9R0IU48QlHXwhSqVM15/xNOa4sJeIxKTRgsOdjHxecNQ+JAZuovRTDPCwzHcoJbamb9k5eOBMH/kcR5NCAz6emlwR0oepnNWrR9tOJ7KKgYttTC9uRU+gQQqne2g+xwavZggWXGIVm+5YBulPqT4v1gk75BzPyyL/2H81KMYNKE38MtYfPhIBsZu2wI/Bsy6U9Pu+ORjrHv2Edw8lGKGmBzkx6lQ/JMDqcMa4quEMGi37yMQpsMbgZpWYicJGs4jUKvp2SrPSYZy1Vwod//pFBkQi0ggRmbUTrJqBGo6Ahkd2SZ+Ob9XzHMRvJQLECOAGpksAdbMgQNR7D+Q9Tylgr2wV4zz0cpTD0P5xztQJu3mHycEaSyyYNFOgjSxPn4pBBCV1sc11bQ+Fqec16AApoVht6DUxNa4MBv0bJ4KeCpQ6wq4AjVZSCBanx6gVusSXjY77pswQeoEVhUUyOa3dbHQemt9Fqm8MfaxaDQpTsDqH7Oga9YRZaUW+CuPY8A4sl78wE08bMGOv7KQHm+D0aBAx6mPo/ez01GYnARDcAg7OfxwJZhRVFGCyq1PG1uKGn7g/rLoV4y8/kaY2gUCbTh7lFOGkuWJBGoXrvXpmqo5JywCYTQxvYEq1De4jjv89PibqsQvc7LwToNIrC/KxQHW4umgQHySW4hMiiIeCTDgVzqJfFmYgd866hEcVAxHSwd267qi8xPLYZHsG5gSwFZkZVNbrpHWFki/GbFPxaH19HUIjuQc2+rx2DxzB+zDnkYvIRSwikF20UrT4DjtUY79NB+HVq6Er3ceIlv7wrgrHV2H2FGSo0BBrBqr7X7YnmCFjR/6SoI0C69GL7JqAkbfU4diglpd5LHzoFz5BbUGtB+RQYwE0mTWyck4qchYKmgOLECMBGSEoED6crY+BTiTGCdeT+VsP9q1ASgJuJZgxsng1tem+OEFYO9ysmsipUMonytauRJbyLaoWKeWt0nrE2sTaxRsoev6CNBkRk0Co2yVGxqgMHA0bLpG9bU0z+N6KnBJVsAdUBOMWrNPP70k1+M56XOvgABqroxa1ZSCcz/yqXvWG1ATqs+JzzKGaF8c1v6WIxl7ao1K9L4tEjEddYhnUPue1QQpewrQ8fFHEd6dijV6ein4IbNi3CioQsMxbMFvCO/ctVodnL5ep0LZ58ybg0kTJsGvLc1uDRaofAwo+UeICc4/UJNYNP6nTBhikUl7KdgPg2mnMSYxE1ea9Hjc1w+5NK99Ka8UD/B3yYzIWlJgxtOhvjhAhu13swWPedMbjODhFd5+b1MLW56lsLewM4bLGwEzsjjLJ6wbxIiZNGnvzPEUXJpgl0TAkzUZikxmft6hxpBv/qYXWiiw6QEkz1+OHZqRGPYmkx5cYgr2zZ+HTc9Mgzk7k95rNA7mDJpvz0EY2taKkMA1KN6mQN464IM8X8630dmDLI94JMGqaQjWHr6AQK187yrgn885d3iEAEZ4q1V8VTBqkohAR5BGGlKlrwBqEoA5xaxJYI1iAiejxhpKQI0CCSY9WLw6o9hnGFugrFk9bOVrv4di3XdQFKZLaxOgTCGtUbBo/K7lbQRoYn1KPVk1AdRqWp+YQxQDfoIxVDqk9Zn9hqDYxPQJtZALezZPBTwVOFMFqiYSCEZNsGniywPUzlS9y+/3e8ePP8moyX5qrsrPulhxvQE1waiNI6PW2JyMHftCkbZhO1oPCELnK71QnO9AVpoD8buLULg9B61ffAXdH3tKWm/e8WPYMesdFB89gvyUZHR84GHE3HATtN6nVHpyG89KHzLhN/X+B+/iwakPw69jCIpS8uE9IApFfyfCln/+cz6F9QYNMOBDEPCEfwBG+hkw4ngiMmle+n1EOJrwHBP5wfsz/dya8TN2TaEFdwdyPo9s30d5nEUL8UEgZ84eodjAyl7t2oFWFLdzwJigQHGvN6CZcj9bj/yQlnzDpGm0U86ztEGR2lrFc4Ctb2DR9wRbH33A9iRvi+fM2j8vYvZ0G8IIYHU+Xmh+481oOmwENCYT7ASMBUcOceCcjsv84M9ITcc/U6fiZu+9COxPAJMEbPtVg3n5/9/edcBJVV7fM2V77/SFpfcqSBVBFBRRESsaK3ZjNLHEbqzxn0QTYoyKItYAKoKoCCJIk957W9o2trfZndkp//N9b94yrKtYYJdd7/M3zjLlvXfPezPvzLn3nhsONdPAzc1G0BJDxXtnHRI1fMOUJ9U0UmG/2hRA1DRJ8xMZkhitOGk1TdVpqe5Ify2XuqeaVk3UNJFRBXdVvLeiLOoCVESNPhmft5+/jvcfhnXnEm1NYqhpJhllPJqkKaWQN0XSdNrTrxiSuB1T1ALj4988J3w00wWNdX08D4vjJ8EVwhSoLIKAIHBCBE5rojbsGoScwR+VOWvgfI/fG7KccgQaOVGLxHUPtEZbZyZWb26Ooyu+w4gbU9GpH135NzlxeFsZ9mwBzrjjLmz54B2Me+9jJHbtflwDwTf33oH0OR9jwsKViGndprrOqlpRIwkKYlrr6Wf+gscffwKJI9NQvCkDkQOaofRrKmosAPVxZJOq6dKGZidp8Ttv6K5URbiSef/f1i3RiiTqUk5HsLBO6NH4eHQIs7K704fpJQXoHxPPRoEqHGHK8+6oGHxTWoZBnEYQyovpH7ILER7kwJw+QUhsS57RgkpI/EOw3f644bml5nj6Q1DbrK43U0RNEbeix1Ax/yN8tXQsLvz3i/Q8YyK2gia3i67GR4/swsGMKkR48hBNonXGux+hHcma2ajh4aD3qrJSZG36Fkf+fiuNVV1ITSpFdE8LKmb76KYfiplFYYgiSQwjhEpRu/UUNRN87/Cw6cTyDVOeu5ZpPnpMTTPSnlaVDiSBUURGqWpWpj01kdEEzf+337KDeWOSFr/ipNRPdkao9KDPQiNLe3M4IsfBFdrnJJ0hP3E1e1fDMu8VWHL28Hj441NxKbKm7gNiM9K6Ro3a8fGp7k8jpetTappWDFV8PO/98bmCO8IRfQXjbPUTd0xeJgj8dhE4rYnaxQ8gbCS9IA8vRMWLaoqLLKcagUZN1NSszztfaIe0knR89tpRRDUNxvm3NoWDalpOhgWbPz2EqF4jMOGzeSjYvQsRySkI4Xgl3RbNujQ9oeBH7DnUc25K0Spf/Mf7/4SX/vkSYoelomwDx0gNbYWKVbRwUK8pIRFhilHZSujlV/I1XYvGC6Ga1alI0pjYGEyMjcYuuvu/UVCCYXGxuDaGxfluK6bQTX6Ty4MHOSpqP2d2bqgox53JccgrqUQxL64bSTSncEoBp3Tik7FdcbFtF9DdjdJDSbA/uw5hnBrgVYPnydZ8quvSjEFt2U/YvMTKljUIi+/NRLN7Z6Dt4AGAk0bA7FLBwouw4dWtqLjgCbRs1wwHv1mMMx98VPvUbZn2JkI4/3Pps0+idHc6ehDDNp2DkLt9OZyfrcZZ51eivIDlfrNZN1cczQkJrF1j8PHsXbg7c8ep/mzo9VvWf0E1jWphcVY1UdNpweqaLT9BMxUnXZ9mKmnqnucQCZqhpvHeJDLKpoQ1aoqkgTd1JMvp/l8ReRH/rrvGAsuC12FZ8ykslcXHxadTnib59Ctq1jBF0hjDcfEpJc2Iy6i/U2xWxaZuTH3646NzG0pjJsEZzDICqreyCAKCwA8jIERNzo5ABBo1USuhBnPbM23QJ5SpzzVudKaSltAsBDtXVqDc24rTCPZgwtwvkdCp6wltOGp2LGoyx4uPR3V9skj8+huux7Rp05B4flsULDmI6BEt4KQNhns51bXeTVB+oACuIwHD2X8OafNnGpU1hVexNKpSiu21YYrt6qQEmsECc6hIZXNc1blxMehCErSj0oWV5Q5cGp2A8yODsclRhR2c4Xl9XDTSqaqtZl3aJyWF2M7OzzYd2+KlF17AuHkvwBK1noQiDUXZPRH95gyd5jTGNpmtCozaz9YMBFRdXDqw/xJ8do8HZ/73cyS0amGQHPXf4amo+OSfmP5RU1y/dJ5OnRpc1Yd9s6bjq+uvRauekWh3Zgw2f5mLzKOhSGiTgjg2doyL2s86OY7g2glMXRCGfU76rDGd5qVa98eMk2t4+4NfCyumG92ezjKjbsuvNlnMujSV7tSqE2NVapOu3fITGp3uJHExyZomacRR3VTnLIkaqDipxLWPxYVue0s4wsfDGVR3jQWW2X+FZfN8ciqnvy7NiFHFp1VCFZtO6ar4TAIaGJ9S1/wEVBNRVcioyBrPG536PBZfVVBn1qpdzeaQ1vItLAgIAj+CgBA1OT1+O0SNPmq3PtUWw7tkozTPjig2IlbkeXBohxNbSQrCh16DMa9yEoHq6uSF8+f4kegPEhlM3s6t8LHQ887nnsNHn85E/PguKF18AKA3WeiZTeDeXoAgFupDqRK0YHDszSVhK+XIRVUcbywGZ+OFW5MYc/g4L3T+erBjDh/KLR9oR0PR2+JjaJNhwwdU0I4wdZgYFIJ+MVHYU0JlhK8ZHBqNvpw40Jnqx3Yqa7PLHOgVGYHPWby/qKJSbzs6Pg4TJ1yEJ595FklqsPpdXeBLy0Fm5cWwpY5C2ITLtfVGsNqoP9dqkjParmlrD6WMhfs+JlH7B6bd3xpXz/4QzpJSbJ4xW094sHkqkTnnddYCOtCVnZ9BKckkW1RfiF9wdDQ2TZ2K0IwN6HUeHftLPDiyowzFJLSxHZuiXWkxep1TTK87YPMnNnxdEYHDLFRTrlz3ZdSRorb0fdi+ncpYnQaBMTs+dQekn8ToAntVv2UQGKMuTd37SZoiMOwI5QGrJmmqhM+nZ24qMkPlSXWB8BwoD70EjrCL6+xbyvrxM7BsW6jaYnS6U8Wn/dIYn2qMUATNyvS5EZu/Rq06Psaj1UKTqKkcuT/tyafUKK7A+Hw+G0qi7oErqI7Tu3WGpmxIEDg5CAhROzk4Npa1NGpFrdgXidufTcOg5lkoPEL1i5fDwpIIhKa0xrppqxE//AqM/PvLv+hYetxGajR9wReYP+l3WNo8DR9sX4O4sZ1RsZ9dkqtpB9IzDraBtAHJdMK1MQfBLOC3tlB2H1a4DhXD7WDqq8jJ+ZYuY4i7SdzURZx/21nPpIrTqyIsGGwNw7gqK1qxMDuJT6by8a1Mpx5g8X82FZovOUWA1XAYRXf5h5NVpyQbAqi8fep24sXCMo4OcqJYufvHxuGi88/FxRdegMFDh6B5Mw4L58B03wvX4fC6pfh6Vwjrvz2wJ9IPjqlUt9eOo6VMYQYs6kukSYyTcTBFSlcOt8eG6OY+ZB5mVy29Xqwc5N0ypEQTRlU/l1Pk4zz2IPRv50KvHqzH4pADXe9GibCI+9ikOVVJXtS9nC0ZzKlDdhawHzhoxxvTI3HjmDJ06s+5qZ8A89LDsKosFJEkOLfQlLUuFiu7Ia2L32JMnHOpi+y5736SVq02mSRN3ZvkzCRqiqBpIuMnaVpRU4SGlNckavrMJGljvZ/T1oNEbQLVtfZ1ER6ss56Bdds3tD/hjxWtFh6LTytp+uYnaVox9JNPHZ9J1EwS6idpKj6d1vUT0YD4KoLORkXoxfDY6qfDtU5AlY0IAr8SgYZN1FJgGzEAto7tYQl3wLdnFzyrvoEn9EwEncFsy5E1qFp50I9QD9gndIClYDdHCh6G9ayRsPdMpaLPq9nBTXAv/Bbewh8AM64lbANGwNY10dARig9yO0vh3sLa6BqL9cyxsHHT3jVz4Tlo7J+1pRXeaZ/qn8jGwsdHj65eny9vD7xqfTt/aAd+5UH+GW9v1ERNdX1e91AbpJWmc1zPIBz+cilCup+LtueOw+LHHmT34QT0/8P9On0ZkdLkZ8BmjJDyuFl5wwvS4j/dg9lz52JyzmHEXdoFTl7UbTtK4diRj6DmEbDEM2WXEAzXfipplXyPqm+KD4E9MgTuMpK0LAdsyWHwRlHRIInzhqurpQ+JzHN2KyjH4s7JGMb1PXTAg4GchXmIKU0rCVoEh6hn0tPs6cIibC6vxI2xkRhK9aYl962YF9FPKXu9yE5K5a2fmtoKv/vdtbh50s1o1bK1ESsJVRVvtkPbYL2tD7J6p5JQeJFAqw17CBUWZVjGptWCrONripSYmJDqRnllOBwcPbWHauW2GcWYcDGVOp716mIf28yoyVPZPWd4DLakN4Ejz4phVzUDc19aoXOzfq5k/27sZlNHfMcEdOgVjJJML5sIrDhaZsfkiUW4vJcD3cc4UboR2L3UjndLI9lMAKY+60ZRs66aAduSt2FxcqanMnxVlhwkklamZs3UoFabNJlR9VvHCIxBZPy3aqKmSJofGE1mlOrEe+WMzJvHGwVHyARUhp77s87HX/pi+9wXYdmygMfJZRglq/hCGRtvRnOEXyWsjs9PRrXqptQ0xqJiM286NnVTJ0LN+FgK4IlDWcQdqAqSDtBfeszkfY0fgYZK1CydLkTw70bCGsXvhsDFUwova7ct/ToCm95D5ZRV/mcvRshkvv7wd/xu6M350cw+BS6VB+B+7e+o2nv8w5ZB1yLkkn46k1FjQ/DtXgjXe58dR/BsNz+L4J5MjHy6HJaR5/r3rwietx+Dax2/gntfieCrB+ofpscvLvg2fQHXlIX1ObUbjZqolVqjcOPDrdHBm4mNGQOwhwPCI8PpR1NhQdrFl6J0/x7e9mLQCy+j68TreJ1UxIspSDKRE6VBtZEtZSGPpwqO7Gz85ZwhmLz7MEJHsYkgpArBcZGwFZLM7Mw1/Kf6Jem5it7CCng5KomtmPDlOhDaLIpu/xxDlRbNXCSZEZU1H+vGLJSjbqEKV8RtvM8RV31K3ehW6EO624FWoZFI5oVyN+vOvq0sR/+QCNxO65DuPMlWuixYWuXAl/mF2M/UZFPO9vz9nXdh0h23Ip71aip36nJVaO8zm+pAVP5oefTBuI4foAFMKo6+gManq/H5jHC0u+FOdBzeBVjzhsG+1GK2m/a8DohSHXwr+UvmKXx0eTkmPHKOJh2wR8DX8yaj05U5PmvWdFRyruc7c1JxyzefVX8OKmnP8emVVyJz7mwStWj0Oz8RyYPtsMda8NHNBdic7sakLhXocQbVwTwvdn4bhKnlkYjhcfp9HSlqtnWfkqhN43isouraLYPAGDeToFWnPhU5481QnlStl5/EKEJTraYRgmrFSalOBknTZI0KoyN4AspDLq2Tq5F9/r9g2/wV4CL5V6lPRUJVSlc3Dvjr7qqJqJESNdK66p7P67SuImt+wuZXCzX51IpaYHz8zFA1LQ77I9Of3/cmrJOAZSOCQANAoEEStdQLEfJ7kqBgfuZzdsC9aCmzNQS7VT/Yh/WBNdIgQb7aiBq/03nxo4K1AG4anyO2HeznnQ1rHL9f8lbD9dS7x5SvATci9OrevFbzWpm+Gu4lm+CjGmFpNxT2IZ0N8nZgPpx/J1nzH2uDqDFd4+L6vLnwrF8L7+Y8XmvXcr0ki7eTLAbzmrxtCdwLVsJdEAxbb65vFJW3SLXP0+GcsuLX9gH+4jOvURO1Im8kuz7T0M13GBu+qeDwb6bZ0qKQ72iKTV9lISRzP9o/8DgG/vkJiktqSDXVLLPb8wSQ6mYCkjUPU0ZZK5Zhybhz8PsSLyqakqANT4GnqAI2KmaeGHqEZbIgvpiDz1vGweWkoS7VimDaZ7g3FcASHcL1GI79llIWlLM+S41oYjYRj3Ee5rpoDpDvmYJ7S60YtcuBFU4HtrCjkhMamQIEeoaG46JYGxKZFv0fO1D/kV+AAxyAHhUfi3t/fxfuvP12JCdTxeLipOmtakiw0bdMe6HRNkTXFH1FxWjyrZxCAJTF3YUoNkIUrpuGZZ9UIO2JKeg+fNgPo5F/Jw69+xU+eDmMih+9TmpZPJSkrV9dhKl/ysLouQvQrHtXjZ0yFvZUOrD5rSlY//yjuPLdZpx+AHxwZQ7yc2zY3qYp7sAunDXCg7JiLw4ssuPNAipq3O376qjr07bta4OoFR7RBrA67cmaLd0BqVOeRv2WJm1KUfOTNENNI8a8qcJ8Q3FSSpPiruogBBAZ/XWiqv9Ut4iawNAf5UETOJieCucpXoKWv2N0fToKDcXQJGm6Lu1YbZqZ/jRJ2nHxqbgUIdVqmopPnVeB8alEviKi6s6HCis944LHwmONP8XRyeoFgYaJQEMkavbb/oqgrnS8pG2Hk7Ydx01PjBuE4PuugC2WQkhtRI2FO95F/4HzkwDpLO58hDw2hv6dJfC89whcWoRLRdDD94FjuWsnT+1M0uWAZ+aDcC0xjr9B1CiGVB2B+z9/DVDo4mC/51EEtWNXfm1kzFyfneTutb/AVUc9bDXP2kZN1ErAZoK/sJmgczaKeIG3hYQjf0sG1nx2FIfTHRg3fRbajf1+4baL9V52VWulXOR/YNEjlJia9DJ1VZKTia1TXsNL6zfjk1mfIW54C3hYd1ZxuBw+pjzDqJp5cvl3GdNB6mKurme8kHsLKhDUisazKj1K0uRhWhSlTEEpw1RezM/g84Uc/bQ5IQy3HHLigXRFJsmvaGmxmYStgvzuiKMSByvpB0cVbgGVuWgStLtuvRm33n4HU5z0fWORuIvEzW6l6SjNZeM6dDqmFrLGTM2dxP/dThXtdVQNGIDij0uRuJCE6xAbBHa8ghV/34dDTUbhimkcBKzqyrguQ20k0bKzdi3vemS/uwzL91yIS//zIh/1Y0b/OLWzSqH0OvJhXXo1FvxlF+xjf4/hD/+Rvmnl8DKdGJpg1Cq5to3G7tm7MOPxYoShDM36xWJZRUt02bcD955ThcpubnhWAK9/G4UjLEq/v46ImvXoXthJ1LB7hdHxqdQ0TdJMl36TpPmVNEVuTFVNEzU/YdMesIqwGSRN54T1hHlVq6YaU4ybIrDuqmQ47JfBGfojBPkkXX9shzbAtuC//AXMqQuqk9WsSVPxaVXNrxzyXpNQndplHOpvMz6tpinXDaUaGiRNxXUsPqUYKpJGssY/q1w0gw67Ge4gqriyCAKCwPcQaHhE7WyEvDie349ZcP/jOVSZJWgBkVnOvxehY9JqJ2rMbVbd909t3B642O+k4XonlgUtvBtOZdmWeiVC/zSYPyy3oerB/37v9eq91sseRsgwMrm9c1HxT2YLAoiab+cnqHxlUcAmzkPIP8by63gf3FMX1JretAy6EkE9aNu1/G+o/F8tgdXB+duoiZpqJrjt2fbo3zIDLmtH7N/hQ1kuyc3mIjQdMgBnP/8PeEgo1OxJtTjy8rDmb89i76cfYeATz6HLVdfqzkV98GuQNtPwVikFVVTE7PSGKiopwgVjx2Ll8pVI6NsSHnZXOuhXprpCLRHBCEkOZ3Gl2pa60LGfMo9V9cqaoWsct6MudGpDvJBVqHmSFkRWkpzERMDFdNGF+xw4e68TCx0OrC8txT4tFRuLPSoabdu1xk0TJ+JaphKbNFcpSaWgqRQn18f6taUP3otD7Eo9h2azqSPP06RAPadc8S2v3A+sfwlVY36HslkFiH2dCltkHOXko7AsuxWFy3ZhWfoQ9CPBSunUXqdN9eLiScv5nnOvYm3eZY9i8D13YOWLzyClZx+0Oe984zXm5IL1DyB35lx8fXggrnxvCsozD2P6+WMx7JE/o/3IBdjx5mLM/HMJWrT1oDKriOO7YrDB2gbtsnbiT4M9cPXipII1wIffRGIvfcbuq8PJBNal78C+/F2jmUCpZ0ptUqqaSdZM5UkRGP23ImsGSTPUNPOmyG0AkVHKmiJpppqmyBqf9lSGwmG7DBVhY+vgK4C86qMnYNu7wl+fZiiGiojqSQTV3az+mHT3p5Ei1fFpNc0fH+Ox2PljxK8Y6tNEx+cfpKbKBRif2xGOsnDV/dmrTuKTjQgCDQ2BhkfU/LVmJZvgemRKQIF+APJ+klVrjdoPvM9UwqqJ2oCbEXpNT9o+/YjZbi2vqV7Posep2gU2B/j3+yecIMcrgT/hDSesClMOAAAgAElEQVTxJY2WqFlY1V7si8Adz7VFn7AMLPuyHJsW5qLzeT2Q1jMG62dnYsx7M5Hcg4PaVbqThEWNNJp/x40oOXgAF3/0OULi4k5Yq+bVhMeCKrYyqlq0wqJCTLrtNsyaTkWKglNM3+awxNhZr+YkEWSxvf/ipS74vUqrEMf3f9ckmt2VJG4+Tjlg6tQZZ0dqZgVuXZWBF3o0Qf7BUrgPl1Uf9tQO7XD20MEYNPBMdO3SGS2aN0eTps04ykoNWuKFkB2pSvRSypeKK3PNKnxyzkC1OyxUD8WtuzK0sa/CSCtq/7oX2DAZVaMuQ+mnRYib9hGJCPP5jMxTlgPbgX+heNan+PAtJy749BNkfPYBItr2RPerzgIyRuHNkcUY98USJKWlYe/ns7Hg7kk44/pb0OaKa1h71tHwWtvwKDJnfowP/xeEs+66ElXB0WjS1o1mwf/CrhWcnPBELkZcEo3mrYNRHtYN677NxaqcSnTK3Yf7Bzrh7MVuUUrfby6OQgYVtbpKfSo8betZp7bsXTLfMoOcVZM0fxMBU9lGmlDdFInxEzRNZlQdF1eiyZqhphlkTalpSnkyyYzRoKK+4Xysoyi3TOCxGn8SP+o/vKqgryfTS20BSRR/IDA2oz7Nrxzq+rQfiU97rvnjU0oaY7NUEzUVY0B8iqgxPm8lbTpCWKdmrzu/uDoBUjYiCJwkBBosUavYiaoHXqlV6UJf1pZd37v2ZoKfS9SyaYr+7P9qL/AfdAtCr+KEoQAy9z3CV32c/ETNqRS1ZfC1bc3v7x84iMd1q56kA/0TV9NoiZqyGyjyhOPelzsifu82fPpmAcb9vhnsdLe3sz5s34oCHA3rjyu/+qraYb9mA4H6sDiL6OzPuZ8977yPNW5x1bBqPzG2NZoGrioZ6PQ66cTAlCn/fnPaW5j8939i05bN+j3WFmEIacL6qkperKrYacnbnYXl6MT9XM2C7KnNkuHjfCQLlbLyI4VokePEbbTleLaUY5Oi49Fn8Bk4Z/hZGMFbl+7dEBbGfDsXs/Hh6JYNekZpu7GXqEd1M0Lg81kka5v+/hxSL70CnS+7Witqaltq7A8m/5GK2j8NojanGHFvcUh3uJprqtQQFRmXnf8Btr+JGS8U4vCaDIx88xV0vfFM2LdfgfdvDcL4ecsRFkHFkP9lrvoOC2+4EtaERFw6ZwFxi4c3ZxWs396GyXfnovBoNroND8Elb3fEyikFWPh8MZJaVFB9dCOUdVLNzxuDQjZdrNidg9Z5+/DnM48RtbdI1I74OJe0LhU1pgetJGpWmuzq1GAYbVPMGrVq+wpDZTLq1PzkRd8baUE1bEATND9JM8iMkfoM8BKmAKnIjA/luAzl1st+4sf4173MtmMh4+NQ9uIMHZe+6eHyhrJm1N/5CahOgQbEpxU1RdRUfGRhiozyZtEpUD9JMxupVAbUH1+x5X7WI57x63Zc3i0INFIEGh5R64LgJ26HLZENAZ+8AOei71tamGSp1hq1n0rU4E9V2rLhnvzs97pBAdac3fkQ06Xh8K19A5XTjOvvDxM1c79ZI/fl03B+UYsVhxJsCgvrrZFA7X+jJWpKLSq1RODmJ9uik+sAKr1BaNMzAl5bOCraPIz8VR/hwPtzUZA4BJd8NOe4j7sibB5l1koSs+KvTyPjhSfRY8oH6EiSo0ZLWZRhq0nUdGrHz2l4p5oSTCWrgnVksz+bgwUfzMCmDeuw+Uim7vA0KryACylx9eKFzkHStI6pz8XMhCoFLDkpGe2pmvXt3BEDzxuFIYMGoVkTzlYLWNw6Jcu9UNd7FrkXH0jHh7074KIvl6DZwMHHda6qD71ar/7wK6XNJF+sUfOpbk7WqFl2vYmqcyei5L2DSJjFvL6dfm86FsXpVDesHcXrP0TQhr9i+SfFyI4bgaue4hV461LMmX8+Ln7lb5TyjK5Zc4an2qfolpw+qhoWSvZx7ud1ePPO/QhvW4XLX03Eu5PK4SyMx+Dz2FHJi//hHQ6UF1dxikM5u36iMLeyBXpk7cYjg9xU1KrgWg28siQK2VTUHqojew4FuYV5aetyGt+unqnVI5321GSmRlOBruHyEzZF0LSi5k9pK6VJdUFoVU2lCNW9+gZRpEZtRDd+EkMeU94c3gtRRlWNGzr1lyJ67Nk/+yus+zn3k78mLbSH0WlPf4zVTRO1xacJmiKiyofNIGmGqqZi88fnL1vUY2H98ZX4bkeldQjfXHfjsk49kLIFQeDkINDwiBq/qjgDNETNAHUdhvuNN1BV7T8WB+u5VyP4AtZH85Lx64gav1ZufBrBvWM5X3oLqv79OtzVtmnczvhJCDmb+1DFffjni9W1cj9M1LjfF/4RIee25n6zYeDT1+BaGuDDljIUwbf2gW8yhYx6tFNr1EStPCgS429phS44hOIyGxwFLiS0jkNQckd4S44iiF5Y303bhogOfTH+0y81oTBJhiJbKgX6wRldYI2OwXXrdmon/e/Zdpg8TRMgf/qK9x497YB+VCRCMy8cicL1a9Dt9akoIAHKIGEroVJXzqHoYV/NQfKBfXAMG4lWN0xCkyZN6HmWiuS4pIBPPBsN1GB3/7aUs79iesb8TcNK5NtH/oS8rZtw/tTpx5Q/pZipblJF0vwEUr9edSSohfuouz7nvcdWy+vgPmsIKo8OQtjl18PW9lihtzG5gUYcr0/BwX/8AVe83A97ZuXgW/5qSkzmxIezbsPIZx/Tw+dVLV/1rFR/XZ/qarWwmQHrfoctry/HqtUORJLs7Npcjp4DI9FtQChiUuys06PSSILjrmC84ZF49DUrbnZsxqAe/Az1dMPLZoL/fB1JohaEP9ahoqagsm3/GtYVH7At9mh116dJ1gzlyWgiOFa/ZRI2RWL86U6lNPmJmqE68TndZGAQNXVMfeTfPvrfOdwj4aCi5rUdU3FPziWg9rUEfcfULueaWtz0+tNEjZ8Ff4rXws+JUXdXW3x+YmYqaVo1DCBoqnfGjE8pajo+L8q817H782z+UDDS9bIIAoLAMQQaIlHjzBwE3XMT7O3oZ8HvfN/RDPjoRGWJU+U//P6nKwGCKQDU1vX5kxU1YqQ6SO++FLYk/qr00FA366j+XqnejrcM3q/epDp2rIP0x4iaVuFuvg9BPUn+lDl3XhYb/7jC0BhYk/j9a6PaNvc+OI2+hHpZGi1RU6nPMlskrvlTKto6DmHxrHyU5DoRSpUgRKVrWC/jc3kR128Qeky6A+0vuay6YcAkP4X79mLxpGvQ++Gn0PocFuDXshipT17I9OxPoy5Mv18dcpIjL2WSvazr2jDpavT6z9tGg4K/Jk6RqNKMI5g5oCsG//tNdLx4QrU9iHqNW3VlkowpWmXl1U4TLD8x83O26j36Dy06znjyBfS/9wHdIKEIUyCpVETNjCvQK67wwAGUr/wGLT68A+4+lPgunYuqfVkIHXcZdk1/H61Hj0Uo69nU8tWt17JxIRFDH38CwYcex7Ln5uCz6UwpP/cUBj34B63UqW2rbc2ecAESu3TFkL88r7ttUbUHyPwdPrr+EDYscSDKW4mYuEq4wxNpYMvUZ/MwtO0fRSPdMDZhsHc0LgJPvGnDXRVb0Guol12QXuQtsuK9vVEoYcr53jrq+jQBtpRkU1VjenA704RKaSKZOY6oHVej5k95BvM8oDuvumliVq04mSTNf6/ruHhTqXSmBhVRq/CM0g0FXpuB/aleLHnpsMz/D6z0P6pOf4YbY7KONRQowhaoGAbGp8go97JaMeTfplpoxsc6TDO+Ut91nMIgRO1UH1dZf8NEoGESNYU13f0nTETQIDVdwBQESKb2rULVungEXUXX2V9L1PQhpc/adeNh793S+CGoF/4SpBWU+9P3UbX2+OkEP07U1HuV6ncpgkZ209/t1UsV3Qm2f4Oqj+f/8ISEOjjFGi1R06lPawRueCQNrQvT8eX7ueymZAqLBMbOtGFI85Y476X/IKX/AISxlkqRC4+TY5F4b6f9RU3lrKqc9hokSUERatKkQchqW0wyZNA3f40X7w5+uxDNBxt2C3qUuU4pGmpY8eFDiExIok+sUeOllLITbaM8OwuRbCAw17Hm5RdJJkcjqVuP6rTtEnZ6NmEatAMJYM3F9I07tGY1ll00CFdzGoBnQAK8l3zM8VaZiLhwApY9/iAOLvoaE5euQ0UBh8pzkkBEm1YUTHhFLqcB4YZnMPt+ByqL3BwNQnuO119mOjBck82VLz6NLbxdyWH0MeE0n8l6AHNv24eNX1ciIojzQeOs6DDxCgz448NY+hQbDZavQO7unWD5F7tWVUNBJD4va457fNsw5CwfSrI92KsMbysiSVy9+PORuhkhFYibbdPnsHxHslZVUk3WjtVw+bshyXV1rZomaXz3cUSN/65W1ZQiyn+r7wSzhkudLuoHBPm5w3Ihyu11lPr0B2lf/Jqe+6nGUZhkTZG06hFSiqSdML5jaU/9Bap/Zfg3oOJTRJTxldhuh9Muqc86+I6XTTRABE5rovYT8bS07ARrBInOzsNGfdfZdyJ0PM06jyNqP3FlP/gyEqxOzTRZ8+VtYy30r10fv5fVfkdzhZ6SY/v+61f7q9bQaImaUtRUjdr1D6ehTUk65n2Qi0rWP4XQYiGqTWtMYC3Xjg/fQffrJyEs0UgzzptEtYvk6fwpHHHB7s2yrEzE03dM1XfNu/U6+kwF4dxX3tSv/bHpBdWKmkotcqlt4Hs1oQuYgmAqbWZ6Un9Yedv+wTvIXLQAo976AIeXfYvl7Kq0sI5t/CfzNHHUw8+5bwe+nof8nbvQ9657MO+265G/fAkG/e3faHPuGHz3wjP0LitDGQne+W++U63cZa5biy/GDMJV57RBWIt0eC97Ddajschn6jOdEwM2v/VfNh9MxOFvv0ZEy1Rc+O5M44TLGoe1z2/CoZ2xGH9PHD66Zxfym3TD2P97Bs0HDsCR5d/CxQkKaV02sJbgZcybWID1e6LxhxcSsPhfh1DYfBgmfvI+9+tpbP3XSwhrm4reDz0FFwnxwblfYO/ShciNScRjUdsR1psK00EvR0gF4W01q5Ww1NVQ9sBPl7UoA2CtmmX3Utj4q+s4iw49YkkRGRI0VeelbgFEzVSbjtWmBaQEFS83U5/+YntH0OXs+rz8V324f+6bbUf3wEdPNStn3FmppmkSqtKfuvPTn/asLT5FPnVDgVIIlXrIv1XK01TSzPgCmglKQh+gPUf/n7uL8npB4DeBQGMgajUPlGGIG0pPtCfpiVaPBV8N8Axq3ESNsx+uvb81mufux+KZebCz1iyuaSJKjpageZ++KC8swJCn/w+HlyxG0359seD2mxDTviPGvv0/zBp/AdLGjsOZDzyKsowMTO3eBpFp7TBxIcdIuJwISTp+qLQ5fso8B2oSOdOvLXPNGkSwDi2mZctqslfzveY6FAFTz826ZDQq8/Mw/rMFmNarPdqNGoPBL/4L4ckp1YSr6OBBvNO/G6cVVCJ+8GiailZiOH3ikrp1xzyOjyqe+zbK2T0azKKBmL7nYezU9/WvHDVYft/iRWjWvAlCXx0Jb1I+srLOxdYl23HkyAHO6eRg+fJCVDm9OPedD9FiyAhsePXvGHLpp/jmSappg/+E828ZAs+cu7D4nUx8N68Il816h2nciyjM/Bul30zGuzfkocXYqzDy6UcQkf08Dkydj89XJGPUo7/Hssf+iMjQQhzZVorLN+9majUKO6dNwe5/Po/LOtkQ16oMFakcWT4LmL0/HOvKOe2BHYUP1YOipo6Lbdt8raqhssDo/NR2Fn5rDk1mDIKmb/7Up1bVdMG9meo0Oj21cmqSGYP964YCn5MNJiGXoTKmboma2gX7srfZIMIYPeW6Vk3NNDWnLhg2HYHxqQYJP0GrJmoKJH/TijL4NUmaGZ+yH+EIt5KY+5n2FqLWAK8Zsst1gEBDJWpBN94J3xLac9SczTn0FoRMoGWGZz/cT9OzU3jazzqLGjVRUz5qtz7dDpFbt2PBjHz0Gd1Ejy06sCqHw9BJgmIT6elUimibGzkFtIbguCYvPcisdNyPsTuReu1tGPbM3/Qszym92tLJwoqIVp3gSt+DdtfcgHP++YomSto8linVvXM+xi6qX6PfmUlPtWCsnfwSItgUkHruOXTgT9LK2sq/3If9VIwu+uxbRCQlabKmC/D535b3P0DncSRZJfkIa9pOv97DAszvnn8SG//1D7g5Jd1bVso5pZejH+d3hiXEI6FzV6TP/wJf33I94pu6WecVj6x1eSiPHYjxs+ZoEvrl1Rdi8JXNkNQ2FlsX5WLz0mLcl1fyvRPFe1cvWJM3Ydt3iahcnIfDl49Bsm0fHSQqsWF+DhzFTlR5QtF3bDBG/aUV/t03ExfMmk5z23M4+moZ7FsfwdqPMzHz3QLcMnU8khK+xZSL8tDn0YfR60qSTRaWNok/As+XD+HvdxxiV60T5zx8CcIdG7D3O46N8nVG19vvxIqbrgYHQ+CGbsSFEwkqaWmS/7kVnxWGI70iiDPdfUx91s1Q9pogWaropfbd/2DZxJmlJC3Kc8xw8Oe9P+Wp7SuUF48mbH6TW606GZ2eWmmiLYehOJk9wPo00qlPrzMYjsjL4YqvGx+1wBgtlRwl9cVL9MfbeKxpQquFxjB6RT6Pi091eKq6NB2noabpkGqLT3W1qrFrNPQtT/oj3BHio/azvq3lxb8ZBBomUfNPJwjmAPatWzjnk9Np+CVoSesOW0tl9+SimvYq1bQaLO43c1R/eaCNmqiVWCJx4yNt0FqlPt/PYzchL/ql7CykMuDzWZHATsOOg9gFGh6CPSvzkJNejqbtI9G6exS9y0KwbtoBjF/L1Ft8Il5LS0bXEUma4AXHBqNoZykih/0Oo199VaO/7b23seqZp2HJSEfHBx9B80HDsej2q1gPVwpfy764+uvF2u7j0Fs3Y8PT7yHh5scw5JFH9HsVSfvi5klwrpuO1sPaYd2sXbj8uz1gmRaCY5pj+pizUbx2KVoP4lB1LiXpZcjPdNJUMAgXc3bm1mlTkTfvfQy8vhWSW1mQc5gdlZ+x46bXpXDk5CAoYxlG3d0KQbyoznzqAOLOvhJNe/VAxwkkRPHxBlFUnZ0fPE2vtKeA9r1QuLYIny8JRrthFrRt70VGeiVWfJLNWjUPuo2Px3kPJ2PKhHBct54ELTRY19a91b8Xzj2/FNl5Vnz3QT68nE+aeuWlGP3SU3i3a0eEdu2Ja0kqvZ+NoMFtJtJ3luCsqyKQ1j0G2bvLsGm1HQOefxkzLrsCw5r5cHZ7Cle9ifc+H97/NAzLnGGI58guK4/d3XXc9Rn4EbNlbYRlFVW1zF2Gp5oaAqyJjD896E95qkZXQ3EyDG4NbzF/Y0HNtKBS0/yGtx5fE5oeXwVX7Fm//JP9K95p3/8N8N0MjjPLNro/a8an1EESNjq2GMTNb3BrGPnyORVrbfH5DW/daIOK5Fvgiej8K/ZS3ioINF4EGiZRY4H/zZfD3q1pQIG//xg5suCZPwOuhULSfslZ26iJWpE3Anf/tR2id+7Azm0cTVTixKBLk7VfVwUHqDfvEIHULqHIzajC4Z3lWPbxUQy9JAFnT2qG797JwfYt8Zi4bDlCIqLwRo/OaJ1ahNb94hEZTXuBEiu2fHwE8Rfdie7XXIuPhvRCcvcmiGjfD9k7stDj+huQPvVZ9LwgDps/P4gKXypGvPI2osLzsfvx65Db9GL0unESuySd2PDWO6hY+i5Sh6Vg67wcDHxlJlqkurH6z/cgeeLzWPGXR9C2bQnOGJeMUhrhlkYMwoppq5Dcqw+OrlrBWZ5W1tMdxMBLU9B/bBwObKrEqllHUe5N5AUzGAmRR9FnbCJadw3Cew8fgD11MIrXfINW46/GmDfeRfGOlYjuPAA577+KxOl3wz7MDkdYT3z1xHYknh2BQVckIu+IC/u4XrfDiz63ReLQ2irM+YcN186aysaAOKZGPaig+udeex0SW/jw+sRyplNdyCqNRSiNbvpf0ga7l2SgzS0PYfCIPByc+jGm/OswOnbwYeTEpqxJK0SWrQOiup0J94f/wuA2VsTyuQoSs8IFVkzOikQZHfvj/R4ld9Zx12fND5dt6xxY1k5nNysH3SuSpm/mVAJFzkhi9M1PzLRrv0FqNGHTsz75OlNR00RNKU783Rk7Fs6kK+GzqV+h9bPYl70C364l7Gam7x/VQpuuv/PHp7s7/fHpjlZzGoH/bz1xwUh/HhefSuvyVplyK6piz64bj7j6gU+2Kgj8KgQaJlHzhxzXErbevWGNV2kFF3x7N8Cz0d9Q8KtQ+e2+udESNXOE1J3Pt0O/iEPYutmHNl2Y0qSKtprzLKNTOE+xnCnPXSUIp0K2bUUR7GwnHn1TCu1TwjD98b0YN+2/KN+2AHkVbDVmc0LBZ/9F65FN0aqdFXFNQvHtO0dxKDsRTfr1R+nymRhOz7aCXBtWT9+LtGsfQvayTzFoaAlTdaH0INuPpr+7F2c98yz9ADcy7doe/01NQGV5FccmhWHUHW2x/E2SqN7jcdG0adj58rXYP3kmIq66D/u+nI3UZjkYekUSdm2swq75xYg//ybEt22BNU/8mfV1LVlgn4eUdhFo3zsE6Vud+PrtI3A53BzC3oVtxfsw+vbWTN1a8NkLe9HngQex88PXENFxFFL4gdr47J/R58FH4Q4OR+7k53DxmFIUx9mwfU4MUlgTV9m2CO06cPKCw4MD213ofnMYlkwuw/Y1rNPL3UwCHIKUPmm4ak4bZC9Nxztj03HGA5PQv+8OHFyyB3Nez0XLruGIcLID9IZncPb4SBTNmIz/Pl+AxCYh6HVZb7h88UwJL0cJU8Y3tCjhlIPDqOzqg22OF99uC8YHZZFozmNASgA3CcC9dWh4W9vXg8XNFOh6jtraTO8xVYrF8WGKsKmRUdbqmjTVMGCoTEYTgTIENu5hVY0mKhrtymHUp6neEWssnE2ugjvZPyu1nr6bLE6mQBe9wjEsm/WMU8NDzR9fYPOA37jXVAuNiQuMjQTb6G8OiE/NMbUlwdX6D/BE0xxPFkFAEKgVgQZN1OSYnnQEGi1R0yOkqKjd9UI7DG2WiQUflSF7TxkNaC0oYK3TmRcnYcf8/fBFJKAoi6Oc+trRn+pXbGoQFrx2FKvn5mLUnf1hzT2ElYucuHHTNhrX8uKZtwvn3tEC8TR6XTAlG7nlLbS9R3jJeox7oDnTpy4sejcHlZ4opA4fgpYhK5HUKRrfvM5UZPOhGPfhdNg5b/PwjCdx9IvXYY8NQ2r3CF7LPfjwTztxzv8+Q/MzB2PG8AFoNmQYBj31HN4ZMBDJibm46P6WyDtchc1f5CHLkUYS1Re5X07DwBvbIz6+khYfNhRkUPna7CLppKVFHl+7uBQhkWFIiqygV6sTTcdPRGzYAWyb8R2iunZGcP5eBHNYfOaKfFy56wj2L5iPxNdvRrMRXmQlXYTtk1cgx1VEm48EdO4Vgdg0K8J62vDymTlo1Z2zOdPcqKCiN/wvaVj5WjrWf0AC4+ItpQM6Dk7GWaPycWBrFb54gw0JGUXo/7enMfCeq4BPzseUBzmWIy4ZXYYmIDq8Anvy03Beh1CEL5+Gqja0SsnzYuOXNnxeGoZipw3MWCOMXlystcc99Zj6ND+FlrIMzgHlTNdddOLldAhzxqduJDCNXgPUpmMkzU/UNJlRhVt+osbYqppfCnerq0nY1GTW+l0sRXtgWzoNyOZUCTXT0z/D1FAKVYx+hVClPFVzhKkUqnsVm5+s6SiU7Qjjc3W4D+6kof6ccP3GJ1sXBE5XBISona5Hpn72q9ESNXOE1E2PtUX7ynT87+UsRMWGINziRpOx1yAyMRQb//YqLE1SdJH88AlhTC3GYd/qMsybelTXsrVIC4az0oJKVyg6Xn0r9n5MU9peFjTrGIa0XqGY9eJh5DtaouzQXnQbGoMBTDvmHHRixl8PsCsyBWVsUIhvHoIBF8Ww09SHb97IRGFJMkZOeZMNDOkonfccCvcXIX1LKVwlHkSfp2re3tBnQv72LdrPbfYlYxDqyUSfS5qgXd9gFGdyNugsFvofbYozH3wIqx+7G806BKHz4EikpIWAY0ORsdvJ9GMY1n2eh+1bo3HZ7LlY/bcX0XbcRWhzwQU4PGcqts6YB2vmNzj39lSWI2Vi1/YoXL1wKYJpVbKLs03b7nkfoa02oyx4JNa+X4Qd+zYgskUkel0Yiy7XhGPaxQUYNi4CUak2pIwKwtfPlWLxh0UYe20sIsgxtmyJRfvBdKTO2oLOI+IRER2E2X8vwMGjcaxTm4m4rMex4v9WYu6sI5hwXRzSBrHR4R/7MKQlTXPP5MioAqbIPgH+WRiNQyRpiUynOckGwig7RVCCuiWL3mynwWIpOwzbBu7o7rVaGbMoQqNvJpFRzQPmIHaDwKh/q3uW1VNuMska404ZhKq0ifzxkHYaRGbsgrWIdXjL36P7d7o2X1azS3V8pkqoCZoaq3ZMSft+fIafoLv1xSSh4+ELDpy6cdqEKjsiCJw2CPwoUZs6lSUXqlBflt8EArTe2nrVVWywC+Vgh2B9s7OuXNmGqdsPebr+XGwsWVlZ2u/uVC2PpXb53qoVUSvnZIIrfp+K1OL9WPRxPs4Yk8T6tDIc2c2RRiRs7ftGoUnrUITSw7br8FjsXl2O2X87hJZ9W8Aa2Ywq01pU8vMQFMIJBiQaZ16eApfHirSuwezmtOOrt46yi7KAHZ4WKnTJ6H9+PNbPL8SSmbk4+9oWSG0bxNf70LRNEIIoBxXnAys+zKH3WAXGfLIIasb70Y3rkZvl0gPNe7KhIGPlcuyfNQs7v+Qc0v1HWOflxcCrmqNNZzty9lchOzsECSPuw9Kn/4bE3gORtXkj8tZuQPcxKay5ozrXOQjRTTmXMxOY88IBRPRRVhxTadFxG6Kp/LUYdSqK/Q0AABUdSURBVB7aXXAh3uGQ9zMHZCO6eQQ+euEIznzsSXS+YiIiUprCWVyIFSR2gzmzKdi+DOhxDbZ/lIVZ07/GFa8yzcpGi9euzsYT85szVctuzFs5uJ7zP1OaVqLrqBR0GxiPg9kpWD4jA4PPKkb30XHYsKAMnfvHIG+fG6+/XIQLWPfWpZ8FL/3+ADoPCcKlZwTBuooNH31Zl5bjgWtdKBY44rD0ULkew2UlQVNfTQlUZTwkRHdzQPpps6hOyU2zaWvxrRbINInRqlpAAwFTnRaLetJP1nj+qXElXhI1nyJrTXvC05E+frGnX0rQ4siBRdl2HKLJsCo9q1bUzNo0QyG0qLm3fiVNfb4UEfXxc6gJadoIuNtdA1/48TNrT5tjKDsiCJxGCPwYUWv98cew5/NiIstvAgF3QgJ2UmBptEStjD5qv3uwNTp5DmHuVKYjS9VoJStrt7wsuk/C8IlJunPNUeTFnnUOBLHOyFvhhCeqOY7mpuDgF18hpUsMmrYNQWpX1lXlVmnbiJTUYOxcWwE3ZxbuXlXEC5cVgy5KQHikDVtXlGPz/Hxc8NYbsKZ/iIItm5ka5PWbczB7nhXJDskgrPm8ADsW5sKS3B4dLhyH4MhQ9LjxJuRsWI8vr5uIxFgPYlpHsHbOhp7nxiOEnXUlBV5kH3TBVUlVibYcxUdykLO5GHkci9Wql9rHcDg5I7Ndz1AktDIGXa+aVYhF/ztKBceGDmyaUCOzsrKcJGsXI+PrObji8VRs+7YIa5daGJeyjyDRO/scHPrmK7joHRcWEYmhncrQaSyze+vCsWKOA+dNb43MtT7k7alE30lRmP9EGdqQGMZ1b4Vt25rDt/tLjLqrI2xN+lBlm4Fizlcdd09z7FlfiUP7ItF7TAxC6ey/8uMiJFEBXDa7CH2blGNoa3Z3dqPqQkNVB2v0t9oj8X5Ue4Ru34WqoBCWdfkQzVsVC8IiyQtuPU0UNfObwuJ2cLA9h8Ft/Jpz4px+kqa6H9Vge3/zgL92i1RTkzSfHlDHW8se8Ha9Fp7Y7qftF4/FVQLLhg/g27GRxYpsMFB1aio2HZ9fTVN1d0oxDIxPPdZhOEnoNfCGtzht45MdEwROJwR+jKg1W7oU4Tvqx57odMLot7Iv5Z06Ib1//0ZI1FRVNo1iK+mMP+zCZhjd8SgyM9w4srMSe9YWIKVNJCb8qQUqKzxME7pQyhRldKIdXc4M015pGxaXo4I2HBQD0LpLGCJjrcjY5yQR8qFjn1Ds2ViJcnaN2lUaiMRB3bfrGULlzYL9rMfKoHnrvvQ4BIcFIX/rNnqP0RSVdTxnjG2KvudGccQTXTBWlqMkowKlhyr0do4ereS9D826RmPYxOaIbWJFeb4beaw5cxQz7VfpQauOoUwhWkgoLagoJ3krYr1dtgvBJDctOoSozJQubHdVeml460PzTqFY+zmHvxd50Hc0bTjYLLF9WTG++zib7/Vi7C0piKWitmga5Te244VF2uEuZtqRnwAbCaXTWcV9teAS2nMkdK7ErvxwdH+xDd4enYPEXiE48p0Lg8+LRJdhIVi/nDNUm3RE2e7V6NgvDBExNuzZ4sKGL7LRulsk4pg2dXiaUekrRoeelTSyjcSXL2djIwncTV0r0X4MseC+l71rRW7PXtgTlofFe+Lg2rqXxyQYISRpUbrq3mgmvO00qFGr7YtCqU/WnfN4gFfBW84hxIq4kKgZahpVJvVv1UlJ0maN47nQZRw8bciE7Q1jOLml5CCsGz+Gd98unmiKmDEWEjWLSuUq0umPz6pq85Li4el9E7wp/VlzpzrAZBEEBIGfioAia2rUn7q5aX5exXSnk2MOY9LTkbRgwU9djbyugSOQdfbZKGjVCiEhIfoWxFRow059+gejK7ZiJRtyhEbjvMua4sKOmXD4glGYXcVifwf6nReLaDYDbF/mQGySjWoUfcAiWWzj935yca5kJtOM4dFWqmj8gJD42Nnx1nFIOG0wqkjGnEyZMk/Ma4+HhCixKU39uB41x5DmZhy07sHOJUUozXei09A4ciAf054epkhZEM/RPKlnUJbjNc5V6IPLaeUFzofsvXT5dyiVwoKWrDmL6RoCJxsTivJU+ohF9BFWxHTiBv2158ZYAY7cTOd+ct8tzUiyjlRp5UoxmdSOrMdjY4R+nSI4qoZILSRoWftcKM51odNZtH/gbhfsrWIXaxBKuI9OusaHRQNRiVw5YysiiQ3ifkX4aJBrK8GWQ7F4dzIJrK0Slz2ZjKTealYS48iiIqbiT6JEqa7JKrOnCDNJJcFHzk4nwmPo18aceskRJ0JzKpE4rilWzilDUtkBtEzirNVNJLSdY1HUNgJhLePw1P9xquemPQiyhcDNdcUQR0aqD9ONp5miVitpy98O676F8B3ZDTJ/PZLJEhMLX3I7eFsNZ+cv59414MWSsQLW/UtYv3aQx7uCkwz4YyEunsSsM+MbxTRn0wYcney6IFC/CNRG1Fy0QKqkc3jnmTNhdTjqdwdl66ccAS/r1DeOG6cJmpn6bNhELYCkWbTVAX+JBIeh1ahO6NzKBaeLNWJ5bio9dk3OlHrlcXPIOgmYUqHU38q0VZnP2tjBp/9NcqPUr4oyLwkWlTO+torpRSed8qPiWTdlCDxaEVPrU+qaMvo0ZGt6T5Gk2LSSwk5Fvk+tk1lIw85BcSduR21PvU+RMTXkQCloVtohxKXYtJ2Ger1evzleyG9PZZRnU4ihmscfXHyvWo/xWrUo1U09Vj0XXr1PEVjun43rVXEpjNRaOKxBNeVp0qlWqvbbq+L3v95DS4kKWzA67NqDFvmHkRUZjB4JrCPbBuyxxCNvaCd6tpGMKhdqqkXm0HmNjVmdWMVavcQgdMliDSBNgbXi2ZXElWTSM7MCWbusWD66D+yto2iU64KHnbFrPslF1Y59bLzgRAb/isJJOlXcNzUAonbKP8WyAUFAEGi0CAQSNQ8vDqaiplS1pjt3Im7lykYbuwRmIJDPlOfBtDRN0gIVNRtHPza8ZoJWnSkaGRdw7UflP8rBrAvzeK1M5TEoPqaIlWGObvg7mcTMJD21nRzqNdoLSt8MMqf+7dX/Orb4Odtxq6j5vLk980W1vZ+ai35a7eOJ1q/D9a/M3L4fBb1/P7ZPgc8FrkP9rbiewkv9XqP2p1OhisIq0/lOCVU4j2nQVq08SI7yIYOKYESuFUcK7DhSYsHRLBoBc8yTneTOQ1I1PNnNWjuSZnaCdonyIjaxCkEpHgowJL55PhzZAyw4GIq97Ozc46Qiw+0o1UztR4TVjUT+S3V5hpBU+siC7fr4WoSoyTeZICAINGoEFFFTN0XSTKKmFDVF1JSq1m3RIgRxvKEsjROBKs4EXz94sO7yNIma+lspaoqoqZsWh7Rp+q9f6qbr0+9YrzQiG/8OUmqSIhiMQV38NanxM7LquH6MoQXGXZPJ6BWfAJja1n2i7fkFMHO/fxH0NZnbz1yJervyZFUdluxbUCMcdaiKpCl71hK2XCrixoQuuoRU4eYRFYgayAdUqlP1MKh79eZAfFQq1GC6XCl/JbCEy5FlwfSSUGytDEIhGTQbb0nuFBmzIJxs2qlq/3gw1SqjeARVA4EyxDcIuQ831vNkgp8Jq7xcEBAEBIGfhYBJ1FSNWk2ipshaeGEh2qtaNbHq+Fm4NogXk4ztHDECJVFR1UqaUtQCiZppzdFwiJpS1Pw8IJCkKZZmqmEN4uCcTjtJQNUEAIVrlb/ETWFZpYZtq3/TJsNNQhXOf7dkl2qanSoZLUj6da5CGA1PfVTBlCqnrDSsrKnP223FVqedprU+bC+wId9rQ7Zfn4zwu/KzLF2/RxEyRRbZiErO5+XscwtSON9TH0uVNub/GkKN2ul0OGVfBAFBoGEhEEjUFFlTqc/A9Kciawm06WizZImQtYZ1aH98b0nS9lJJOxobq4mZmfI0GwmUohaY9mwwRO1Rf+rTxpPZVNI0SQusW2tMB/IUx6KFP7+6x9I+TZCUKqkeU8TLpTQt1emniJWa38jHaU6h+xyidcrWr2YqYqfWpcmXBSyn12lVnRYlIwvny2x8rX+Qkl6/Sv2apJutB0x5khCqe74vnmTNUNVYoyaK2ik+C2T1goAgUJ8ImETNrFUzOz/NhgIzDRpTVoZ2mzdLGrQ+D9ZJ2rZKd+7q2hWFbCJQhMxU0WprJDDTng2KqNmp7iivLb2YJM2sWztJIP4WVmOSNMWuNJp+SNWdIm0qBaoIsFt3RLCejE8o8qRSlGq0k3pcETb1uHq9UsXUvTKsVa9TzymyZtT5qTS1MrBV62Gq89jmqlOu6oWKwKmaO7UkkKwpI4sbssRH6LdwPkqMgsBvGYGaDQWKrJkEzbw3lbbOrFdLpL+adIM2vDNGdXfm0i9tW3Kyrj1TJC2QqJmETdlynIpGAk2bTvVkgqead9J1afpSLiTtV5+lgQTNrDUz1TR1rxalrKm/2UugSRg9ebUy5uWDioBpy131mJ/wKYJnpDaN1zpYl6bK2WgBpzfBSV1aYdOKm1bWzDQnj6s/3WkqdfF84M4suuTLIggIAoJAI0agZvozUFVTqU9F1tRNPa5uqpYtraQECXl5CGNa1M6/pYbtNDxBSMTc0dGo4NSB/MRE7I2M1OlMRcIUGVM3c1xUYG1aTf+0k6Wm1QlROw0Pg+ySICAICAKCgCDwqxCoOaFAETFTVVNKmknU1N8mWTNNck2Sp38z+5vtftXOyJtPGgImwTLTl2bNmUnSlJpmEjXz75pqmiZXJ6njU4jaSTu0siJBQBAQBASB3xoCtalqgcqamfpU96aVR21kzcRNSFv9nEE1SVVNkmZabphpT5OgmQa3p1JNE6JWP+eEbFUQEAQEAUGgESAQqKrV9FUzSZpJ3Mz0Z02iFkjOhKjVz0kRSNQCGwFMNc1Me5rELJCwBfqmqdefbDVNiFr9nBOyVUFAEBAEBIFGgkDNDlBTOTPTnSZRMx9X94qsmc0ICgYhaKfHyWASNtMHzaxNC1TUzBSome40GwhOdqdnICKnvJng9IBf9kIQEAQEAUFAEDg1CNRG1syB7aaSVlNRM8maELVTc0x+yVoD69NMNS2wkSCwocB8PNDc9mTWpQlR+yVHUN4jCAgCgoAgIAjUgoCpiNWsWTPVs8D6tEBFTZoKTp/TqWYTgTFP2+j2DFTWAh+rOYFAiNrpczxlTwQBQUAQEAQEgeMQqEnWAn3WzLq0wHshaaffCfRDHZ+B6lrNyQOB7zlVEUnq81QhK+sVBAQBQUAQ+E0hUBtZC1TZTPJWG0mTOrX6PVVqEq7Azk9TXQusQwscun6qlDQTESFq9XtuyNYFAUFAEBAEGhkCP0TYVJiB9WzmvxtZ+A06nNpSoCqgmiTNfKwughWiVhcoyzYEAUFAEBAEflMI1LTdCCRvQtBO/1PhhxS2apXrJBranggNIWonQkieFwQEAUFAEBAEfiECP+aTJunOXwjqKX5bbQa49UHQqrd5qmd9nmI8ZfWCgCAgCAgCgkCDQECIWYM4TN/byVNdg3YiVERROxFC8rwgIAgIAoKAICAICAL1hIAQtXoCXjYrCAgCgoAgIAgIAoLAiRAQonYihOR5QUAQEAQEAUFAEBAE6gkBIWr1BLxsVhAQBAQBQUAQEAQEgRMhIETtRAjJ84KAICAICAKCgCAgCNQTAkLU6gl42awgIAgIAoKAICAICAInQkCI2okQkucFAUFAEBAEBAFBQBCoJwSEqNUT8LJZQUAQEAQEAUFAEBAEToSAELUTISTPCwKCgCAgCAgCgoAgUE8ICFGrJ+Bls4KAICAICAKCgCAgCJwIASFqJ0JInhcEBAFBQBAQBAQBQaCeEBCiVk/Ay2YFAUFAEBAEBAFBQBA4EQJC1E6EkDwvCAgCgoAgIAgIAoJAPSEgRK2egJfNCgKCgCAgCAgCgoAgcCIEhKidCCF5XhAQBAQBQUAQEAQEgXpCQIhaPQEvmxUEBAFBQBAQBAQBQeBECAhROxFC8rwgIAgIAoKAICAICAL1hIAQtXoCXjYrCAgCgoAgIAgIAoLAiRAQonYihOR5QUAQEAQEAUFAEBAE6gkBIWr1BLxsVhAQBAQBQUAQEAQEgRMhIETtRAjJ84KAICAICAKCgCAgCNQTAkLU6gl42awgIAgIAoKAICAICAInQkCI2okQkucFAUFAEBAEBAFBQBCoJwSEqNUT8LJZQUAQEAQEAUFAEBAEToSAELUTISTPCwKCgCAgCAgCgoAgUE8InHKi1rRp03oKTTYrCAgCgoAgIAgIAoLAqUMgKyvr1K3cv+ZTTtROeQSyAUFAEBAEBAFBQBAQBBopAkLUGumBlbAEAUFAEBAEBAFBoOEjIESt4R9DiUAQEAQEAUFAEBAEGikCQtQa6YGVsAQBQUAQEAQEAUGg4SMgRK3hH0OJQBAQBAQBQUAQEAQaKQJC1BrpgZWwBAFBQBAQBAQBQaDhIyBEreEfQ4lAEBAEBAFBQBAQBBopAkLUGumBlbAEAUFAEBAEBAFBoOEjIESt4R9DiUAQEAQEAUFAEBAEGikCQtQa6YGVsAQBQUAQEAQEAUGg4SMgRK3hH0OJQBAQBAQBQUAQEAQaKQJC1BrpgZWwBAFBQBAQBAQBQaDhIyBEreEfQ4lAEBAEBAFBQBAQBBopAkLUGumBlbAEAUFAEBAEBAFBoOEjIESt4R9DiUAQEAQEAUFAEBAEGikCQtQa6YGVsAQBQUAQEAQEAUGg4SMgRK3hH0OJQBAQBAQBQUAQEAQaKQJC1BrpgZWwBAFBQBAQBAQBQaDhIyBEreEfQ4lAEBAEBAFBQBAQBBopAkLUGumBlbAEAUFAEBAEBAFBoOEjIESt4R9DiUAQEAQEAUFAEBAEGikCQtQa6YGVsAQBQUAQEAQEAUGg4SMgRK3hH0OJQBAQBAQBQUAQEAQaKQJC1BrpgZWwBAFBQBAQBAQBQaDhIyBEreEfQ4lAEBAEBAFBQBAQBBopAkLUGumBlbAEAUFAEBAEBAFBoOEjIESt4R9DiUAQEAQEAUFAEBAEGikCQtQa6YGVsAQBQUAQEAQEAUGg4SMgRK3hH0OJQBAQBAQBQUAQEAQaKQJC1BrpgZWwBAFBQBAQBAQBQaDhIyBEreEfQ4lAEBAEBAFBQBAQBBopAkLUGumBlbAEAUFAEBAEBAFBoOEjIESt4R9DiUAQEAQEAUFAEBAEGikC/w/Ukehlk1sbOwAAAABJRU5ErkJggg==;" vertex="1" parent="1">
          <mxGeometry x="170" y="960" width="208" height="76.4" as="geometry" />
        </mxCell>
        <mxCell id="9TcWHJmhF9ff8y3S5NJL-55" value="" style="edgeStyle=elbowEdgeStyle;elbow=horizontal;endArrow=classic;html=1;curved=0;rounded=0;endSize=8;startSize=8;" edge="1" parent="1">
          <mxGeometry width="50" height="50" relative="1" as="geometry">
            <mxPoint x="-410" y="980" as="sourcePoint" />
            <mxPoint x="-130" y="440" as="targetPoint" />
            <Array as="points">
              <mxPoint x="-450" y="710" />
            </Array>
          </mxGeometry>
        </mxCell>
        <mxCell id="9TcWHJmhF9ff8y3S5NJL-57" value="Get the total amount of pending invites where the receiver (user_id_2) is the current user" style="rounded=0;whiteSpace=wrap;html=1;" vertex="1" parent="1">
          <mxGeometry x="510" y="280" width="150" height="60" as="geometry" />
        </mxCell>
        <mxCell id="9TcWHJmhF9ff8y3S5NJL-58" value="Is the total amount more than 0?" style="rhombus;whiteSpace=wrap;html=1;" vertex="1" parent="1">
          <mxGeometry x="545" y="390" width="80" height="80" as="geometry" />
        </mxCell>
        <mxCell id="9TcWHJmhF9ff8y3S5NJL-59" value="" style="endArrow=classic;html=1;rounded=0;" edge="1" parent="1">
          <mxGeometry width="50" height="50" relative="1" as="geometry">
            <mxPoint x="584.78" y="350" as="sourcePoint" />
            <mxPoint x="584.78" y="380" as="targetPoint" />
          </mxGeometry>
        </mxCell>
        <mxCell id="9TcWHJmhF9ff8y3S5NJL-60" value="" style="endArrow=classic;html=1;rounded=0;" edge="1" parent="1">
          <mxGeometry width="50" height="50" relative="1" as="geometry">
            <mxPoint x="645" y="430" as="sourcePoint" />
            <mxPoint x="695" y="430" as="targetPoint" />
          </mxGeometry>
        </mxCell>
        <mxCell id="9TcWHJmhF9ff8y3S5NJL-61" value="Hide the notificaton circle (hidden by default)" style="rounded=0;whiteSpace=wrap;html=1;" vertex="1" parent="1">
          <mxGeometry x="720" y="400" width="120" height="60" as="geometry" />
        </mxCell>
        <mxCell id="9TcWHJmhF9ff8y3S5NJL-62" value="No" style="text;html=1;align=center;verticalAlign=middle;whiteSpace=wrap;rounded=0;" vertex="1" parent="1">
          <mxGeometry x="635" y="400" width="60" height="30" as="geometry" />
        </mxCell>
        <mxCell id="9TcWHJmhF9ff8y3S5NJL-63" value="" style="endArrow=classic;html=1;rounded=0;" edge="1" parent="1">
          <mxGeometry width="50" height="50" relative="1" as="geometry">
            <mxPoint x="584.74" y="240" as="sourcePoint" />
            <mxPoint x="584.74" y="280" as="targetPoint" />
          </mxGeometry>
        </mxCell>
        <mxCell id="9TcWHJmhF9ff8y3S5NJL-66" value="" style="endArrow=classic;html=1;rounded=0;" edge="1" parent="1">
          <mxGeometry width="50" height="50" relative="1" as="geometry">
            <mxPoint x="584.81" y="480" as="sourcePoint" />
            <mxPoint x="584.81" y="530" as="targetPoint" />
          </mxGeometry>
        </mxCell>
        <mxCell id="9TcWHJmhF9ff8y3S5NJL-68" value="Insert the total amount of invites into notification circle and show it" style="rounded=0;whiteSpace=wrap;html=1;" vertex="1" parent="1">
          <mxGeometry x="525" y="550" width="120" height="60" as="geometry" />
        </mxCell>
        <mxCell id="9TcWHJmhF9ff8y3S5NJL-69" value="" style="endArrow=classic;html=1;rounded=0;" edge="1" parent="1">
          <mxGeometry width="50" height="50" relative="1" as="geometry">
            <mxPoint x="584.81" y="620" as="sourcePoint" />
            <mxPoint x="584.81" y="660" as="targetPoint" />
          </mxGeometry>
        </mxCell>
        <mxCell id="9TcWHJmhF9ff8y3S5NJL-70" value="Looks like this" style="text;html=1;align=center;verticalAlign=middle;whiteSpace=wrap;rounded=0;" vertex="1" parent="1">
          <mxGeometry x="585" y="620" width="60" height="30" as="geometry" />
        </mxCell>
        <mxCell id="9TcWHJmhF9ff8y3S5NJL-71" value="" style="shape=image;verticalLabelPosition=bottom;labelBackgroundColor=default;verticalAlign=top;aspect=fixed;imageAspect=0;image=data:image/png,iVBORw0KGgoAAAANSUhEUgAAATgAAABDCAYAAAAI7RncAAAQSUlEQVR4Xu2dD1RUVR7Hv+MILpZY4eKfZTGloxKoHZOU0gjCkyYBiZqmsidKFFHZdM0/oahBmqglRmImnqXMP4mHLfBPoMSRRQ2OZYJ6XEllTdMgF22dzUHZ+94wM3eYgXnzZtA3zu+dMweYub977/vc97787u/+7hvV/o/iG3/6w1AIR2Njo8lP/j3xAzqIABEgAgoloFKpDD3T/676ekN8Y//oZQrtMnWLCBABIiCfgErw4Aa8TAInHyFZEgEioFQC5MEpdWSoX0SACNhNgATOboRUAREgAkolQAKn1JGhfhEBImA3ARI4uxFSBUSACCiVAAmcUkeG+kUEiIDdBEjg7EZIFRABIqBUAiRwSh0Z6hcRIAJ2E6A8OLsRUgVEgAgolQAJnFJHhvpFBIiA3QRI4OxGSBUQASKgVAIkcEodGeoXESACdhMggeMQas+exa2jR6GtqkLDhQu4U1eHxt9/h6pDB7Tz8kL7nj3hFhAA9yFD4PbYY3bDpwqIABFoWwK0isr4ag4cgCYvD9rKSsm03QID4REdDY/nn5dsQwWJABG4uwRcWuAEj+23DRtw69gx2dTdBw3CgwkJ5NHJJkiGRKDtCLjsFFWzdy+ur1rlMLKeb70Fj1GjHFYfVUQEiID9BFxS4G7u2oUbmZn202tWQ6fERHQcO9bh9VKFRIAIyCPgcgLnaM+tOXby5ORdiGRFBNqCgEsJnBBz+3Xq1LbgaFLnI5s2UUyuzSlTA0TAOgGXErhrc+fKXFDohk7xc9Glyzc4926BVarCwsPDa9ZYLUcFiAARaFsCLiNwQirI9dRUG2kyYZuciK7To/GAV3s0FC1E1aw8SXV4JidTCokkUlSICLQdAZcRuF9nzbIhz81U2PT4bRE4IU/ukfXr227k5NZc/wPy80+gXrDv3B8REQPQWVJd9fghPx8ndIboHxGBAdIMWXkt6isPYkdeAY6eA3qFjUfsmGHw9ZDUsMIL2cNF4ad2H3TPJQTOpthb/wT03jADnZjH1vywReAEW8fG4rQ4nrsHHjFR6GPHhafNnYJeM4twW6gjZC1qtk+Em5T6tLmY0msminSGWFuzHROlGNaWYNG4WGw5fYtrpSsm55Yj/WkpFUjp3D0sI5fLPeyyKzXtEgL3361b8dsnn0gb1+j1CFgRDp28NeD2b7ehfrCD7i8bpqhC+QffeAMPTJokrV0rpbTHUxEa+SPmXchGlB01ls0LRMxndWINgQsrUDj7T9JqK5uHwJjPIFoGLkRF4WxYtdQeR2roaGRWi6oI905d0LHhGm4MWI7v8+LQxVrL2mp89d465P03GIuWT4SfEvVQDhdr502fO4yASwjcfxYtwu+HD0uDJgrcc1Cd/Qa/vP8+br38d/iG625FWwWuQ3AwHnr3XWnttlbKIBSPIqmkFAtku3BVSB0ajswLQmM+iN9XjmUDpXWvKnUownWG8Infh3IJhvU5MQiYXyZ6i12jtqAoayS6sHOpOPk4Bg+0plbnkTFiGFZU6sQx/MPL+DRGWl/vZik5XO5m/1y9LZcQuFrmRd2+dEnaWD8bC+/Opbj61Y9i+YfXH5ItcOoePdCFeY/2HWxqmhqK0ZnVTCjUGJV1EdlyXbj6bET3extHhQ51HIOc6kyMkNS5emRH98PbOkOMyalGplXDn5hADWYCJdj0RGLRESQHSGqsqRCbEndnU2LxLzn2trQlt6wcLnLbIjs5BFxC4K6OHCk+FUTOYY/ACU8h8d63T06zBhtxajo6E02zPPRMLMIR25TCWNfdjL9pt2GC7xyUCK17TUZuZTqetolELfYmxeCt733wWspqzArrLi1WaFMbdham+JudANve3CUE7kpoqGyS9gic0GjX4mLZbYNN51KGj8THupmh7gj/EJdlztXuavytMBF+sbtxk3VZPSoLF2W7nfLxtbklxd/aHLG9DbiEwDmnB8empinDMdJE3dhw90xE0ZFktDzb06VkZG/diW+PnUA1/DB0+DjMmNsXu0Jbj79p6ytxMHsrdn57DCeqAb+hwzFuxlz03RUqMf5mTJn4ZX863iu8Il6ffx69BEmhnsyTG4Tokf5o+CEf+WK+iRv8Qsdj6B/rUXlwB/IKtHghIxFBLK2kungnjohRhaYyPZpd6poalOZsQObuA6i8pAE8emBI5DT8be4Y9GuWflLfrL2B13djzUeforCY7WwR7CbMxzuzwtC9hbCgHC6amlLkbFiDz/NZG/BAj8DnMebN2Yh7SoGeqL0qomB7lxA4m2JwzQbLHg/Onhic9ngKho/8GILz1jE8HP2LinSxM4Tjw8ufwmK8naVkpMYlIKv8mi4NhD88PeF5/TquC++Zxd9qUZIah4SsclwzN4SnJ7PTGbYef+NjfBYueq/JuahMD0LulF6YKeabDMHS7WEoSFiFcrFh/bkVItEvFrsF94+VSTudhzhDzp0GFWtfQexaS31lxd37IenLr7HAsIih5drrgxdj2qEo9zT4pBWhFbVfIgqKk2G69iGHC/vHlBGDiass9U+NoOXH8OVUbwVLwv3VNZcQOJtWUR0ocLJXUfmpqToQC0uX4d8RMdBld1gOuGuPZyBq/Ap8JwqRlYPPf2NtZUSNxwpphq3mv5nk2Jl1QS+OZZgX2HQuHTqytJGbuGkQ1SaBY+IexMT9oni6vMdai9y4Z5G0t0nA3Tuhz6DheAxncejYGdzQq5aJDddeq1jUbPZ/jq3UNrlxMrlo2dQ8kE3NhWFw9x6Apwd3xKVDx3BG6JyaifX3TKyt5sdYG0D6XCoBlxA4m/LgHChw8vLg+KmpGn5J+1G6wIdbxRTyc2uwnc+yrWUrjs+wFUdR3NzhG5GGzatfQWBndrNqTmPj5CgsLTMqnzH/jQnGlGeYN6X7zN03AmmbV+OVwM5sYqjB6Y2TEbW0TOf1CYfU/Ld/xMFn+l7LycRVqRganil6puKh7o5RizMwf+yT6OvZHlo3N1zNGIHBuuVXtj4heH3C8oTpanL3MR+h4INI47TShAGXAmPSnhoPhyzGzo1xIhtNRQpGRH9sYQFHLhdu5dhrArZ/9z5CRL1kXmfKCEy/uQqH2blYS5CRevNSOesEXELgbNrJ4ECBk7OTgZ+aqv2SsL90gRhvK0z0Q6xuztYsD03LPgtknwkyxAQxsQDFyQNNbyKT1T7jzc97G5anaPz0Tnr+W2uLGfXZ0einyzcR5oVILChGssm8UIttE3wxR1x+5byq82sRFpyOU+xdT7bQ8k+20NLcETqeEsRilqLfZ8ib49tTM4EuZQnKjxrGmG+LxRyTStg/kz6Qz4VLbRGFOwtpcU81iXAtamu7sAc2WL8pqYTjCLiEwAm4bNuLagQsNwYnay+qlk2ngtj0TYjNs5s/aT9L6m1aTfiJ82pMtljV5yAmYD7KhGme/zwcPjiHu4H158El+Brib/XIiQnAfJ0h5h0+iDnGO98AwJjIKjX/7QxWDgvBOrZIYZ5MbCqYllNeLMffeNG0fvnrRdy0vSFpp5FnDOaxavhcPS+2faySbR+zh8t5rA0LRrqgwvrD3RsDoudh3crJZosf1s+DSthLwGUETvLTRPrHoNtLfZnvoDvaD47GQ/6dxN9vn9qDaxVCIMwDDScX40orDxax/WkiWpTNC2LbqHQrj60ePvHYV74MwiYEPu7V4g4D3oPTx9/497j6TNvlBULi/tNWk4n5eBiLLVYUwmynmMX4G0uXCWLpMjrnzPqhZrG8c2whxs1KezwDvQ24PbcyuGirt2HGqwuQX2O6jMF749ZPgEo4ioDLCJwATNLz4Ez2oraMWZPtjzPplj+X8zw4LcupCmJ7PSXIG2vUKDb8VqGWkoCrVg7DC8ylEnw1Q/yNj021lHpStRLDXlini1HJib8NScNptufUsADKt9mCePCeqjH+xk39hKTh75LR+8oNtlO4haN9J3TtxuKI1trjcvWg76tDuGhx+dtsrFy4Drkn9SvaSt2N4SgpUWY9LiVwkmJxDhA4m2NvzaamMUsSEPxA8wvmX/hiyUYcFcNwxjjaGSZeIbr5IFtxZJ7dIebZGaLY7EbbFofn5hQ1LRRwwfczTLxCmHjpDNm+1ENsX6ox/K29vA1xz81pWrhwfPyt45gcVJvt92oh/gZ+2trCk0iExZQvfsa02OcM4Pj4m6X2LP5zkM1Fi70LFwFL0jHKkIenxVev90H8nv8J/yEse6zK1IX7plcuJXDCqCnvOxn4qWkLiwTi5cbHi1h2mD6eVL4IT0RuMXh+7r5hmPr6i+iFcyje8Tn2GTwIVoVJ/ls5Fj0RiS16l9HdF2FTX8eLvYBzxTvw+b6TXE6cnPibPqalv1dM42FmK8FisZby3/i4GCvG+hrx1+VIGBcA76tV2LMnB5s3HUTNs/wuD2vt8Tz585PJ5XwGRgxbgVPeo7A4Yz7GPukLnMpB/MSlEBawzRc47hsNUfSJuJzACaOhpG/V4qemllcyjdcPv5JqnL6ZpjSYXW1qNdS3b1tM2ahle1OfYc+Gs5w6x+zUzM6W57+1Sfyt6Yz46XJLt5TJNjYZ8bcmB9Z2LvxKtoXOmSUfK1oT7qvOuaTAtYUnJ+vbtDQleDOY5Us1rZqap0yYXmsm01E+vsWem7ZtxqtYkF/DZei7wzt4ElJfc0NavG5HhPnz39iWqG0z8OqCfPAxcXfvYExKfQ1uafG6fbAS428mib4Oi78ZGWhOf4bZf3nbLIAPtQd6h8zEO6tnIUy/38qW+JvZ+dnOpbYkFXEJWU07MvR9VsOjdww+2LUakS3tA7uv5ER5J+OyAicMxX33zfaaOlysY/sy2eHh5QMvyY8E16DuYh1LRxUN4SPd8J5c0Zq6izhVUYJTLK/MP2Qg/Lp2g5DT7PjDVi5sH/DPP+LEkQpc8PBHyGB/xbN0PDNl1ejSAqcfCiGFRJOXZ8N3NrAt4Ow7Fzyio+mLZZR1PVNviIAJARI4Dofg0d06ehTaqio0XLiAO3V14nPkhOe6tfPyQvuePeEWEAD3IUPoe0/pRiICTkCABM4JBom6SASIgDwCJHDyuJEVESACTkCABM4JBom6SASIgDwCJHDyuJEVESACTkCABM4JBom6SASIgDwCJHDyuJEVESACTkCABM4JBom6SASIgDwCJHDyuJEVESACTkCABM4JBom6SASIgDwCJHDyuJEVESACTkCABM4JBom6SASIgDwCJHDyuJEVESACTkBA9fWG+Mb+0cucoKvURSJABIiAbQRI4GzjRaWJABFwIgIkcE40WNRVIkAEbCOgKsya1hgYtdQ2KypNBIgAEXACAiRwTjBI1EUiQATkEVAVbZzWGBBJHpw8fGRFBIiAkgmoDmyc3vh4ZIqS+0h9IwJEgAjIIqAq3pTQ6P9SCvv+y9toaGgQfwqvO3fuGF6NjY0QXsKh/6lvrfnfsnpBRkSACBCBVgioVCqzT/XvCT+FV7t27QwvtfB9wOyl+uaTBObBLTMIW3NxE4SuNYGjUSECRIAI3AsCrQmcIHaiwJVsntEYELXc4LW15L3xnhp5bfdiOKlNIkAE9AR4j07vwVny4v4PK/ah34W+aHsAAAAASUVORK5CYII=;" vertex="1" parent="1">
          <mxGeometry x="440" y="670" width="312" height="67" as="geometry" />
        </mxCell>
        <mxCell id="9TcWHJmhF9ff8y3S5NJL-73" style="edgeStyle=orthogonalEdgeStyle;rounded=0;orthogonalLoop=1;jettySize=auto;html=1;exitX=0;exitY=0;exitDx=0;exitDy=0;" edge="1" parent="1" source="9TcWHJmhF9ff8y3S5NJL-72">
          <mxGeometry relative="1" as="geometry">
            <mxPoint x="-340" y="1050" as="targetPoint" />
            <Array as="points">
              <mxPoint x="678" y="1090" />
              <mxPoint x="-340" y="1090" />
            </Array>
          </mxGeometry>
        </mxCell>
        <mxCell id="9TcWHJmhF9ff8y3S5NJL-72" value="" style="shape=partialRectangle;whiteSpace=wrap;html=1;bottom=1;right=1;left=1;top=0;fillColor=none;routingCenterX=-0.5;rotation=-90;" vertex="1" parent="1">
          <mxGeometry x="423.43" y="583.12" width="780.94" height="232.19" as="geometry" />
        </mxCell>
      </root>
    </mxGraphModel>
  </diagram>
</mxfile>
